<?xml version="1.0" encoding="UTF-8"?><svg id="Project_Overview" xmlns="http://www.w3.org/2000/svg" viewBox="0 0 128 128"><defs><style>.cls-1{fill:#2e2e2e;}</style></defs><g><path class="cls-1" d="M58.23,76.83l-1.85-3.54,1.77-.93c9.96-5.21,17.01-13.55,19.36-16.58-3.53-4.54-17.7-21.06-36.5-21.06S8.03,51.25,4.5,55.78c1.63,2.11,5.54,6.79,11.11,11.18l1.57,1.24-2.48,3.14-1.57-1.24C5.2,63.85,.55,57.2,.36,56.92c-.47-.69-.47-1.59,0-2.28,.68-.98,16.85-23.92,40.64-23.92s39.97,22.95,40.64,23.92c.47,.69,.47,1.59,0,2.28-.34,.49-8.47,12.09-21.64,18.98l-1.77,.93Z"/><g><rect class="cls-1" x="29" y="52" width="4" height="14"/><rect class="cls-1" x="38" y="47" width="4" height="19"/><rect class="cls-1" x="47" y="54" width="4" height="12"/><path class="cls-1" d="M59.84,52.26c-1.39-5.18-4.71-9.51-9.35-12.19-9.58-5.53-21.89-2.24-27.42,7.35-4.47,7.74-3.24,17.39,2.76,23.76l-1.29,2.23-1.56-.9c-.46-.27-1-.34-1.52-.2s-.95,.47-1.21,.93l-4.28,7.41-4.28,7.41c-.55,.96-.22,2.18,.73,2.73l1.56,.9-1.85,3.21c-.55,.96-.22,2.18,.73,2.73l6.59,3.8c.32,.18,.66,.27,1,.27,.69,0,1.36-.36,1.73-1l1.85-3.21,1.56,.9c.32,.18,.66,.27,1,.27,.69,0,1.36-.36,1.73-1l4.28-7.41,4.28-7.41c.55-.96,.22-2.18-.73-2.73l-1.56-.9,1.29-2.23c1.52,.36,3.06,.55,4.58,.55,7,0,13.71-3.68,17.38-10.04,2.68-4.64,3.39-10.05,2-15.23ZM19.71,96.99l-3.13-1.8,.85-1.48,3.13,1.8-.85,1.48Zm2.99-20.01l1.56,.9s0,0,0,0l5.26,3.04,2.89,1.67-2.28,3.95-4.86-2.8-4.86-2.8,2.28-3.95Zm3.16,16.97l-9.72-5.61,2.28-3.95,4.86,2.8,4.86,2.8-2.28,3.95Zm3.7-17.63l-1.56-.9,.9-1.55c.5,.35,1,.68,1.52,.98,.52,.3,1.06,.58,1.6,.83l-.9,1.55-1.56-.9Zm24.81-10.83c-3.88,6.72-11.99,9.71-19.29,7.11-.93-.33-1.83-.74-2.67-1.23-.83-.48-1.64-1.05-2.4-1.7-5.9-5.02-7.37-13.54-3.49-20.26,2.97-5.15,8.39-8.03,13.95-8.03,2.72,0,5.48,.69,8.01,2.15,3.72,2.15,6.38,5.61,7.49,9.76s.54,8.48-1.61,12.2Z"/></g></g><g><path class="cls-1" d="M120.9,128H30v-4H120.9c1.71,0,3.1-1.39,3.1-3.1V18h4V120.9c0,3.92-3.19,7.1-7.1,7.1Z"/><path class="cls-1" d="M110,10h-20V6c0-1.1-.9-2-2-2h-8.13c-1.88-2.49-4.84-4-7.99-4s-6.12,1.51-7.99,4h-7.88c-1.1,0-2,.9-2,2v4H32c-4.41,0-8,3.59-8,8v9h4v-9c0-2.21,1.79-4,4-4h22v4c0,1.1,.9,2,2,2h32c1.1,0,2-.9,2-2v-4h20c2.21,0,4,1.79,4,4V110c0,2.21-1.79,4-4,4H32c-2.21,0-4-1.79-4-4v-2h-4v2c0,4.41,3.59,8,8,8H110c4.41,0,8-3.59,8-8V18c0-4.41-3.59-8-8-8Zm-24,6h-28V8h6.95c.71,0,1.37-.38,1.73-1,1.07-1.85,3.06-3,5.19-3s4.12,1.15,5.19,3c.36,.62,1.02,1,1.73,1h7.2v8Z"/><g><g><path class="cls-1" d="M95.5,52c-8,0-14.5-6.5-14.5-14.5s6.5-14.5,14.5-14.5,14.5,6.5,14.5,14.5-6.5,14.5-14.5,14.5Zm0-25c-5.79,0-10.5,4.71-10.5,10.5s4.71,10.5,10.5,10.5,10.5-4.71,10.5-10.5-4.71-10.5-10.5-10.5Z"/><path class="cls-1" d="M108,40h-12c-1.1,0-2-.9-2-2v-13h4v11h10v4Z"/></g><g><rect class="cls-1" x="72" y="102" width="4" height="8"/><rect class="cls-1" x="64" y="90" width="4" height="20"/><rect class="cls-1" x="56" y="98" width="4" height="12"/><rect class="cls-1" x="48" y="94" width="4" height="16"/><rect class="cls-1" x="40" y="98" width="4" height="12"/><rect class="cls-1" x="80" y="94" width="4" height="16"/><rect class="cls-1" x="96" y="90" width="4" height="20"/><rect class="cls-1" x="104" y="82" width="4" height="28"/><rect class="cls-1" x="88" y="102" width="4" height="8"/></g></g></g></svg>