<?xml version="1.0" encoding="UTF-8"?><svg id="User_Segmentation" xmlns="http://www.w3.org/2000/svg" viewBox="0 0 128 128"><defs><style>.cls-1{fill:#2e2e2e;}</style></defs><g><path class="cls-1" d="M64.13,128c-14.97,0-29.53-5.27-41-14.84-.43-.36-.69-.88-.72-1.45s.19-1.11,.58-1.5l20.29-20.29c.69-.69,1.78-.78,2.58-.21,5.31,3.8,11.63,5.81,18.26,5.81,15.49,0,28.6-11.06,31.18-26.29,.16-.96,1-1.67,1.97-1.67h28.71c.56,0,1.1,.24,1.48,.65s.57,.97,.51,1.53c-1.45,15.86-8.73,30.55-20.52,41.38-11.86,10.89-27.25,16.88-43.34,16.88Zm-36.72-16.54c10.47,8.1,23.42,12.54,36.72,12.54,30.56,0,55.83-22.39,59.64-52.44h-24.84c-3.55,16.3-17.93,27.96-34.8,27.96-6.89,0-13.49-1.93-19.18-5.6l-17.55,17.55Zm-11.03-5.88s-.06,0-.09,0c-.56-.03-1.09-.29-1.45-.72C5.27,93.3,0,78.75,0,63.87,0,47.78,6,32.39,16.88,20.53,27.71,8.74,42.4,1.45,58.26,0c.56-.05,1.12,.14,1.53,.52s.65,.92,.65,1.48V30.71c0,.98-.7,1.81-1.67,1.97-15.23,2.58-26.29,15.69-26.29,31.18,0,6.63,2.01,12.94,5.81,18.26,.57,.79,.48,1.89-.21,2.58l-20.29,20.29c-.38,.38-.88,.59-1.41,.59ZM56.44,4.23C26.39,8.04,4,33.31,4,63.87c0,13.22,4.44,26.17,12.54,36.72l17.54-17.54c-3.67-5.69-5.6-12.28-5.6-19.18,0-16.88,11.66-31.25,27.96-34.8V4.23Z"/><path class="cls-1" d="M126,60.18h-28.71c-.98,0-1.81-.7-1.97-1.66-2.25-13.2-12.63-23.58-25.83-25.83-.96-.16-1.66-1-1.66-1.97V2c0-.56,.24-1.1,.65-1.48,.42-.38,.97-.56,1.53-.52,30.81,2.79,55.2,27.18,57.99,57.99,.05,.56-.14,1.12-.52,1.53-.38,.42-.91,.65-1.48,.65Zm-27.07-4h24.84c-3.45-27.13-24.82-48.5-51.95-51.95V29.07c13.53,2.97,24.14,13.59,27.11,27.11Z"/></g><g><path class="cls-1" d="M63.67,62.86c-6.87,0-12.46-5.64-12.46-12.58s5.59-12.58,12.46-12.58,12.46,5.64,12.46,12.58-5.59,12.58-12.46,12.58Zm0-21.16c-4.66,0-8.46,3.85-8.46,8.58s3.79,8.58,8.46,8.58,8.46-3.85,8.46-8.58-3.79-8.58-8.46-8.58Z"/><path class="cls-1" d="M83.44,81.7h-4v-2c0-5.9-5.18-10.7-11.54-10.7h-7.79c-6.36,0-11.54,4.8-11.54,10.7v2h-4v-2c0-8.11,6.97-14.7,15.54-14.7h7.79c8.57,0,15.54,6.59,15.54,14.7v2Z"/></g><rect class="cls-1" x="69" y="7" width="24" height="4"/><rect class="cls-1" x="68" y="15.4" width="36" height="4"/><rect class="cls-1" x="69" y="23.8" width="44" height="4"/><rect class="cls-1" x="80" y="32.2" width="40" height="4"/><rect class="cls-1" x="89" y="40.6" width="32" height="4"/><rect class="cls-1" x="94" y="49" width="31" height="4"/></svg>