<?xml version="1.0" encoding="UTF-8"?><svg id="Project_Objectives" xmlns="http://www.w3.org/2000/svg" viewBox="0 0 128 128"><defs><style>.cls-1{fill:#2e2e2e;}</style></defs><g><g><rect class="cls-1" x="64.36" y="117.76" width="15.94" height="4" transform="translate(-67.43 126.07) rotate(-61.46)"/><rect class="cls-1" x="106.96" y="112.08" width="4" height="15.6" transform="translate(-43.57 65.31) rotate(-28.05)"/><g><path class="cls-1" d="M90.58,120.41c-16.72,0-30.32-13.47-30.32-30.02s13.6-30.02,30.32-30.02c4.09,0,8.07,.79,11.81,2.36l1.84,.77-1.55,3.69-1.84-.77c-3.25-1.36-6.7-2.05-10.26-2.05-14.51,0-26.32,11.67-26.32,26.02s11.81,26.02,26.32,26.02,26.32-11.67,26.32-26.02c0-3.66-.75-7.2-2.24-10.52l-.82-1.83,3.65-1.63,.82,1.83c1.72,3.84,2.59,7.92,2.59,12.15,0,16.56-13.6,30.02-30.32,30.02Z"/><path class="cls-1" d="M90.58,111.06c-11.51,0-20.88-9.28-20.88-20.68s9.37-20.68,20.88-20.68,20.88,9.28,20.88,20.68-9.37,20.68-20.88,20.68Zm0-37.37c-9.31,0-16.88,7.48-16.88,16.68s7.57,16.68,16.88,16.68,16.88-7.48,16.88-16.68-7.57-16.68-16.88-16.68Z"/><path class="cls-1" d="M90.58,101.17c-6,0-10.89-4.84-10.89-10.79s4.88-10.79,10.89-10.79,10.89,4.84,10.89,10.79-4.88,10.79-10.89,10.79Zm0-17.58c-3.8,0-6.89,3.05-6.89,6.79s3.09,6.79,6.89,6.79,6.89-3.05,6.89-6.79-3.09-6.79-6.89-6.79Z"/><path class="cls-1" d="M90.58,93.68c-.99,0-1.98-.38-2.74-1.13-1.51-1.51-1.51-3.97,0-5.48,1.51-1.51,3.97-1.51,5.48,0s1.51,3.97,0,5.48c-.76,.76-1.75,1.13-2.74,1.13Zm0-4s-.06,.01-.09,.04c-.05,.05-.05,.13,0,.18,.05,.05,.13,.05,.17,0s.05-.13,0-.18c-.02-.02-.06-.04-.09-.04Z"/></g></g><path class="cls-1" d="M127.91,62.38c-.21-.71-.8-1.24-1.52-1.38l-2.98-.6,2.91-2.88-2.81-2.84-2.92,2.89-.59-2.95c-.14-.72-.68-1.31-1.38-1.52-.71-.21-1.47-.02-1.99,.5l-7.25,7.25c-1.35,1.35-2.19,3.12-2.3,4.88l-.27,5.49-18.33,18.14,2.81,2.84,18.17-17.98,5.86-.29c1.73-.11,3.5-.95,4.85-2.3l7.25-7.25c.52-.52,.71-1.29,.5-1.99Zm-16.84,3.56c.05-.76,.47-1.61,1.14-2.28l4.61-4.61,.38,1.87-6.17,6.11,.05-1.1Zm6.27,2.85c-.66,.66-1.51,1.09-2.25,1.13l-1.25,.06,6.19-6.19,1.92,.38-4.61,4.61Z"/></g><g><path class="cls-1" d="M86,10h-22V6c0-1.1-.9-2-2-2h-7.88c-1.88-2.49-4.84-4-7.99-4s-6.11,1.51-7.99,4h-8.13c-1.1,0-2,.9-2,2v4H8C3.59,10,0,13.59,0,18V120c0,4.41,3.59,8,8,8H60v-4H8c-2.21,0-4-1.79-4-4V18c0-2.21,1.79-4,4-4H28v4c0,1.1,.9,2,2,2H62c1.1,0,2-.9,2-2v-4h22c2.21,0,4,1.79,4,4V55h4V18c0-4.41-3.59-8-8-8Zm-26,6h-28V8h7.2c.71,0,1.37-.38,1.73-1,1.07-1.85,3.06-3,5.19-3s4.12,1.15,5.19,3c.36,.62,1.02,1,1.73,1h6.95v8Z"/><g><rect class="cls-1" x="22" y="26" width="62" height="4"/><rect class="cls-1" x="10" y="26" width="8" height="4"/><rect class="cls-1" x="22" y="36" width="62" height="4"/><rect class="cls-1" x="10" y="36" width="8" height="4"/><rect class="cls-1" x="22" y="46" width="62" height="4"/><rect class="cls-1" x="10" y="46" width="8" height="4"/><rect class="cls-1" x="10" y="58" width="6" height="4"/><rect class="cls-1" x="20" y="58" width="6" height="4"/><rect class="cls-1" x="30" y="58" width="6" height="4"/><rect class="cls-1" x="40" y="58" width="6" height="4"/><rect class="cls-1" x="50" y="58" width="6" height="4"/><rect class="cls-1" x="10" y="70" width="46" height="4"/><rect class="cls-1" x="10" y="80" width="42" height="4"/><rect class="cls-1" x="10" y="90" width="42" height="4"/><rect class="cls-1" x="10" y="100" width="42" height="4"/><rect class="cls-1" x="10" y="110" width="46" height="4"/></g></g></svg>