<?xml version="1.0" encoding="UTF-8"?><svg id="Project_Goals" xmlns="http://www.w3.org/2000/svg" viewBox="0 0 128 128"><defs><style>.cls-1{fill:#2e2e2e;}</style></defs><g><rect class="cls-1" x="14.35" y="116.94" width="21.3" height="4" transform="translate(-86.5 70.58) rotate(-54.68)"/><rect class="cls-1" x="88" y="108.29" width="4" height="21.3" transform="translate(-52.2 73.92) rotate(-35.32)"/><g><path class="cls-1" d="M57.54,120.94c-29.52,0-53.54-23.96-53.54-53.41S28.02,14.11,57.54,14.11c8.18,0,16.02,1.79,23.33,5.32l1.8,.87-1.74,3.6-1.8-.87c-6.76-3.27-14.02-4.92-21.59-4.92-27.32,0-49.54,22.17-49.54,49.41s22.22,49.41,49.54,49.41,49.54-22.17,49.54-49.41c0-7.84-1.79-15.34-5.31-22.28l-.9-1.78,3.57-1.81,.9,1.78c3.81,7.51,5.74,15.62,5.74,24.09,0,29.45-24.02,53.41-53.54,53.41Z"/><path class="cls-1" d="M57.54,103.8c-20.05,0-36.36-16.27-36.36-36.28S37.49,31.25,57.54,31.25s36.36,16.27,36.36,36.28-16.31,36.28-36.36,36.28Zm0-68.55c-17.84,0-32.36,14.48-32.36,32.28s14.52,32.28,32.36,32.28,32.36-14.48,32.36-32.28-14.52-32.28-32.36-32.28Z"/><path class="cls-1" d="M57.54,85.66c-10.02,0-18.17-8.13-18.17-18.13s8.15-18.13,18.17-18.13,18.17,8.13,18.17,18.13-8.15,18.13-18.17,18.13Zm0-32.26c-7.81,0-14.17,6.34-14.17,14.13s6.36,14.13,14.17,14.13,14.17-6.34,14.17-14.13-6.36-14.13-14.17-14.13Z"/><path class="cls-1" d="M57.54,72.55c-1.29,0-2.58-.49-3.56-1.47-.95-.95-1.48-2.21-1.48-3.56,0-1.34,.52-2.6,1.48-3.55,1.96-1.96,5.15-1.96,7.11,0,.95,.95,1.48,2.21,1.48,3.55,0,1.34-.52,2.61-1.48,3.56-.98,.98-2.27,1.47-3.56,1.47Zm0-6.05c-.26,0-.53,.1-.73,.3-.19,.19-.3,.45-.3,.72s.11,.53,.3,.72c.4,.4,1.06,.4,1.46,0,.19-.19,.3-.45,.3-.72s-.11-.53-.3-.72h0c-.2-.2-.47-.3-.73-.3Z"/></g></g><path class="cls-1" d="M123.93,17.78c-.19-.69-.74-1.23-1.43-1.4l-9.43-2.4,6.95-7.13-2.86-2.79-7.08,7.26-2.58-9.82c-.18-.69-.72-1.24-1.42-1.42-.69-.19-1.43,.01-1.94,.52l-13.57,13.68c-2.26,2.28-3.56,5.33-3.56,8.37v12.32l-29.83,30.58,2.86,2.79,29.74-30.5,11.82-.84c3-.02,6-1.33,8.25-3.6l13.57-13.68c.51-.51,.7-1.25,.51-1.94Zm-32.93,4.86c0-1.99,.88-4.02,2.4-5.55l11.11-11.2,2.25,8.56-13.23,13.82-2.53,2.6v-8.22Zm16.01,7.94c-1.52,1.53-3.52,2.41-5.49,2.41-.05,0-.1,0-.14,0l-7.24,.52,7.69-8.04,8-8.21,8.28,2.11-11.11,11.2Z"/></svg>