<?xml version="1.0" encoding="UTF-8"?><svg id="Project_Analysis" xmlns="http://www.w3.org/2000/svg" viewBox="0 0 128 128"><defs><style>.cls-1{fill:#2e2e2e;}</style></defs><g><g><rect class="cls-1" x="90" y="61" width="4" height="14"/><rect class="cls-1" x="110" y="51" width="4" height="24"/><rect class="cls-1" x="100" y="54" width="4" height="21"/></g><path class="cls-1" d="M128,63.63c0-14.34-11.66-26-26-26-14.34,0-26,11.66-26,26,0,11.04,6.93,20.69,17,24.39v5.99s-2,0-2,0c-1.1,0-2,.9-2,2v22c0,1.1,.9,2,2,2h2v6c0,1.1,.9,2,2,2h14c1.1,0,2-.9,2-2v-6h2c1.1,0,2-.9,2-2v-22c0-1.1-.9-2-2-2h-2v-5.99c10.07-3.7,17-13.34,17-24.39Zm-48,0c0-12.13,9.87-22,22-22,12.13,0,22,9.87,22,22,0,10.62-7.57,19.71-18,21.63-1.33,.24-2.67,.37-4,.37h-.01c-1.31,0-2.65-.12-3.98-.37-10.43-1.92-18-11.01-18-21.63Zm13,34.37h18v7h-18v-7Zm14,26h-10v-4s10,0,10,0v4Zm4-8h-18v-7h18v7Zm-14-22v-4s10,0,10,0v4h-10Z"/></g><g><path class="cls-1" d="M90,0H22.07c-1.64,0-3.19,.56-4.44,1.59-.11,.08-.22,.17-.32,.28l-.18,.18L2.05,17.12l-.18,.18c-.1,.1-.19,.21-.28,.32-1.03,1.25-1.59,2.8-1.59,4.44V114c0,4.41,3.59,8,8,8H83v-4H8c-2.21,0-4-1.79-4-4V22.07s0-.05,0-.07h15.99c1.1,0,2-.9,2-2V4.01s.05,0,.07,0H90c2.21,0,4,1.79,4,4V31h4V8c0-4.41-3.59-8-8-8ZM18,18H6.83L18,6.83v11.17Z"/><g><g><path class="cls-1" d="M28,107.64c-9.93,0-18-8.07-18-18s8.07-18,18-18,18,8.07,18,18-8.07,18-18,18Zm0-32c-7.72,0-14,6.28-14,14s6.28,14,14,14,14-6.28,14-14-6.28-14-14-14Z"/><path class="cls-1" d="M45,91H28c-1.1,0-2-.9-2-2v-17h4v15h15v4Z"/></g><g><rect class="cls-1" x="50" y="77" width="16" height="4"/><rect class="cls-1" x="50" y="97" width="16" height="4"/><rect class="cls-1" x="50" y="87" width="16" height="4"/></g><rect class="cls-1" x="38" y="18" width="44" height="4"/><rect class="cls-1" x="10" y="28" width="72" height="4"/><rect class="cls-1" x="10" y="38" width="64" height="4"/><rect class="cls-1" x="10" y="48" width="59" height="4"/><rect class="cls-1" x="10" y="58" width="56" height="4"/><rect class="cls-1" x="26" y="18" width="8" height="4"/></g></g></svg>