<?xml version="1.0" encoding="UTF-8"?><svg id="Project_Dependencies" xmlns="http://www.w3.org/2000/svg" viewBox="0 0 128 128"><defs><style>.cls-1{fill:#2e2e2e;}</style></defs><path class="cls-1" d="M95.5,128H14.6c-3.92,0-7.1-3.19-7.1-7.1V28h4V120.9c0,1.71,1.39,3.1,3.1,3.1H95.5v4Z"/><g><path class="cls-1" d="M111.5,110c0,2.21-1.79,4-4,4H25.5c-2.21,0-4-1.79-4-4v-14h-4v14c0,4.41,3.59,8,8,8H107.5c4.41,0,8-3.59,8-8v-4h-4v4Z"/><path class="cls-1" d="M107.5,0H39.57c-1.64,0-3.19,.56-4.44,1.59-.11,.08-.22,.18-.32,.28l-7.72,7.72-7.54,7.54s0,0,0,0l-.18,.18c-.1,.1-.19,.21-.28,.32-1.03,1.25-1.59,2.8-1.59,4.44V59h4V22.07s0-.05,0-.07h15.99c1.1,0,2-.9,2-2V4.01s.05,0,.07,0H107.5c2.21,0,4,1.79,4,4v14h4V8c0-4.41-3.59-8-8-8ZM24.33,18l7.84-7.84,3.34-3.34v11.17h-11.17Z"/></g><path class="cls-1" d="M113.5,27.71c-3.86,0-7,2.74-7,6.1v53.81c0,.3,.07,.6,.2,.88l5,10.24c.33,.69,1.03,1.12,1.8,1.12s1.46-.44,1.8-1.12l5-10.24c.13-.27,.2-.57,.2-.88V33.81c0-3.36-3.14-6.1-7-6.1Zm-3,16.29h6v39h-6V44Zm0-10.19c0-1.14,1.37-2.1,3-2.1s3,.96,3,2.1v6.19h-6v-6.19Zm6,53.34l-3,6.14-3-6.14v-.15h6v.15Z"/><g><g><rect class="cls-1" x="74.26" y="35.67" width="6" height="4"/><rect class="cls-1" x="84.26" y="35.67" width="6" height="4"/><path class="cls-1" d="M99.76,47.89c.14,.54,.25,1.11,.31,1.68l.22,1.99,3.98-.44-.22-1.99c-.08-.76-.22-1.52-.42-2.25l-.51-1.93-3.87,1.02,.51,1.93Z"/><path class="cls-1" d="M99.02,56.29c-.25,.51-.53,1.01-.84,1.47l-1.12,1.65,3.31,2.25,1.13-1.65c.43-.63,.81-1.3,1.15-2l.86-1.81-3.61-1.72-.86,1.81Z"/><path class="cls-1" d="M100.35,40.48l-1.52-1.3c-.58-.5-1.21-.96-1.86-1.37l-1.7-1.05-2.1,3.4,1.7,1.05c.48,.29,.93,.63,1.36,.99l1.52,1.3,2.61-3.03Z"/><path class="cls-1" d="M92.96,61.87c-.52,.19-1.06,.34-1.61,.44l-1.96,.37,.74,3.93,1.97-.37c.76-.14,1.51-.35,2.24-.62l1.88-.69-1.38-3.76-1.88,.69Z"/><polygon class="cls-1" points="87.58 70.48 87.58 58.52 77.22 64.5 87.58 70.48"/></g><g><path class="cls-1" d="M17.96,76.4c.06-.56,.17-1.12,.31-1.67l.51-1.93-3.87-1.02-.51,1.93c-.19,.74-.33,1.5-.42,2.26l-.22,1.99,3.98,.43,.22-1.99Z"/><rect class="cls-1" x="27.76" y="62.5" width="6" height="4"/><path class="cls-1" d="M19,83.12l-.86-1.81-3.61,1.72,.86,1.81c.33,.69,.71,1.37,1.14,2l1.12,1.66,3.31-2.25-1.12-1.66c-.32-.46-.6-.96-.84-1.47Z"/><rect class="cls-1" x="37.76" y="62.5" width="6" height="4"/><path class="cls-1" d="M24.86,67l-2.1-3.4-1.7,1.05c-.65,.4-1.28,.86-1.86,1.36l-1.52,1.3,2.61,3.03,1.52-1.3c.43-.37,.88-.7,1.36-1l1.7-1.05Z"/><path class="cls-1" d="M25.06,88.71l-1.88-.69-1.38,3.76,1.88,.69c.73,.27,1.48,.47,2.24,.62l1.96,.37,.74-3.93-1.97-.37c-.54-.1-1.08-.25-1.61-.44Z"/><polygon class="cls-1" points="30.44 97.32 40.8 91.33 30.44 85.35 30.44 97.32"/></g><path class="cls-1" d="M75.3,45.42H42.72c-1.1,0-2-.9-2-2v-13.42c0-1.1,.9-2,2-2h32.58c1.1,0,2,.9,2,2v13.42c0,1.1-.9,2-2,2Zm-30.58-4h28.58v-9.42h-28.58v9.42Z"/><path class="cls-1" d="M75.3,72.25H42.72c-1.1,0-2-.9-2-2v-13.42c0-1.1,.9-2,2-2h32.58c1.1,0,2,.9,2,2v13.42c0,1.1-.9,2-2,2Zm-30.58-4h28.58v-9.42h-28.58v9.42Z"/><path class="cls-1" d="M75.3,101H42.72c-1.1,0-2-.9-2-2v-13.42c0-1.1,.9-2,2-2h32.58c1.1,0,2,.9,2,2v13.42c0,1.1-.9,2-2,2Zm-30.58-4h28.58v-9.42h-28.58v9.42Z"/></g></svg>