<svg xmlns="http://www.w3.org/2000/svg" xmlns:xlink="http://www.w3.org/1999/xlink" width="866" zoomAndPan="magnify" viewBox="0 0 649.5 597.749982" height="797" preserveAspectRatio="xMidYMid meet" version="1.0"><defs><clipPath id="143f15da89"><path d="M 54 0.105469 L 648.1875 0.105469 L 648.1875 546 L 54 546 Z M 54 0.105469 " clip-rule="nonzero"/></clipPath></defs><g clip-path="url(#143f15da89)"><path fill="#17f1fc" d="M 54.671875 110.648438 L 54.671875 545.535156 C 386.515625 539.1875 648.1875 466.8125 648.1875 378.464844 L 648.1875 -56.414062 C 648.1875 31.933594 386.515625 104.300781 54.671875 110.648438 Z M 54.671875 110.648438 " fill-opacity="0.4" fill-rule="nonzero"/></g><path fill="#ffffff" d="M 582.316406 94.382812 L 582.316406 372.632812 C 488.285156 428.886719 324.824219 461.5 120.539062 464.769531 L 120.539062 173.777344 C 340.035156 183.757812 498.488281 132.6875 582.316406 94.382812 Z M 582.316406 94.382812 " fill-opacity="0.7" fill-rule="nonzero"/><path fill="#ff7be3" d="M 155.601562 308.449219 C 155.742188 306.753906 155.90625 305.0625 156.132812 303.378906 C 155.832031 305.648438 156.234375 302.84375 156.28125 302.554688 C 156.417969 301.714844 156.566406 300.878906 156.722656 300.042969 C 157.351562 296.707031 158.140625 293.398438 159.085938 290.132812 C 159.953125 287.140625 160.953125 284.1875 162.074219 281.28125 C 162.382812 280.488281 162.699219 279.699219 163.023438 278.914062 C 162.207031 280.882812 163.3125 278.289062 163.410156 278.074219 C 164.105469 276.527344 164.84375 274.992188 165.613281 273.476562 C 167.152344 270.449219 168.835938 267.488281 170.65625 264.617188 C 171.414062 263.421875 172.195312 262.238281 172.996094 261.074219 C 173.480469 260.375 173.96875 259.679688 174.46875 258.992188 C 174.675781 258.707031 176.796875 255.945312 175.535156 257.539062 C 179.582031 252.425781 184.0625 247.636719 189.011719 243.386719 C 189.671875 242.816406 190.339844 242.257812 191.027344 241.71875 C 189.453125 242.945312 191.757812 241.230469 191.898438 241.132812 C 193.328125 240.148438 194.8125 239.242188 196.359375 238.453125 C 196.304688 238.480469 198.835938 237.398438 197.550781 237.875 C 196.257812 238.355469 198.878906 237.472656 198.804688 237.492188 C 199.617188 237.25 200.433594 237.070312 201.261719 236.890625 C 199.109375 237.359375 202.410156 236.863281 202.945312 236.875 L 203.65625 236.898438 C 204.75 236.992188 204.59375 236.949219 203.195312 236.769531 C 203.664062 236.699219 204.394531 236.992188 204.863281 237.101562 C 205.40625 237.234375 205.945312 237.386719 206.476562 237.558594 L 207.105469 237.78125 C 208.082031 238.160156 207.9375 238.097656 206.664062 237.589844 C 207.347656 237.394531 209.535156 239.246094 210.113281 239.621094 C 212.015625 240.839844 208.679688 238.21875 210.320312 239.800781 C 210.816406 240.277344 211.347656 240.71875 211.839844 241.203125 C 212.851562 242.199219 213.761719 243.273438 214.679688 244.351562 C 213.125 242.523438 214.671875 244.363281 214.929688 244.726562 C 215.355469 245.324219 215.765625 245.933594 216.164062 246.550781 C 217.789062 249.066406 219.214844 251.707031 220.496094 254.410156 C 220.820312 255.089844 221.121094 255.777344 221.4375 256.457031 C 222.472656 258.664062 220.933594 255.167969 221.503906 256.578125 C 222.007812 257.828125 222.507812 259.074219 222.980469 260.339844 C 224.34375 264.003906 225.621094 267.703125 226.902344 271.398438 C 237.339844 301.527344 245.644531 332.144531 253.222656 363.097656 C 256.128906 374.960938 260.160156 386.847656 267.964844 396.429688 C 276.609375 407.046875 290.816406 411.84375 304.066406 407.945312 C 319.1875 403.5 329.367188 391.003906 335.097656 376.890625 C 340.648438 363.226562 342.410156 348.246094 346.25 334.0625 C 348.277344 326.582031 350.574219 319.171875 353.136719 311.851562 C 354.3125 308.5 355.542969 305.164062 356.828125 301.851562 C 357.527344 300.042969 358.242188 298.242188 358.976562 296.449219 C 359.222656 295.851562 359.46875 295.253906 359.714844 294.65625 C 360.160156 293.597656 360.214844 293.464844 359.878906 294.261719 C 360.132812 293.664062 360.390625 293.070312 360.644531 292.480469 C 366.214844 279.632812 372.316406 266.578125 380.355469 255.058594 C 380.8125 254.40625 381.277344 253.757812 381.75 253.113281 C 381.933594 252.863281 383.59375 250.796875 382.1875 252.519531 C 383.019531 251.5 383.851562 250.480469 384.726562 249.496094 C 386.953125 246.984375 389.363281 244.652344 391.988281 242.558594 C 390.226562 243.964844 393.234375 241.75 393.742188 241.429688 C 395.007812 240.625 396.335938 239.964844 397.652344 239.25 C 399.804688 238.085938 395.789062 239.828125 398.105469 239.039062 C 398.8125 238.796875 399.507812 238.535156 400.222656 238.316406 C 401.671875 237.875 403.148438 237.558594 404.640625 237.308594 C 402.199219 237.714844 404.714844 237.355469 405.164062 237.332031 C 405.921875 237.289062 406.679688 237.277344 407.441406 237.292969 C 408.191406 237.308594 408.9375 237.378906 409.6875 237.421875 C 410.476562 237.464844 410.972656 237.136719 409.363281 237.367188 C 410.574219 237.191406 412.527344 238.042969 413.679688 238.402344 C 414.390625 238.625 415.078125 238.886719 415.777344 239.132812 C 416.773438 239.53125 416.699219 239.5 415.550781 239.039062 C 416.003906 239.246094 416.453125 239.460938 416.898438 239.6875 C 418.015625 240.253906 419.109375 240.878906 420.167969 241.546875 C 420.8125 241.953125 421.425781 242.402344 422.0625 242.816406 C 424.179688 244.183594 420.636719 241.542969 422.570312 243.179688 C 424.96875 245.207031 427.214844 247.34375 429.265625 249.726562 C 429.78125 250.328125 430.285156 250.941406 430.777344 251.5625 C 429.394531 249.824219 431.011719 251.917969 431.191406 252.171875 C 431.960938 253.253906 432.695312 254.363281 433.398438 255.492188 C 434.234375 256.84375 435.023438 258.230469 435.757812 259.640625 C 436.125 260.34375 436.480469 261.050781 436.820312 261.765625 C 437.003906 262.15625 438.285156 265.289062 437.433594 263.082031 C 440.058594 269.871094 441.8125 276.921875 443.1875 284.058594 C 446.03125 298.847656 447.316406 314.113281 452.53125 328.34375 C 457.898438 342.980469 467.355469 356.40625 482.898438 361.171875 C 490.746094 363.574219 499.019531 363 506.460938 359.617188 C 512.566406 356.84375 517.140625 351.898438 521.003906 346.5625 C 524.355469 341.925781 526.902344 336.773438 529.777344 331.839844 C 531.179688 329.429688 532.664062 327.0625 534.339844 324.828125 C 532.847656 326.816406 535.164062 323.964844 535.605469 323.496094 C 536.746094 322.289062 537.988281 321.214844 539.242188 320.125 C 537.421875 321.707031 539.175781 320.1875 539.566406 319.914062 C 540.144531 319.503906 540.734375 319.113281 541.335938 318.738281 C 542.335938 318.109375 543.363281 317.523438 544.414062 316.980469 C 545.046875 316.65625 545.691406 316.363281 546.328125 316.050781 C 548.484375 315 544.398438 316.6875 546.671875 315.921875 C 548.023438 315.464844 549.355469 314.976562 550.730469 314.597656 C 552.105469 314.21875 553.5 313.90625 554.902344 313.660156 C 555.710938 313.515625 557.257812 312.734375 555.1875 313.59375 C 555.734375 313.367188 556.722656 313.445312 557.316406 313.40625 C 558.5 313.328125 559.6875 313.296875 560.875 313.3125 C 561.585938 313.324219 562.296875 313.351562 563.007812 313.394531 C 563.558594 313.429688 566.769531 313.507812 564 313.417969 C 566.472656 313.496094 569.238281 314.441406 571.5625 315.242188 C 572.234375 315.472656 572.890625 315.730469 573.550781 315.988281 C 571.226562 315.070312 573.433594 315.984375 573.851562 316.191406 C 575.132812 316.824219 576.359375 317.539062 577.5625 318.304688 C 581.789062 320.988281 588.285156 319.324219 590.636719 314.875 C 593.128906 310.15625 591.71875 304.667969 587.207031 301.800781 C 575.898438 294.621094 562.132812 292.859375 549.121094 295.359375 C 536.03125 297.875 524.660156 305.554688 516.988281 316.34375 C 513.582031 321.136719 510.988281 326.433594 508.003906 331.484375 C 507.269531 332.726562 506.515625 333.960938 505.714844 335.160156 C 505.351562 335.707031 503.101562 338.621094 504.722656 336.660156 C 503.839844 337.726562 502.945312 338.777344 501.953125 339.746094 C 501.460938 340.226562 500.941406 340.667969 500.433594 341.128906 C 499.625 341.785156 499.730469 341.707031 500.742188 340.890625 C 500.371094 341.152344 499.988281 341.40625 499.597656 341.648438 C 499.003906 342.019531 498.386719 342.332031 497.777344 342.667969 C 496.339844 343.457031 497.691406 342.703125 498.011719 342.597656 C 497.242188 342.855469 496.484375 343.117188 495.691406 343.308594 C 495.226562 343.421875 492.757812 343.617188 495.058594 343.488281 C 493.441406 343.578125 491.84375 343.605469 490.226562 343.414062 C 492.582031 343.695312 489.921875 343.265625 489.558594 343.175781 C 488.492188 342.917969 487.457031 342.578125 486.421875 342.214844 C 484.699219 341.613281 486.085938 342.054688 486.421875 342.222656 C 485.679688 341.851562 484.941406 341.492188 484.222656 341.078125 C 483.503906 340.667969 482.832031 340.195312 482.128906 339.761719 C 479.957031 338.421875 483.308594 340.996094 481.460938 339.25 C 480.203125 338.058594 478.945312 336.90625 477.804688 335.59375 C 477.664062 335.429688 475.980469 333.195312 477.152344 334.832031 C 476.566406 334.015625 476 333.183594 475.460938 332.332031 C 474.609375 330.988281 473.828125 329.601562 473.109375 328.183594 C 472.710938 327.40625 472.355469 326.613281 471.976562 325.828125 C 470.746094 323.277344 472.566406 327.550781 471.578125 324.894531 C 470.304688 321.460938 469.167969 318 468.242188 314.453125 C 466.265625 306.898438 465.019531 299.183594 463.769531 291.480469 C 461.335938 276.523438 458.71875 261.25 451.117188 247.902344 C 444.152344 235.664062 433.546875 225.273438 420.164062 220.445312 C 407.128906 215.742188 392.292969 218.691406 381.308594 226.859375 C 370.292969 235.050781 362.425781 246.441406 355.976562 258.421875 C 348.390625 272.507812 341.859375 287.191406 336.34375 302.210938 C 331.015625 316.734375 326.8125 331.613281 323.550781 346.734375 C 321.980469 354.007812 320.480469 361.335938 317.988281 368.363281 C 317.730469 369.089844 317.460938 369.808594 317.183594 370.527344 C 317.039062 370.902344 316.234375 372.714844 316.910156 371.21875 C 316.152344 372.902344 315.332031 374.554688 314.421875 376.160156 C 313.585938 377.628906 312.671875 379.035156 311.6875 380.40625 C 312.957031 378.640625 311.367188 380.761719 311.164062 380.996094 C 310.453125 381.8125 309.714844 382.597656 308.941406 383.355469 C 307.976562 384.300781 306.96875 385.203125 305.910156 386.039062 C 307.621094 384.6875 305.488281 386.273438 305.238281 386.4375 C 304.574219 386.878906 303.890625 387.300781 303.195312 387.695312 C 302.503906 388.085938 301.792969 388.425781 301.085938 388.796875 C 298.863281 389.960938 302.863281 388.339844 300.46875 389.039062 C 298.964844 389.476562 297.496094 389.882812 295.96875 390.222656 C 298.296875 389.707031 295.964844 390.191406 295.441406 390.214844 C 294.664062 390.25 293.894531 390.1875 293.121094 390.207031 C 290.6875 390.265625 294.945312 390.742188 292.554688 390.164062 C 291.851562 389.992188 291.152344 389.855469 290.457031 389.652344 C 290.101562 389.550781 288.769531 389.316406 288.550781 389.011719 L 289.613281 389.46875 C 289.214844 389.292969 288.824219 389.101562 288.4375 388.902344 C 287.65625 388.5 285.457031 387.632812 285.144531 386.859375 L 286.054688 387.5625 C 285.71875 387.292969 285.390625 387.011719 285.070312 386.726562 C 284.582031 386.292969 284.113281 385.84375 283.65625 385.378906 C 283.199219 384.910156 282.753906 384.429688 282.324219 383.933594 C 281.859375 383.398438 280.402344 382.359375 282.152344 383.796875 C 280.308594 382.285156 278.917969 378.832031 277.882812 376.761719 C 277.566406 376.128906 277.261719 375.492188 276.96875 374.851562 C 276.78125 374.441406 275.875 372.199219 276.796875 374.511719 C 276.261719 373.171875 275.742188 371.828125 275.261719 370.464844 C 274.304688 367.730469 273.46875 364.957031 272.714844 362.160156 C 268.695312 347.296875 265.457031 332.238281 261.304688 317.402344 C 256.871094 301.539062 251.988281 285.800781 246.667969 270.210938 C 242.351562 257.566406 238.328125 244.109375 230.132812 233.335938 C 225.632812 227.421875 220.355469 222.675781 213.421875 219.847656 C 206.71875 217.117188 198.902344 217.136719 192.117188 219.609375 C 177.839844 224.8125 166.675781 237.339844 157.96875 249.347656 C 149.707031 260.734375 143.566406 273.910156 139.980469 287.507812 C 138.171875 294.355469 137.078125 301.394531 136.492188 308.449219 C 136.074219 313.441406 141.183594 318.222656 146.046875 318.003906 C 151.578125 317.753906 155.15625 313.796875 155.601562 308.449219 Z M 155.601562 308.449219 " fill-opacity="1" fill-rule="nonzero"/></svg>