<svg fill="#000000" xmlns="http://www.w3.org/2000/svg"  viewBox="0 0 48 48" width="24px" height="24px"><path d="M 29 4 A 2.0002 2.0002 0 1 0 29 8 L 38.007812 8 L 29.910156 16.095703 C 27.028979 13.851975 23.421392 12.5 19.5 12.5 C 10.134844 12.5 2.5 20.134851 2.5 29.5 C 2.5 38.865149 10.134844 46.5 19.5 46.5 C 28.865156 46.5 36.5 38.865149 36.5 29.5 C 36.5 25.494174 35.095325 21.810986 32.763672 18.900391 L 41 10.664062 L 41 20 A 2.0002 2.0002 0 1 0 45 20 L 45 6 A 2.0002 2.0002 0 0 0 43 4 L 29 4 z M 19.5 16.5 C 26.703397 16.5 32.5 22.296607 32.5 29.5 C 32.5 36.703393 26.703397 42.5 19.5 42.5 C 12.296603 42.5 6.5 36.703393 6.5 29.5 C 6.5 22.296607 12.296603 16.5 19.5 16.5 z"/></svg>