<?xml version="1.0" encoding="UTF-8"?><svg id="Project_Lifecycle" xmlns="http://www.w3.org/2000/svg" viewBox="0 0 128 128"><defs><style>.cls-1{fill:#2e2e2e;}</style></defs><g><g><path class="cls-1" d="M107,120c0,2.21-1.79,4-4,4H25c-2.21,0-4-1.79-4-4V48h-4V120c0,4.41,3.59,8,8,8H103c4.41,0,8-3.59,8-8v-16h-4v16Z"/><path class="cls-1" d="M103,10h-22V6c0-1.1-.9-2-2-2h-7.88c-1.88-2.49-4.84-4-7.99-4s-6.12,1.51-7.99,4h-8.13c-1.1,0-2,.9-2,2v4H25c-4.41,0-8,3.59-8,8v9h4v-9c0-2.21,1.79-4,4-4h20v4c0,1.1,.9,2,2,2h32c1.1,0,2-.9,2-2v-4h22c2.21,0,4,1.79,4,4V83h4V18c0-4.41-3.59-8-8-8Zm-26,6h-28V8h7.2c.71,0,1.37-.38,1.73-1,1.07-1.85,3.06-3,5.19-3s4.12,1.15,5.19,3c.36,.62,1.02,1,1.73,1h6.95v8Z"/></g><g><rect class="cls-1" x="62" y="24" width="40" height="4"/><rect class="cls-1" x="50" y="24" width="8" height="4"/><rect class="cls-1" x="62" y="35" width="40" height="4"/><rect class="cls-1" x="50" y="35" width="8" height="4"/><rect class="cls-1" x="62" y="46" width="40" height="4"/><rect class="cls-1" x="50" y="46" width="8" height="4"/><rect class="cls-1" x="50" y="58" width="8" height="4"/><rect class="cls-1" x="62" y="58" width="8" height="4"/><rect class="cls-1" x="74" y="58" width="8" height="4"/><rect class="cls-1" x="86" y="58" width="8" height="4"/><rect class="cls-1" x="26" y="70" width="60" height="4"/><rect class="cls-1" x="26" y="81" width="48" height="4"/><rect class="cls-1" x="26" y="92" width="48" height="4"/><rect class="cls-1" x="26" y="103" width="60" height="4"/></g></g><g><path class="cls-1" d="M47.24,37.94l-13.83-13.75c-.57-.57-1.43-.74-2.18-.43-.75,.31-1.23,1.04-1.23,1.85v5.28l-2.61,.06C12.29,31.26,0,40.96,0,52.55c0,8.66,6.99,16.73,17.38,20.09l1.9,.61,1.23-3.81-1.9-.62c-2.89-.93-5.46-2.27-7.62-3.9v-.94c0-3.12,.87-5.97,2.41-8.39,1.1,.93,2.3,1.77,3.61,2.51l1.74,.98,1.97-3.48-1.74-.99c-1.1-.62-2.1-1.33-3.02-2.1,2.82-2.63,6.69-4.36,11.21-4.77l2.82-.25v5.6c0,.81,.49,1.54,1.23,1.85,.75,.31,1.6,.14,2.18-.43l13.83-13.75c.38-.38,.59-.89,.59-1.42s-.21-1.04-.59-1.42Zm-13.24,10.36v-2.98c0-.56-.24-1.1-.65-1.48-.42-.38-.97-.57-1.53-.52l-5,.45c-10.65,.96-18.37,7.97-19.64,17.43-2.04-2.62-3.18-5.61-3.18-8.67,0-9.43,10.53-17.33,23.48-17.61l4.56-.1c1.09-.02,1.96-.91,1.96-2v-2.43l9,8.94-9,8.94Z"/><path class="cls-1" d="M110.62,58.86l-1.9-.61-1.23,3.81,1.9,.62c2.89,.93,5.46,2.27,7.62,3.9v.94c0,3.12-.87,5.97-2.41,8.39-1.1-.93-2.3-1.77-3.61-2.51l-1.74-.98-1.97,3.48,1.74,.99c1.1,.62,2.1,1.33,3.02,2.1-2.82,2.63-6.69,4.36-11.21,4.77l-2.82,.25v-5.6c0-.81-.49-1.54-1.23-1.85-.75-.31-1.61-.14-2.18,.43l-13.83,13.75c-.38,.38-.59,.89-.59,1.42s.21,1.04,.59,1.42l13.83,13.75c.38,.38,.89,.58,1.41,.58,.26,0,.52-.05,.77-.15,.75-.31,1.23-1.04,1.23-1.85v-5.28l2.61-.06c15.11-.32,27.39-10.01,27.39-21.61,0-8.66-6.99-16.73-17.38-20.09Zm-10.1,37.7l-4.56,.1c-1.09,.02-1.96,.91-1.96,2v2.43l-9-8.94,9-8.94v2.98c0,.56,.24,1.1,.65,1.48,.41,.38,.97,.56,1.53,.52l5-.45c10.65-.96,18.37-7.97,19.64-17.43,2.04,2.62,3.18,5.61,3.18,8.67,0,9.43-10.53,17.33-23.48,17.61Z"/></g></svg>