<?xml version="1.0" encoding="UTF-8"?><svg id="Technology_Companies_Illustration_2" xmlns="http://www.w3.org/2000/svg" width="1246.967500585502" height="1385.599175307855" xmlns:xlink="http://www.w3.org/1999/xlink" viewBox="0 0 1246.967500585502 1385.599175307855"><defs><linearGradient id="linear-gradient" x1="827.90521541828" y1="1294.814333057405" x2="827.90521541828" y2="658.17070805269" gradientTransform="translate(38.541508408165 -27.401328853442) rotate(2.135375530723)" gradientUnits="userSpaceOnUse"><stop offset="0" stop-color="#1e2750"/><stop offset=".240525561301" stop-color="#212a56"/><stop offset=".563379563429" stop-color="#2a3567"/><stop offset=".931661261132" stop-color="#3a4882"/><stop offset="1" stop-color="#3e4c89"/></linearGradient><linearGradient id="linear-gradient-2" x1="749.475350958024" y1="267.943184577055" x2="749.475350958024" y2="219.823189459868" gradientUnits="userSpaceOnUse"><stop offset="0" stop-color="#fabda1"/><stop offset=".117548629292" stop-color="#f6a8a2"/><stop offset=".280244181981" stop-color="#f293a3"/><stop offset=".46184782123" stop-color="#ef84a4"/><stop offset=".67540218435" stop-color="#ed7ba4"/><stop offset="1" stop-color="#ed79a5"/></linearGradient><linearGradient id="linear-gradient-3" x1="664.665763245253" y1="173.536561719283" x2="677.519093060165" y2="173.536561719283" gradientUnits="userSpaceOnUse"><stop offset="0" stop-color="#70cae2"/><stop offset=".018708823036" stop-color="#6fc8e1"/><stop offset=".448825477098" stop-color="#68a0cf"/><stop offset=".790798305811" stop-color="#6488c4"/><stop offset="1" stop-color="#637fc0"/></linearGradient><linearGradient id="linear-gradient-4" x1="811.660758362441" y1="273.75082747804" x2="811.660758362441" y2="706.563454831416" gradientUnits="userSpaceOnUse"><stop offset="0" stop-color="#0c77e7"/><stop offset=".093044583512" stop-color="#1278e3"/><stop offset=".223627891775" stop-color="#247ed9"/><stop offset=".376443165494" stop-color="#4287c9"/><stop offset=".546058574576" stop-color="#6c94b3"/><stop offset=".729548784033" stop-color="#a2a497"/><stop offset=".921794433588" stop-color="#e2b875"/><stop offset="1" stop-color="#ffc166"/></linearGradient><linearGradient id="linear-gradient-5" x1="587.846444111108" y1="296.241382322896" x2="587.846444111108" y2="548.258646446729" xlink:href="#linear-gradient-4"/></defs><g opacity=".4"><path d="M731.349913775614,535.859985351552l-.000022668719-124.140014648435-.000075182565-411.719970703118C322.439905242943,7.820081993648-.000019878494,97.000133548917,0,205.860118900478L.000097849455,741.710094486406c-.000019878494-108.859985351561,322.439905244772-198.030027141204,731.349815926159-205.850109134853Z" fill="#e8862d"/></g><path d="M633.635733948378,142.058754565717v91.659973144531c-48.780029296875,1.380004882812-96.260009765625,3.900024414062-142.070068359375,7.450012207031v-91.630004882812c45.130126953125-3.97998046875,92.740234375-6.539978027344,142.070068359375-7.47998046875Z" fill="#fff"/><path d="M633.635733948378,262.294224729063v91.659973144531c-48.780029296875,1.380004882812-96.260009765625,3.900024414062-142.070068359375,7.450012207031v-91.630004882812c45.130126953125-3.97998046875,92.740234375-6.539978027344,142.070068359375-7.47998046875Z" fill="#fff"/><rect x="233.855704655197" y="332.695010119917" width="47.530029295992" height="188.291209880843" rx="20.361647775695" ry="20.361647775695" fill="#e8862d"/><rect x="318.144927597866" y="169.058646549755" width="47.530029295596" height="335.130868452706" rx="23.764990919693" ry="23.764990919693" fill="#0d9de8"/><rect x="402.434150596563" y="233.094090079176" width="47.530029177113" height="256.495357537952" rx="23.764990814535" ry="23.764990814535" fill="#ff7be3"/><g opacity=".4"><rect x="899.435952545447" y="97.757280368958" width="136.01967999336" height="78.891827947444" fill="#f8b76d"/></g><path d="M496.274061292324,353.190520740179c-15.096322555253,13.185905396686-30.192407178301,26.36211505601-45.288491801349,39.548020452696-17.015959586772-21.216355254243-34.031919173543-42.442525211952-51.047878760314-63.668635686608-2.192783203083-2.719089240976-3.45977219575-6.081368715647-3.557086467675-9.580042826946-.185349187847-6.597860050076,.516312885275-15.671107279954,4.209972438732-25.621432101237,1.461855468721-3.927546911164,3.177108735977-7.406770064688,4.931382884884-10.418159019748,.536061258305-.925853693467,1.159681568123-1.783480327094,1.851588420833-2.56312468047,3.635128230979-4.064001030844,9.199886646094-6.042347833994,14.725862111763-5.12624936094,6.861013069021,1.140230610349,13.731781358456,2.290216441111,20.592556495272,3.43044705146-17.074252977045-24.500652448663-29.695128869442-42.764090587274-35.717906779559-51.028487285591-.984325532895-1.344911789868-3.255150499283-4.43428302518-3.829994707035-8.927037889786-.009755220412-.077982280253-.019510440825-.146209340093-.029265661238-.214436399933-.867500820144-7.523654260491,8.702846269441-11.529123968857,13.614718713499-5.749929153809,16.46038788764,19.36470735036,32.911258487071,38.739169921133,49.371646374711,58.113632491906,2.231804084735,2.631292257259,3.956812572404,5.662251136195,5.087228479288,8.927037889787,8.361889419395,24.28627553178,16.723778838791,48.582306283974,25.085668258187,72.878396519219Z" fill="#fabda1"/><path d="M693.728551265487,1275.284050359761c-13.005066252663,10.527859765774-24.731185591748,16.803790507955-33.08155272052,20.599839208637-17.929432931694,8.150707037325-28.248257973047,7.204283812713-46.130763517102,19.239930346201-16.563852344786,11.14812901607-20.440600014547,17.111518493704-21.743728292698,21.022588122882-3.854890425224,11.56904873127,1.348952618771,22.202399495298,2.578025015996,24.54950810041,6.641191642828,12.682287733189,20.825572602005,16.496476462256,29.860922266432,18.926746550751,31.891310659461,8.578006551059,69.731929299556-.430777719943,91.43126488776-7.251820062864,7.183924142535-2.258218947092,14.822869556113-2.477184321211,22.153183616798-.752419215336,5.350196919577,1.258859153926,11.96273628253,2.044475235447,19.413622631482,1.263265766251,15.427815798228-1.617593381732,26.782909028921-9.148907792631,33.708816873535-15.293837000187,5.023254494417-4.456822694186,7.970705851434-10.751956892389,8.267002713972-17.460798999067,.309580101861-7.009605180969-.087710344327-15.615224516381-2.263281892228-25.151316896779-4.108434987136-18.009033870016-12.577126016187-30.650439378083-17.821088194264-37.344500166377-28.790888362013-.782418614715-57.58153502715-1.564767139807-86.372423389163-2.347185754521Z" fill="#1f2550"/><path d="M894.459233913802,1287.135286855765c-4.209637846959,9.499522863525-8.792941629824,22.34975416087-11.40727462639,38.001309183077-1.830772910862,10.961030051008-2.299246760922,20.921326060718-2.103380064573,29.459348495817,.163490152532,7.126696964102,3.889224245222,13.681709088934,9.906360134148,17.504092421668,9.241896582476,5.870911362452,24.159002106559,12.905851049609,43.527930523191,13.463864365918,22.355273390157,.644020924243,39.513586316207-7.660745960866,49.585704182993-14.269563268519,6.033413996021-3.958822897877,9.638731133682-10.698410098788,9.612953517639-17.914620925716-.046949906628-13.143202380244-1.505230669854-29.254620487911-6.292626427112-47.063165998794-4.101813349513-15.257853227358-9.646372325553-28.037836263831-14.926808186214-38.109930478731-25.967705013312,6.30957257933-51.935154040371,12.619093625948-77.902859053682,18.92866620528Z" fill="#1f2550"/><path d="M653.695792542128,464.258644782133c-1.52734375,73.527267456055-3.054443359375,147.054550170898-4.581787109375,220.581817626953l27.49072265625,49.745452880859c10.9091796875-13.527282714844,21.818115234375-27.054534912109,32.727294921875-40.581817626953-13.30908203125-80.072723388672-26.6181640625-160.145446777344-39.92724609375-240.21817779541" fill="#172b5e"/><path d="M983.226418650398,1263.805650367031c-2.410177715234,2.64207128984-10.974689572779,11.729225218711-24.396836528253,19.054200482911-10.449422285414,5.69461869706-23.841228551986,10.318836806615-39.560344092144,10.002931615918-15.458911085685-.316280850535-27.632015724925-5.293273955556-35.033051887176-9.161755002693-18.080289411712-147.396034410762-36.170825609144-294.792450889315-54.251358991945-442.188494396929l-44.469873233031,173.883752585496c1.040130849788,89.120662822321,2.080017728487,178.241316547788,3.130526638059,267.352288533646-.510086878827,.26120448533-1.060555712904,.530858908765-1.661784562015,.818654106766-.998676244633,.483143654017-2.037363747792,.964795424277-3.115687264324,1.434891503379-.661374736748,.29556928385-1.363133702962,.599649498574-2.094901113069,.90261080048-.82365532227,.349557643838-1.656567517293,.678736687474-2.509614341428,1.017181700716-4.965733419826,1.936312998509-9.621136252699,3.333827187635-13.832502777112,4.367629030939-10.644501955074,2.605187434225-23.861656720892,4.163777020327-38.760928099744,2.25732017227-20.506112357132-2.635897774691-35.615119441003-10.724506486142-43.942545986298-16.048499141776-6.071695653388-92.390369089884-12.143762003501-184.770796357911-18.215830627828-277.151162633165-.116090065431-1.715538877139-.082381882483-3.425492287042,.110752118324-5.119423451368l28.860060641316-261.936565153633,6.505505585261-59.068638313737c83.509504163861-2.990429078287,167.029140142204-5.990497097117,250.539019551216-8.990989982807,10.903212402495,199.524857198974,21.806183108115,399.049644308324,32.699394970191,598.574067543586Z" fill="url(#linear-gradient)"/><path d="M829.985734808844,841.514399236811c5.642195207073-22.49630770287,11.284145305951-44.992594006206,16.926340513023-67.488901709076,20.576087588627-1.416127558837,41.152419148342-2.832246020822,61.728506736968-4.248373579659-17.783912529636,8.506901481645-35.567581088184,17.013812060144-53.35149361782,25.52071354179-8.434370266063,15.405533780061-16.868983366108,30.811027966884-25.303353632172,46.216561746945Z" fill="#1f2550"/><path d="M983.226418650398,1263.805650367031c-2.410177715234,2.64207128984-10.974689572779,11.729225218711-24.396836528253,19.054200482911-10.640406777817-182.152964843685-21.280196613605-364.31592340515-31.910729576641-546.458503366413-36.381051730783-10.042550126761-87.65362351864-19.519580986021-148.746107310687-16.033499519692-32.281232727381,1.848449857497-60.770778026082,6.9404696924-84.690246691088,12.923363156152l6.505505585261-59.068638313737c83.509504163861-2.990429078287,167.029140142204-5.990497097117,250.539019551216-8.990989982807,10.903212402495,199.524857198974,21.806183108115,399.049644308324,32.699394970191,598.574067543586Z" fill="#1f2550"/><path d="M829.985734808844,841.514399236811c-14.627409843971,58.002055653908-29.451899172067,115.962681600145-44.473464572969,173.88178634955,1.043614671418,89.118960395087,2.087473313926,178.237929887026,3.131087985346,267.356890282112-2.834443427279,1.42064171381-5.963090340731,2.836177026875-9.380562746221,4.167894246111-4.960478122608,1.932966451619-9.624914078106,3.336862359003-13.833469564614,4.36734867244-2.075779130919-90.981039299366-4.151314290752-181.962069501881-6.22709342167-272.943108801248,29.236695222377-81.439890954935,58.473147610774-162.879821503107,87.70984283315-244.319712458041-5.613789823519,22.507658413533-11.255983893486,45.003935620017-16.926340513023,67.488901709076Z" fill="#1f2550"/><polygon points="813.515860901503 268.163216315336 744.195792542128 285.68317481143 739.715812073378 267.943184577055 731.645743714003 236.043221198149 730.185782776503 230.263191901274 759.405753479628 222.883187018461 766.195792542128 221.163216315336 799.505606995253 212.743172370024 813.515860901503 268.163216315336" fill="#fabda1"/><path d="M759.145743714003,255.313179694243c-6.260009765625,7.760009765625-14.219970703125,11.150024414062-19.429931640625,12.630004882812l-8.070068359375-31.899963378906c9.25-4.390014648438,18.510009765625-8.780029296875,27.760009765625-13.160034179688,2.150146484375-1.029968261719,4.2900390625-2.039978027344,6.43994140625-3.059997558594,.06005859375,.220031738281,.190185546875,.669982910156,.35009765625,1.340026855469,1.1298828125,4.849975585938,3.719970703125,20.799987792969-7.050048828125,34.149963378906Z" fill="url(#linear-gradient-2)"/><path d="M681.185782776503,141.133187018461c-3.5146484375-.637481689453-9.103515625-2.218292236328-14.253662109375-6.547271728516-13.103271484375-11.013946533203-10.988525390625-29.411712646484-10.763671875-31.127258300781,3.3427734375,.421691894531,7.732421875,.641418457031,12.800048828125,0,6.45947265625-.817565917969,11.6103515625-2.729248046875,15.127197265625-4.363647460938-1.531982421875-.893981933594-3.778564453125-2.512115478516-5.52734375-5.236358642578-4.299072265625-6.696990966797-1.851806640625-14.254913330078-1.454345703125-15.418182373047,2.131591796875,2.615081787109,5.7109375,6.224334716797,11.054443359375,8.436370849609,3.209716796875,1.328765869141,9.6103515625,3.210693359375,27.345458984375-1.163635253906,12.83203125-3.165008544922,12.16845703125-4.815002441406,23.272705078125-7.563659667969,8.350341796875-2.066986083984,18.4404296875-4.45849609375,30.83642578125-2.327270507812,12.032470703125,2.068695068359,18.11669921875,7.00244140625,20.07275390625,8.727294921875,2.255859375,1.989227294922,5.766357421875,5.171234130859,6.981689453125,10.472717285156,.72119140625,3.146179199219,.366943359375,5.873687744141,0,7.563629150391,3.494384765625-.855499267578,9.8154296875-1.819732666016,16.291015625,.872741699219,9.912841796875,4.121704101562,13.675048828125,14.104644775391,16.581787109375,21.818176269531,10.4453125,27.717788696289-1.524658203125,53.302398681641-2.9091796875,56.145446777344-2.95068359375,6.059524536133-6.26416015625,10.638427734375-8.727294921875,13.672729492188,.47216796875,2.883544921875,.873779296875,7.718475341797-.581787109375,13.381820678711-2.02587890625,7.881790161133-6.5087890625,12.929977416992-8.727294921875,15.12727355957-11.24853515625,3.199996948242-22.496826171875,6.399993896484-33.745361328125,9.599990844727-1.427001953125-1.434585571289-2.857666015625-2.889053344727-4.291015625-4.363632202148-.707763671875-.728179931641-1.410888671875-1.455474853516-2.10888671875-2.18180847168-29.09130859375-28.508483886719-58.182373046875-57.016983032227-87.273681640625-85.525466918945Z" fill="#552360"/><path d="M768.455802307753,226.663216315336c-13.60009765625,17.489990234375-32.7001953125,26.859985351562-48.8701171875,23.559997558594-11.77978515625-2.410034179688-19.639892578125-10.0400390625-19.639892578125-10.0400390625-4.630126953125-4.5-7.170166015625-9.429992675781-9.60009765625-15.7099609375-.550048828125-1.429992675781-1.7099609375-4.059997558594-3.030029296875-8.52001953125-2.389892578125,.380004882812-4.7900390625,.760009765625-7.179931640625,1.130004882812-2.380126953125,.369995117188-4.47998046875-1.530029296875-4.369873046875-3.929992675781,.2099609375-4.670043945312,.77001953125-9.980041503906,1.929931640625-15.730041503906,.329833984375-1.619995117188,.679931640625-3.179992675781,1.070068359375-4.699951171875,.919921875-3.650024414062,1.97998046875-7,3.08984375-10.050048828125-.27001953125-3.529968261719-.5-7.319946289062-.669921875-11.429992675781-.300048828125-7.339965820312-.5-17.659973144531,0-30.109985351562,3.3798828125,1.239990234375,10.75,3.419982910156,19.85986328125,1.739990234375,6.43017578125-1.179992675781,11.18017578125-3.820007324219,13.9599609375-5.669982910156,2.860107421875,4.919982910156,7.1201171875,11.150024414062,13.31005859375,17.460021972656,6.110107421875,6.22998046875,12.18994140625,10.579956054688,17.02001953125,13.519958496094,5.090087890625,11.929992675781,10.18017578125,23.860046386719,15.27001953125,35.780029296875,.81005859375,3.7099609375,1.93017578125,7.820007324219,3.489990234375,12.219970703125,1.3701171875,3.890014648438,2.8701171875,7.390014648438,4.360107421875,10.480041503906Z" fill="#fabda1"/><path d="M835.4157662455,165.358161656451l-143.409845626144,7.601623579415-.923903643108-17.43007627875,143.409845626144-7.601623579415c1.658397949077-.087905519308,3.074056618739,1.185230143587,3.161962138047,2.843628092663l.605569597725,11.424486048039c.087905519309,1.658397949077-1.185230143587,3.074056618739-2.843628092663,3.161962138047Z" fill="#172b5e"/><path d="M741.841300354628,170.460661280641c2.345703125-1.988937399919,8.235595703125-6.422586521797,16.7998046875-7.170159834754,3.685302734375-.321682492106,11.28173828125-.98479221229,17.236572265625,4.257294154704,6.265869140625,5.515801687025,7.971923828125,15.155761594767,5.672607421875,22.18269374159-3.49072265625,10.667375677051-17.0625,17.911076818093-32.07275390625,14.340335339934-2.54541015625-11.203382577016-5.0908203125-22.406780824457-7.63623046875-33.610163401473Z" fill="#fabda1"/><path d="M698.641105042128,219.442345343657c1.933349609375,.454925537109,4.951171875,.824829101562,8.291015625-.22785949707,9.290283203125-2.928146362305,12.03369140625-14.014053344727,12.21826171875-14.81037902832-1.60009765625,2.745819091797-5.015625,7.734817504883-11.12744140625,11.392608642578-3.56787109375,2.135345458984-6.926025390625,3.141647338867-9.3818359375,3.645629882812Z" fill="#b96381"/><path d="M687.315665589003,215.95319434268c-2.389892578125,.380004882812-4.7900390625,.760009765625-7.179931640625,1.130004882812-2.380126953125,.369995117188-4.47998046875-1.530029296875-4.369873046875-3.929992675781,.2099609375-4.670043945312,.77001953125-9.980041503906,1.929931640625-15.730041503906,.329833984375-1.619995117188,.679931640625-3.179992675781,1.070068359375-4.699951171875,.35986328125,.269958496094,.679931640625,.509948730469,1.259765625,.949951171875-.48974609375,2.910034179688-.889892578125,6.130004882812-1.08984375,9.640014648438-.18994140625,3.220031738281-.18994140625,6.230041503906-.070068359375,8.960021972656,.030029296875,.789978027344,.5400390625,1.47998046875,1.2900390625,1.739990234375,.849853515625,.299987792969,1.75,.590026855469,2.699951171875,.859985351562,1.580078125,.460021972656,3.080078125,.809997558594,4.4599609375,1.080017089844Z" fill="#b96381"/><path d="M695.447425784807,192.87833408201l-28.824463845167,1.527877832046-2.171173561303-40.960679255063,28.824463845166-1.527877832046c2.531221720787-.134170667526,4.691949172156,1.809023151075,4.826119839682,4.340244871862l1.685298593483,31.794314543519c.134170667526,2.531221720787-1.809023151075,4.691949172156-4.340244871862,4.826119839682Z" fill="#172b5e"/><path d="M682.205802307753,190.423165045805c.08984375,1.740051269531-1.25,3.220031738281-2.989990234375,3.320007324219l-12.590087890625,.660034179688-.219970703125-4.210021972656-1.739990234375-32.839965820312-.2099609375-3.910034179688,12.58984375-.669982910156c1.740234375-.090026855469,3.22998046875,1.25,3.320068359375,2.989990234375l1.840087890625,34.659973144531Z" fill="#494d7f"/><path d="M677.515860901503,187.073189459868c.06982421875,1.390014648438-1,2.580017089844-2.400146484375,2.659973144531l-8.7099609375,.460021972656-1.739990234375-32.839965820312,8.7099609375-.470031738281c1.39990234375-.070007324219,2.590087890625,1,2.669921875,2.400024414062l1.47021484375,27.789978027344Z" fill="url(#linear-gradient-3)"/><path d="M751.877677307753,190.095009528227c-1.001708984375-3.771347045898-.0498046875-7.63737487793,1.745361328125-10.254547119141,3.090576171875-4.505340576172,9.48681640625-6.484680175781,15.708984375-4.581817626953-1.384765625-.014984130859-6.3427734375,.100372314453-10.47265625,3.781814575195-4.22607421875,3.76708984375-5.95068359375,9.811309814453-4.581787109375,15.709091186523-.747314453125-.913772583008-1.82177734375-2.47770690918-2.39990234375-4.654541015625Z" fill="#ed79a5"/><path d="M815.992033627273,109.598286433113c9.354903309789,7.278210450967,17.082376084007,16.910887046367,21.194711264011,28.101425951517,3.980040290891,10.830536366743,4.2916569116,22.732073621218,.408541070106,33.641320393527-2.174034872945,6.10774540052-5.695274568408,11.684214062868-10.375608530393,16.176475454815-1.395576741736,1.339497473326,.727579062846,3.459056111256,2.12132034356,2.12132034356,8.799667156604-8.446065035248,13.526905948523-20.42940722351,14.001510079976-32.523383062069,.483941182057-12.331904792241-3.714050220632-24.467207315269-10.763858296418-34.498722141325-4.035756335151-5.742673995545-8.927812544561-10.831538842523-14.465295587282-15.139757283585-1.5059430326-1.171639081183-3.644001953146,.936658478291-2.12132034356,2.12132034356h0Z" fill="#552360"/><path d="M709.114005432753,282.949555121489c6.416748046875-5.984146118164,13.931884765625-11.96688079834,22.69091796875-17.454551696777,36.85011170018-23.087320661172,75.856333253999-24.969384583971,99.933312422269-23.468202447898,5.642515996789,.351806767688,10.698203043755,3.60185320301,13.405390994954,8.565006250489,5.565900942142,10.204100609538,11.131709660876,20.408200235749,16.697673535902,30.612295013327-50.9091796875,.581817626953-101.818115234375,1.163635253906-152.727294921875,1.745452880859Z" fill="#0e99ea"/><path d="M967.445792542128,668.693184577055c-23.420166015625,10.909973144531-52.070068359375,21.580017089844-85.530029296875,28.799987792969-39.43994140625,8.52001953125-76.22998046875,10.22998046875-108.679931640625,8.419982910156-39.170166015625-2.199951171875-72.010009765625-9.539978027344-95.5400390625-16.269958496094-3.590087890625-49.77001953125-6.889892578125-99.550048828125-9.900146484375-149.340026855469-.18994140625-3.169982910156-.3798828125-6.330017089844-.56982421875-9.5-2.06005859375-34.580017089844-3.97998046875-69.159973144531-5.760009765625-103.760009765625-2.050048828125-39.869995117188-3.909912109375-79.759948730469-5.590087890625-119.659973144531,7.77001953125-5.900024414062,19.77001953125-13.839965820312,35.780029296875-20.070007324219,14.610107421875-5.679992675781,27.330078125-7.890014648438,42.77001953125-9.599975585938,33.619873046875-3.730041503906,79.919921875-8.859985351562,137.889892578125,6.109985351562,2.5400390625,.659973144531,5,1.320007324219,7.360107421875,1.989990234375,9.159912109375,2.590026855469,17.429931640625,7.330017089844,24.2099609375,13.690002441406,6.010009765625,5.619995117188,10.840087890625,12.510009765625,14.090087890625,20.299987792969,4.469970703125,10.720031738281,8.72998046875,23.220031738281,11.93994140625,37.330017089844,4.22998046875,18.619995117188,4.8798828125,32.400024414062,6.10986328125,62.830017089844,1.51025390625,37.599975585938,2.64013671875,69.109985351562,3.43017578125,92.559997558594,.0400390625,1.139953613281,.159912109375,2.259948730469,.35986328125,3.380004882812l27.630126953125,152.789978027344Z" fill="url(#linear-gradient-4)"/><path d="M727.335685120253,385.45319434268c-19.849853515625,51.619995117188-39.68994140625,103.22998046875-59.5400390625,154.849975585938-.18994140625-3.169982910156-.3798828125-6.330017089844-.56982421875-9.5-2.06005859375-34.580017089844-3.97998046875-69.159973144531-5.760009765625-103.760009765625l65.869873046875-41.589965820312Z" fill="#0065c9" opacity=".5"/><path d="M734.546509541394,352.84938544098c-.438509054175,19.871502947427-9.901548719216,34.05148909742-14.033717326849,39.55783515616-34.002891444509,46.545428158346-68.005544956813,93.100671020156-102.008198469116,139.646158661553-15.018280791949,20.563409800136-45.278498648731,21.75241651255-61.875459622153,2.446181001616l-115.515847690278-134.441986503411c1.101150245646-7.094840943678,5.379647159474-28.740068997787,24.247195167078-47.208188315918,8.664063319994-8.469018394785,17.902970847741-13.838910333846,25.982196807364-17.24990642753,8.780650100541-3.722806248594,16.177724427867-5.126189877889,19.939670524215-5.710967755209,22.970450953998,28.067613102852,45.931384619787,56.135285688756,68.892318285577,84.202898791608,23.282618007214-33.4277498215,39.859830607605-60.199227236549,51.038361472107-79.096159871494,5.895960044748-9.979590482521,11.558270663993-19.920219566441,21.869300708352-27.395157207919,1.773546657529-1.305890908216,3.693659553457-2.524103798818,5.769380111584-3.654638671805,2.69957880015-1.471610689136,30.465077485454-16.031693536928,54.01061057941-.847871413215,22.483403729962,14.501611008367,21.820762538492,43.660738102554,21.68418945271,49.751802555563Z" fill="url(#linear-gradient-5)"/><path d="M653.08232939769,307.600092970437c-4.346545524514,5.915648934728-9.443529224215,13.254132456526-14.76464506121,21.85960497099-7.426339988567,12.006713387736-14.297108278001,24.793071128847-32.316903838493,65.491136895356-5.69133834828,12.835074360125-12.971587962856,29.568429970175-21.26519083936,49.332744459161-31.137473897338-36.224761859677-62.25543735385-72.449523719354-93.392911251188-108.684100282495,8.780650100541-3.722806248594,16.177724427867-5.126189877889,19.939670524215-5.710967755209,22.970450953998,28.067613102852,45.931384619787,56.135285688756,68.892318285577,84.202898791608,23.282618007214-33.4277498215,39.859830607605-60.199227236549,51.038361472107-79.096159871494,5.895960044748-9.979590482521,11.558270663993-19.920219566441,21.869300708352-27.395157207919Z" fill="#0065c9" opacity=".7"/><path d="M939.815665589003,515.903206549711c-.199951171875-1.120056152344-.31982421875-2.240051269531-.35986328125-3.380004882812-.7900390625-23.450012207031-1.919921875-54.960021972656-3.43017578125-92.559997558594-1.22998046875-30.429992675781-1.8798828125-44.210021972656-6.10986328125-62.830017089844-3.2099609375-14.109985351562-7.469970703125-26.609985351562-11.93994140625-37.330017089844-3.25-7.789978027344-8.080078125-14.679992675781-14.090087890625-20.299987792969,3.070068359375,15.650024414062,6.18994140625,35.850036621094,7.699951171875,59.369995117188,3.9111328125,60.924682617188-4.96630859375,113.105590820312-16.626953125,154.7900390625-7.849609375,10.280212402344-17.45654296875,20.910217285156-29.190185546875,31.1044921875-32.450927734375,28.193481445312-65.741455078125,39.67333984375-83.781982421875,44.509094238281,15.419677734375,.281127929688,42.724609375-1.225402832031,73.30908203125-14.399963378906,8.644775390625-3.723815917969,16.442626953125-7.907348632812,23.44091796875-12.266174316406-3.51904296875,9.259887695312-6.905029296875,17.596740722656-9.910888671875,24.922485351562-17.320068359375,42.210021972656-26.75,64.450012207031-50.619873046875,87.27001953125-14.469970703125,13.840026855469-30.030029296875,23.840026855469-44.969970703125,31.109985351562,32.449951171875,1.809997558594,69.239990234375,.100036621094,108.679931640625-8.419982910156,33.4599609375-7.219970703125,62.10986328125-17.890014648438,85.530029296875-28.799987792969l-27.630126953125-152.789978027344Z" fill="#0065c9" opacity=".5"/><path d="M442.691966614471,279.191344568386c-11.772647580876,.565267436493-23.535777873542,1.130534872987-35.318418607036,1.69580230948,3.635128230979-4.064001030844,9.199886646094-6.042347833994,14.725862111763-5.12624936094,6.861013069021,1.140230610349,13.731781358456,2.290216441111,20.592556495272,3.43044705146Z" fill="#ed79a5"/><g opacity=".4"><path d="M1138.495743714004,584.346060125155v268.405005645539c-65.884550434035,19.438185722642-146.617970506781,37.581201108645-239.700143975443,46.769918786863-119.453602398194,11.778990206153-223.231595889863,5.236356089528-304.009719305807-5.850413750448v-268.405005645539c80.778123415945,11.086769839975,184.556116907614,17.629403956601,304.009719305807,5.850413750448,93.082173468662-9.177541842419,173.815593541408-27.331733064222,239.700143975443-46.769918786863Z" fill="#ff7be3"/></g><path d="M885.225821839003,701.865992523279v25.809997558594c-78.31005859375,6.900024414062-149.610107421875,5.989990234375-211.800048828125,1.260009765625v-25.809997558594c62.18994140625,4.72998046875,133.489990234375,5.640014648438,211.800048828125-1.260009765625Z" fill="#fff"/><path d="M885.225821839003,754.376002288903v25.809997558594c-78.31005859375,6.900024414062-149.610107421875,5.989990234375-211.800048828125,1.260009765625v-25.809997558594c62.18994140625,4.72998046875,133.489990234375,5.640014648438,211.800048828125-1.260009765625Z" fill="#0d9de8"/><path d="M885.225821839003,806.886012054527v25.809997558594c-78.31005859375,6.900024414062-149.610107421875,5.989990234375-211.800048828125,1.260009765625v-25.809997558594c62.18994140625,4.72998046875,133.489990234375,5.640014648438,211.800048828125-1.260009765625Z" fill="#0d9de8"/><g opacity=".4"><path d="M.000097849455,744.598208392655l-.000097849455-535.849975585927c.000016945841,92.799987792966,234.329865264787,171.299945002917,556.800084852645,197.279927621805l.000097849456,535.849975585928C234.329963114254,915.898214430728,.000114795307,837.398257220779,.000097849455,744.598208392655Z" fill="#f8b76d"/></g><path d="M81.169921875,487.597739894059v23.25C30.5400390625,495.257774073747,0,475.067771632341,0,453.017722804216v-23.25c0,22.050048828125,30.5400390625,42.240051269531,81.169921875,57.830017089844Z" fill="#fff"/><path d="M81.169921875,536.079590816167v23.25C30.5400390625,543.739624995855,0,523.549622554448,0,501.499573726323v-23.25c0,22.050048828125,30.5400390625,42.240051269531,81.169921875,57.830017089844Z" fill="#fff"/><path d="M475.875724182753,474.283150397368v391.630004882812c-92.85009765625-7.489990234375-175.699951171875-20.919982910156-242.02001953125-38.609985351562V435.673165045805c66.320068359375,17.690002441406,149.169921875,31.130004882812,242.02001953125,38.609985351562Z" fill="#fff" opacity=".7"/><path d="M447.995841370253,728.863167487211v24.869995117188c-71.4599609375-5.75-135.22021484375-16.099975585938-186.260009765625-29.7099609375v-24.869995117188c51.039794921875,13.609985351562,114.800048828125,23.949951171875,186.260009765625,29.7099609375Z" fill="#f8b76d"/><path d="M447.995841370253,776.445480437891v24.869995117188c-71.4599609375-5.75-135.22021484375-16.099975585938-186.260009765625-29.7099609375v-24.869995117188c51.039794921875,13.609985351562,114.800048828125,23.949951171875,186.260009765625,29.7099609375Z" fill="#f8b76d"/><path d="M967.445792542127,336.423608819391v204.805535486946c156.285253246771-2.988804596965,279.521708043375-37.073372681858,279.521708043375-78.679628424953v-204.801709757343c0,41.606255743094-123.236454796604,75.686998098386-279.521708043375,78.67580269535Z" fill="#17f1fc" opacity=".4"/><path d="M1215.945792542128,328.763191901274v131.039978027344c-44.286412464488,26.491840154476-121.27001953125,41.850036621094-217.47998046875,43.390014648438v-137.039978027344c103.37538618608,4.701840693491,178-19.350036621094,217.47998046875-37.390014648438Z" fill="#fff" opacity=".7"/><path d="M183.723058002571,526.007781521284c.000000001105-24.605821149153-17.186306660044-44.556430599841-38.383643055252-44.556430600793-21.19983818841-.000000000951-38.386085284846,19.950609448193-38.38608528595,44.556430597347-.000000001105,24.608278267476,17.186247093538,44.556430599841,38.386085281949,44.556430600793,21.197336395209,.000000000951,38.383643058149-19.948152329871,38.383643059253-44.556430597347Zm-14.71959813211-.00000000066c-.000000000681,15.173390657241-10.596225972142,27.472652782923-23.664044926376,27.472652782336-13.07026118093-.000000000587-23.666487151287-12.299262127221-23.666487150605-27.472652784461,.00000000068-15.170948430544,10.596225972141-27.472637891296,23.666487153072-27.47263789071,13.067818954234,.000000000587,23.66404492459,12.301689462291,23.664044923908,27.472637892835Z" fill="#fff"/><path d="M183.723058002571,526.007781521284l-14.71959813211-.00000000066c-.000000000681,15.173390657241-10.596225972142,27.472652782923-23.664044926376,27.472652782336l-.000000000767,17.083777815671c21.197336395209,.000000000951,38.383643058149-19.948152329871,38.383643059253-44.556430597347Z" fill="#0d9de8"/><path d="M183.723058002571,526.007781521284c.000000001105-24.605821149153-17.186306660044-44.556430599841-38.383643055252-44.556430600793-21.19983818841-.000000000951-38.386085284846,19.950609448193-38.38608528595,44.556430597347l14.719598132111,.00000000066c.00000000068-15.170948430544,10.596225972141-27.472637891296,23.666487153072-27.47263789071,13.067818954234,.000000000587,23.66404492459,12.301689462291,23.664044923908,27.472637892835l14.71959813211,.00000000066Z" fill="#0d9de8"/><path d="M81.169921875,665.957925221524v23.25C30.5400390625,673.617959401211,0,653.427956959805,0,631.37790813168v-23.25c0,22.050048828125,30.5400390625,42.240051269531,81.169921875,57.830017089844Z" fill="#fff"/><path d="M81.169921875,714.439776143631v23.25C30.5400390625,722.099810323319,0,701.909807881912,0,679.859759053787v-23.25c0,22.050048828125,30.5400390625,42.240051269531,81.169921875,57.830017089844Z" fill="#fff"/><path d="M106.953329661369,704.367966845301c-.000000001105,24.605821149153,17.186306660044,44.556430599841,38.383643055252,44.556430600793,21.19983818841,.000000000951,38.386085284846-19.950609448193,38.38608528595-44.556430597347,.000000001105-24.608278267476-17.186247093538-44.556430599841-38.386085281949-44.556430600793-21.197336395209-.000000000951-38.383643058149,19.948152329871-38.383643059253,44.556430597347Zm14.71959813211,.00000000066c.000000000681-15.173390657241,10.596225972142-27.472652782923,23.664044926376-27.472652782336,13.07026118093,.000000000587,23.666487151287,12.299262127221,23.666487150605,27.472652784461-.00000000068,15.170948430544-10.596225972141,27.472637891296-23.666487153072,27.47263789071-13.067818954234-.000000000587-23.66404492459-12.301689462291-23.664044923908-27.472637892835Z" fill="#fff"/><path d="M106.953329661369,704.367966845301l14.71959813211,.00000000066c.000000000681-15.173390657241,10.596225972142-27.472652782923,23.664044926376-27.472652782336l.000000000767-17.083777815671c-21.197336395209-.000000000951-38.383643058149,19.948152329871-38.383643059253,44.556430597347Z" fill="#0d9de8"/><path d="M106.953329661369,704.367966845301c-.000000001105,24.605821149153,17.186306660044,44.556430599841,38.383643055252,44.556430600793,21.19983818841,.000000000951,38.386085284846-19.950609448193,38.38608528595-44.556430597347l-14.719598132111-.00000000066c-.00000000068,15.170948430544-10.596225972141,27.472637891296-23.666487153072,27.47263789071-13.067818954234-.000000000587-23.66404492459-12.301689462291-23.664044923908-27.472637892835l-14.71959813211-.00000000066Z" fill="#0d9de8"/><ellipse cx="354.865714417128" cy="594.18317481143" rx="73.47998046875" ry="85.289978027344" fill="#ff7be3"/><path d="M444.248017677147,594.18317481143h-89.382303260018v-103.748186001798c49.362300127808,0,89.382303260018,46.454971244451,89.382303260018,103.748186001798Z" fill="#0d9de8"/><path d="M1014.979547495215,429.575824688613c.066504154118-.797696659561,.144072273356-1.594483827575,.249142576869-2.388142268756-.141560800385,1.069292848781,.0485337018-.250589744643,.070799962488-.387215696446,.064349872823-.394851328907,.13354631215-.788912371202,.207510790916-1.182075918637,.2958605508-1.57266820019,.668286662335-3.130930069407,1.113840171747-4.667887291093,.408523765481-1.409221425314,.878617568137-2.800648368275,1.407664904633-4.169182285194,.144308584958-.373295883738,.292864686841-.744981003741,.446061477498-1.114719955429-.384290647845,.927481709432,.135893306109-.293177652587,.181607905583-.394549025347,.329091946074-.72975597997,.675289788431-1.451805306479,1.038194847872-2.165349467378,.725765511432-1.427000614599,1.518360500402-2.820029949916,2.374717744654-4.17270686325,.356740212194-.563496429011,.72458130695-1.120065937082,1.103223283869-1.669085668223,.227171266138-.329391655074,.458236639601-.656098057549,.693160029181-.980006595435,.096743555376-.133388436238,1.096246448047-1.434469752307,.502704380158-.684898490745,1.905711302907-2.406681013484,4.015984610145-4.66278893752,6.345646882721-6.664912936472,.310915560973-.267202466898,.62555386396-.531791030965,.948936282599-.783861864324-.740955248844,.577561414267,.345470474773-.231183959253,.41180927131-.276835124632,.672838959247-.463015372684,1.370954529449-.891175576856,2.09932482119-1.261494988784-.024995759311,.012708391589,1.16693767045-.49633756144,.56256062897-.272252237174-.610424638222,.226327596198,.624420069961-.190700183711,.589614230752-.180245600444,.382572146183-.114912682716,.767804878506-.198644606274,1.157702653083-.283138932754-1.013323571357,.219596258945,.540170494916-.013177548251,.793370366498-.008704833576l.334610103423,.011809687461c.513799532363,.044429284045,.441061536289,.024305569693-.218213988223-.060371143054,.221011289686-.033881089194,.566114900847,.103473681835,.785429030722,.156374074116,.256444765868,.061856610519,.509881891786,.132942053642,.760478465793,.215633410022l.296804636672,.103345067304c.460352818678,.178703458279,.390755629516,.148955549521-.208791567487-.089243726276,.323129781134-.092708431251,1.352412000449,.780246841993,1.62574943598,.955759054918,.894647793166,.574460697864-.676472189502-.659447676763,.096575113948,.084672997154,.234367624646,.225597830839,.484347821959,.433117527443,.716599470516,.661661033921,.476142961968,.468540838305,.904226007363,.973459423541,1.336485792513,1.481487664083-.732777687141-.86122228321-.002693784792,.006541534664,.118150653787,.177084714242,.199976239577,.282218893467,.39358743973,.569020648401,.581289413008,.859542106014,.765148273326,1.184281591589,1.435984676909,2.427672351568,2.040742426057,3.700749479818,.151822087781,.319601076282,.292851562339,.644018469185,.442877993595,.964368874058,.487022260647,1.039935277229-.236752066849-.60794382461,.030657645817,.056181890433,.236980937991,.588554294927,.473407251384,1.176681377764,.694948315582,1.771318398723,.643011156125,1.72590232743,1.244242679716,3.468360412484,1.847240871803,5.208589384596,4.916670844874,14.189317916491,8.828049158936,28.608612312477,12.396653465346,43.185150665149,1.367874059575,5.587301639242,3.266263563177,11.184765132124,6.941844010237,15.697302586771,4.071966189457,4.999183178994,10.762772756057,7.259659123084,17.0027556389,5.423847810433,7.121627228593-2.095192258728,11.916341087455-7.978763643609,14.615768163858-14.626105505986,2.613240875644-6.435108257226,3.44376836775-13.489329322894,5.252306670578-20.168378897741,.954311106682-3.524332982827,2.036448711004-7.014053133071,3.243041131637-10.460171959016,.553025038594-1.579481160437,1.13219892554-3.149812786647,1.73719615059-4.710125314363,.329997082971-.851075941099,.667557213112-1.699234629547,1.012994356349-2.544162692251,.115150886738-.281655338908,.23170707802-.562696382409,.34785508306-.843936189804,.208646711222-.499207112677,.234532868952-.561533372672,.077658473188-.186978779982,.119332083896-.279895611607,.239506308515-.559429178649,.360522673856-.838600701128,2.622867722168-6.050661253284,5.496678066722-12.198693337991,9.28242820356-17.622288641112,.215087349328-.308141503113,.433775728394-.61377854078,.656638116805-.91634788184,.087340141088-.118577428545,.867541872194-1.090470319014,.206725796554-.279234535559,.391726506245-.480894110945,.783684768847-.960559735202,1.195339478407-1.424715477785,1.048590397987-1.182324029195,2.184393970157-2.280605650969,3.419470408901-3.267125500292-.828940296516,.662117769204,.586967763139-.380619425448,.826278995276-.532420714912,.59718026219-.378806849279,1.22167710905-.689597812041,1.841931928556-1.025627573884,1.012890679144-.548744488528-.878195775759,.272295303877,.212918333977-.099434464255,.333264508548-.113539305727,.660771068249-.238037856338,.998065207695-.340321831426,.682768468569-.207048581232,1.377137490602-.357442697863,2.080620341598-.474009959644-1.150488725324,.190636232612,.034487541476,.021670669319,.245487856993,.01018458491,.357231467277-.019446372752,.715171116799-.0256307891,1.072859811013-.018427345278,.354420140309,.007137618862,.704868101295,.040106577126,1.058329683261,.060356083629,.371578913653,.021287432673,.605309853516-.134383866902-.153634910055-.024673832687,.571572873161-.082624299528,1.490049599557,.317241636414,2.033602832189,.487008345885,.333961040877,.104305270575,.659126415654,.228098716143,.98864706606,.344799837138,.469084288575,.187159303211,.433543613183,.172026208931-.106622026175-.04539928284,.213260923501,.097763244876,.424495023248,.199725539912,.633702299239,.30588688511,.526768093077,.267736480096,1.04063766278,.560659738554,1.5402654107,.876134764986,.30300410772,.191322898477,.591607577165,.403306226814,.892281539014,.597534805169,.995999310753,.643393026055-.671162781608-.599721354428,.239375644561,.17053978413,1.128882205254,.954966937943,2.187326756756,1.96216877807,3.152858286839,3.084606431122,.243381964359,.28293336091,.47966500648,.571520042635,.712385389493,.863252809475-.652751128594-.818273373126,.110329547113,.168001597679,.195230077317,.287488379337,.362374694653,.509996650364,.707989424239,1.03184702282,1.037799116096,1.563464644749,.395140951136,.636924559695,.765860467029,1.289163113419,1.11247456193,1.953724073841,.172494142968,.330721903709,.33894542777,.664598883612,.499177665437,1.001432795818,.087671798133,.184300208156,.69124564583,1.658066088485,.289795666708,.619888996809,1.236005427269,3.196394536084,2.062656862761,6.517219178961,2.709171989422,9.878271115625,1.339637944052,6.964404266215,1.944940598873,14.154056848746,4.401482626509,20.855178241072,2.527080199525,6.893540185613,6.980887776602,13.216267921125,14.30186433647,15.459781980508,3.695952569394,1.132625065036,7.591488960944,.861181988647,11.095481832761-.730970018802,2.875805443719-1.306714818708,5.031086192255-3.635013339401,6.849496945083-6.149242259,1.578993862524-2.18319872276,2.778391927011-4.609850719708,4.13182338658-6.932045490102,.661899301803-1.135675609066,1.359953451733-2.250458305355,2.149466574302-3.302500406506-.702383504233,.935940133842,.387372056741-.407476496775,.595784878278-.627798900859,.538083159568-.568831487615,1.122910254138-1.07476602917,1.713194707863-1.58694887038-.858073045821,.744539836347-.031037234727,.028316967419,.152604140364-.100706052413,.27286860253-.191712412839,.550725255567-.376502168231,.833307145086-.55359275794,.471532317621-.295503495773,.955250029941-.571535453698,1.449719047323-.82682693409,.297500927963-.153598000376,.601566501866-.291300446712,.902335965821-.437924303806,1.015120484143-.494866994949-.909579181779,.300582544459,.16096262983-.061534917075,.63645853915-.21528608044,1.263465090811-.445379966459,1.912302690155-.623492385947,.647569302982-.177764259435,1.303511704103-.325025033836,1.964868234857-.441426190834,.380511661497-.066971437629,1.1079575106-.434951347227,.133092143517-.030754900131,.258537447135-.107194204556,.724272891932-.070828802492,1.003086593167-.088964096504,.557839644885-.036284393224,1.117084256323-.050327237785,1.676042920344-.042930816238,.334935183669,.004432030432,.669830174368,.017341058057,1.004145165368,.038122376179,.259165730383,.016109973033,1.772538438539,.053152030866,.466911694652,.010591110415,1.164265338521,.037952810549,2.468013569598,.481885879712,3.562405673489,.859803222943,.315508629981,.108951976888,.625994173702,.229145033205,.936359400355,.351762110726-1.095737261758-.432896759136-.054630265781-.002896672295,.142376706555,.094847926037,.601823275112,.298593362431,1.180477382456,.635084160094,1.747387013844,.995014780879,1.990666320783,1.263872978944,5.050158400913,.480261903902,6.156854249492-1.614381916836,1.174574018339-2.223116868715,.510273505507-4.807911661861-1.614381916836-6.156854249492-5.327514801069-3.382436288643-11.810141415716-4.211030430771-17.937127130968-3.033979982911-6.165251773882,1.184401710542-11.521028801684,4.80063596807-15.133553023879,9.882372089197-1.603927756847,2.256244419778-2.826120138392,4.750842356832-4.23097334372,7.12914815049-.346027680611,.585797601088-.701733580394,1.166268565918-1.078899620641,1.732631091178-.171114768445,.256950472802-1.23132919093,1.628499016826-.467241187791,.706114044298-.416386094477,.502649269112-.837110198629,.99642685246-1.304616201134,1.453130535795-.231291137342,.225946862245-.476074265003,.433469451231-.715509114681,.65018133394-.380492570151,.3098937192-.331778734652,.27243659149,.146141506495-.11237138313-.17630637741,.124847709273-.356168775768,.244343250258-.539587195076,.358486622953-.279719511713,.173866719329-.569879323231,.32139239159-.858025252946,.479753391606-.676989172862,.372063844596-.0400035349,.016895918106,.111248562796-.033344252128-.363391827869,.120704886554-.719694385517,.244328887619-1.092472719759,.335059204964-.218716274651,.053233235907-1.382128276737,.144692924128-.297695589456,.084277918213-.76345230422,.04253281556-1.515252430681,.055507555583-2.276732983762-.035605236345,1.109738900292,.132782654932-.142877326773-.069320242146-.313622878935-.110840835324-.502684203385-.122238887288-.990284878467-.282613626166-1.478149249587-.45313528734-.81145242828-.283624351817-.157412843978-.075302855252,.000287860791,.003269523905-.349019761193-.173894676309-.696741760599-.344315767657-1.035365540631-.538375233199-.338404483533-.19393379049-.65565752232-.415758088465-.986870712791-.620333246624-1.022357931603-.631463485063,.555122971501,.581728282371-.313762369145-.240508305104-.593225385668-.561376275901-1.185660584089-1.104469509283-1.723051688423-1.722512492855-.066609645607-.076606448773-.858733497071-1.129192242879-.305924089142-.358075302865-.276592464757-.385820378589-.544368704459-.776292549393-.797870164171-1.177726673245-.399985267852-.633399648806-.767995858496-1.286071646683-1.107874682434-1.953624167642-.186359124005-.366026048908-.35509416593-.739397168017-.533382958764-1.109198381484-.579247926994-1.201458503893,.278265439523,.811588421909-.186616973935-.439557044039-.60100531266-1.61749519917-1.135426385506-3.246873674298-1.572350807433-4.91694535611-.930777116802-3.557742316142-1.516084266399-7.192554865642-2.105831719079-10.818749864857-1.145726004216-7.044754306403-2.378836514728-14.237194407052-5.95805748493-20.523887672671-3.280975454551-5.762842380092-8.275966367663-10.655869746181-14.57817646376-12.929330526618-6.139565972422-2.214788500284-13.126576492081-.827621599704-18.298573223269,3.019054035942-5.189044852618,3.859355186069-8.893703551046,9.223130065001-11.931653456196,14.864947629346-3.572352431605,6.634263672519-6.648679731341,13.54948890758-9.245125277967,20.622084579624-2.510885326946,6.83953365378-4.489407221537,13.847232432706-6.025895257416,20.967187886795-.739404493297,3.426337811877-1.44601102285,6.876126699633-2.619802134279,10.186539839582-.121039313421,.341364089145-.247283412456,.680690978235-.378631423092,1.018208697496-.069034941079,.177395270392-.447234744851,1.031595441486-.129406831259,.327134254463-.357350952935,.792063458628-.741893756483,1.570665899552-1.171523649241,2.326269583568-.393231467809,.691588622571-.824107998193,1.354395517972-1.288477713101,1.99997752706,.598165585111-.831589416376-.151051707291,.166838848581-.246396875746,.276698580848-.333677402385,.384473704159-.682730757272,.755644425863-1.046257618245,1.11203270491-.453646788493,.444738520323-.928833334684,.869916786989-1.42789168044,1.263209582398,.806877959241-.635876127196-.198744800113,.111546102375-.315429376048,.188836523174-.313880901064,.207910829088-.634560635676,.405629449181-.96198212476,.59151382251-.325867719061,.185002263949-.662095860044,.34471360687-.993593176697,.518396735421-1.047043659762,.548583078724,.835823687067-.215478896404-.291709377839,.113871691669-.707960262637,.206794049851-1.399676991113,.398943816444-2.119410473085,.558507403267,1.096530399189-.24309876911-.001265894718-.014542350839-.248342365619-.003474464232-.365414361751,.016368878453-.728682267827-.013506229134-1.092983674155-.004658467339-1.145249388447,.027814588711,.859600279379,.252825712861-.265698259026-.019891681719-.330844451937-.08018053331-.66164964039-.14505170433-.989065801828-.240249733589-.167299899069-.048643355344-.794676334117-.159656496845-.8976240466-.301853862225l.501295084356,.21517189121c-.187213562142-.083976406043-.371996783124-.17299718815-.554349662949-.26706234632-.367413198473-.189455152404-1.403645588718-.597537461092-1.551364854216-.962591528034l.429452492528,.332364071838c-.157773860898-.127971310018-.312465900008-.259565443724-.464076117331-.394782401117-.228686968275-.203732393773-.450082439183-.415593845851-.664752288494-.63402690179-.216572878357-.220369445475-.42577329606-.447938380998-.628376478448-.681198203185-.219412961486-.252613151379-.904029252464-.740906425383-.080060139118-.064961776511-.867887244084-.711972971997-1.523411244422-2.336976940494-2.011744738693-3.312242786637-.148952690519-.297478001119-.292248747735-.597776340732-.43087348392-.90019906897-.088217724335-.192455153434-.513356596715-1.248237652087-.08067068886-.158915734097-.251000202697-.631913397811-.49691430573-1.264597832237-.722158183455-1.906292848037-.451839623969-1.287241356222-.844214826599-2.594863061335-1.200350254849-3.911584524829-1.893019852256-6.998966327332-3.4181569421-14.090124448208-5.372485416035-21.077195188454-2.089594953988-7.470672385267-4.388863531257-14.882701900944-6.894347389571-22.224358371958-2.03227579656-5.955045650439-3.927037554295-12.293291093521-7.786946134915-17.367305377031-2.118677551995-2.785091909933-4.604361443003-5.018812844496-7.870741772327-6.350696728585-3.155947614445-1.28685435954-6.838324353977-1.277647728065-10.032581151289-.113695319481-6.725355872113,2.450646476676-11.982342363081,8.350687003878-16.083446660929,14.005222719582-3.89010203141,5.363609232247-6.783032027181,11.567977521173-8.472331660791,17.972203728118-.850722084677,3.225133399143-1.365392603717,6.539101360814-1.642355868191,9.861189639728-.196083090395,2.351955727897,2.209818011869,4.602577531963,4.5,4.5,2.605696178895-.116709451241,4.289953987186-1.980563357289,4.5-4.5h0Z" fill="#ff7be3"/><path d="M945.409858966193,745.057777806039c-.000000002124,47.308684877366,33.04346402655,85.666969686994,73.798783740599,85.666969688824,40.76012981754,.00000000183,73.803479323385-38.358284804832,73.803479325508-85.666969682197,.000000002125-47.31340908615-33.043349500275-85.666969686994-73.803479317816-85.666969688824-40.75531971405-.00000000183-73.798783746167,38.353560596047-73.798783748291,85.666969682197Zm28.300816515422,.000000001271c.00000000131-29.173306299078,20.372964282181-52.820634002589,45.497967231396-52.820634001461,25.129698526431,.000000001128,45.502662805176,23.647327706469,45.502662803867,52.820634005547-.000000001309,29.168610721861-20.372964282179,52.820605371021-45.502662808611,52.820605369892-25.125002949215-.000000001128-45.497967227961-23.651994652117-45.497967226652-52.820605373978Z" fill="#fff"/><path d="M945.409858966193,745.057777806039l28.300816515422,.000000001271c.00000000131-29.173306299078,20.372964282181-52.820634002589,45.497967231396-52.820634001461l.000000001473-32.846335682007c-40.75531971405-.00000000183-73.798783746167,38.353560596047-73.798783748291,85.666969682197Z" fill="#0d9de8"/><path d="M945.409858966193,745.057777806039c-.000000002124,47.308684877366,33.04346402655,85.666969686994,73.798783740599,85.666969688824,40.76012981754,.00000000183,73.803479323385-38.358284804832,73.803479325508-85.666969682197l-28.300816515422-.000000001271c-.000000001309,29.168610721861-20.372964282179,52.820605371021-45.502662808611,52.820605369892-25.125002949215-.000000001128-45.497967227961-23.651994652117-45.497967226652-52.820605373978l-28.300816515422-.000000001271Z" fill="#f8b76d"/></svg>