<?xml version="1.0" encoding="UTF-8"?><svg id="Technology_Companies_Illustration_4" xmlns="http://www.w3.org/2000/svg" width="1375.435408913594" height="1334.004016386413" xmlns:xlink="http://www.w3.org/1999/xlink" viewBox="0 0 1375.435408913594 1334.004016386413"><defs><linearGradient id="linear-gradient" x1="680.99543698976" y1="1036.813495665833" x2="680.99543698976" y2="955.603534728333" gradientUnits="userSpaceOnUse"><stop offset="0" stop-color="#fabda1"/><stop offset=".117548629292" stop-color="#f6a8a2"/><stop offset=".280244181981" stop-color="#f293a3"/><stop offset=".46184782123" stop-color="#ef84a4"/><stop offset=".67540218435" stop-color="#ed7ba4"/><stop offset="1" stop-color="#ed79a5"/></linearGradient><linearGradient id="linear-gradient-2" x1="836.290450417495" y1="1038.79198218279" x2="836.290450417495" y2="970.643512755677" xlink:href="#linear-gradient"/><linearGradient id="linear-gradient-3" x1="605.355049666865" y1="267.273517638489" x2="605.355049666865" y2="601.116379121566" gradientUnits="userSpaceOnUse"><stop offset="0" stop-color="#ed209f"/><stop offset=".130324949932" stop-color="#ed259d"/><stop offset=".293426135123" stop-color="#ef3497"/><stop offset=".474011328674" stop-color="#f24e8e"/><stop offset=".667194580054" stop-color="#f67181"/><stop offset=".868272438587" stop-color="#fb9f71"/><stop offset="1" stop-color="#ffc166"/></linearGradient><linearGradient id="linear-gradient-4" x1="763.495467507339" y1="1002.032803628578" x2="763.495467507339" y2="485.323505431458" gradientUnits="userSpaceOnUse"><stop offset="0" stop-color="#1e2750"/><stop offset=".292278924069" stop-color="#242e5c"/><stop offset=".822670563438" stop-color="#37437c"/><stop offset="1" stop-color="#3e4c89"/></linearGradient><linearGradient id="linear-gradient-5" x1="761.073370789803" y1="254.765117081769" x2="761.073370789803" y2="551.031746983997" gradientUnits="userSpaceOnUse"><stop offset="0" stop-color="#ed209f"/><stop offset=".159995098159" stop-color="#ef3398"/><stop offset=".486549753709" stop-color="#f46686"/><stop offset=".94714384006" stop-color="#fdb769"/><stop offset="1" stop-color="#ffc166"/></linearGradient><linearGradient id="linear-gradient-6" x1="763.49543698976" y1="254.765117081765" x2="763.49543698976" y2="207.433551818177" gradientUnits="userSpaceOnUse"><stop offset="0" stop-color="#fabda1"/><stop offset=".117548629292" stop-color="#f6a8a2"/><stop offset=".280244181981" stop-color="#f293a3"/><stop offset=".46184782123" stop-color="#ef84a4"/><stop offset=".67540218435" stop-color="#ed7ba4"/><stop offset="1" stop-color="#ed79a5"/></linearGradient><linearGradient id="linear-gradient-7" x1="824.649360671649" y1="115.376538759599" x2="765.579112862225" y2="174.446786569022" gradientUnits="userSpaceOnUse"><stop offset="0" stop-color="#70cae2"/><stop offset=".018708823036" stop-color="#6fc8e1"/><stop offset=".448825477098" stop-color="#68a0cf"/><stop offset=".790798305811" stop-color="#6488c4"/><stop offset="1" stop-color="#637fc0"/></linearGradient><linearGradient id="linear-gradient-8" x1="943.81980419944" y1="263.481126672466" x2="943.81980419944" y2="502.712025554517" xlink:href="#linear-gradient-3"/></defs><g opacity=".4"><path d="M.000000024058,197.280029271877l-.000000024058,535.849975585937c.000000004166-92.799987792968,234.32983399206-171.299987782448,556.800048836978-197.280029271875l.000000024056-535.849975585938C234.329834016118,25.979980454272,.000000028224,104.479980443752,.000000024058,197.280029271877Z" fill="#e8862d"/></g><path d="M45.545455300307,198.023517638489c26.700012207031-19.599975585937,64.419982910156-37.830017089843,111.190002441406-54.190002441405v103.910034179688c-46.77001953125,16.359985351562-84.489990234375,34.589965820312-111.190002441406,54.190002441406v-103.910034179688Z" fill="#fff"/><path d="M310.365462624527,103.233539611146v103.909973144531c-47.179992675782,9.429992675781-90.169982910157,20.220031738281-128.109985351563,32.140014648437v-103.910034179687c37.940002441406-11.919982910156,80.929992675781-22.7099609375,128.109985351563-32.139953613281Z" fill="#fff"/><g opacity=".4"><path d="M1374.525496804214,255.153522521302v306.640014648438c0-57.430053710938-156.86010742187-105.2900390625-364.72998046875-115.910034179688V139.233539611146c207.86987304688,10.619995117188,364.72998046875,58.47998046875,364.72998046875,115.919982910156Z" fill="#dd28bb"/></g><g opacity=".4"><path d="M1267.805526101094,247.693500548646v167.619995117188c-52.42004394532-16.190002441406-121.21008300782-28.649963378906-199.720092773441-35.619995117188V212.073505431458c78.510009765621,6.97003173828,147.300048828121,19.42999267578,199.720092773441,35.619995117188Z" fill="#e8862d"/></g><rect x="590.726542548398" y="23.274679964884" width="121.958256013628" height="74.73417721519" fill="#17f1fc" opacity=".4"/><g><path d="M893.365462624526,1233.803485900208c-4.359985351562,17.900024414062-17.630004882812,28.380004882812-23.239990234375,32.809997558594-12.230041503906,9.670043945312-17.75,7.550048828125-27.340026855469,17.77001953125-8.149963378906,8.679992675781-7.2099609375,13.450012207031-13.669982910156,22.559997558594-13.489990234375,19.030029296875-36.210021972656,24.510009765625-39.650024414062,25.289978027344-22.570007324219,5.130004882812-53.519958496094-.779968261719-62.199951171875-19.139953613281-.380004882812-.809997558594-6.340026855469-13.880004882812-.680053710938-25.2900390625,3.460021972656-6.989990234375,9.490051269531-9.72998046875,16.400024414062-13.669982910156,0,0,7.640014648438-4.359985351562,18.460021972656-12.77001953125,5.899963378906-4.569946289062,12.75-10.359985351562,19.820007324219-17.299987792969,.319946289062-.309997558594,.639953613281-.630004882812,.9599609375-.9599609375,15.510009765625-15.720031738281,23.059997558594-37.630004882812,21.030029296875-59.620056152344-4.950012207031-53.4599609375-9.900024414062-106.93994140625-14.850036621094-160.409973144531-1.239990234375-13.380004882812-2.47998046875-26.75-3.719970703125-40.130004882812,34.399963378906-4.099975585938,68.809997558594-8.200012207031,103.2099609375-12.299987792969-2.159973144531,22.109985351562-4.309997558594,44.22998046875-6.47998046875,66.339965820312-4.440002441406,45.56005859375-8.890014648438,91.110046386719-13.339965820312,136.670043945312,2.889953613281,1.880004882812,8.619995117188,5.9599609375,14.029968261719,12.789978027344,2.859985351562,3.600036621094,5.630004882812,7.960021972656,7.849975585938,13.179992675781,1.820007324219,4.2900390625,7.380004882812,17.890014648438,3.410034179688,34.179992675781Z" fill="#fabda1"/><path d="M894.58366330812,1226.324543029114c-4.962036132812,28.240478515625-9.924133300781,56.480895996094-14.886169433594,84.721374511719h-19.333557128906c-3.352966308594-15.949340820312-6.705871582031-31.898742675781-10.058837890625-47.848083496094,14.759521484375-12.291076660156,29.51904296875-24.582214355469,44.278564453125-36.873291015625Z" fill="#1f2550"/><path d="M893.365462624526,1233.803485900208c-4.359985351562,17.900024414062-17.630004882812,28.380004882812-23.239990234375,32.809997558594-12.230041503906,9.670043945312-17.75,7.550048828125-27.340026855469,17.77001953125-8.149963378906,8.679992675781-7.2099609375,13.450012207031-13.669982910156,22.559997558594-13.489990234375,19.030029296875-36.210021972656,24.510009765625-39.650024414062,25.289978027344-22.570007324219,5.130004882812-53.519958496094-.779968261719-62.199951171875-19.139953613281-.380004882812-.809997558594-6.340026855469-13.880004882812-.680053710938-25.2900390625,3.460021972656-6.989990234375,9.490051269531-9.72998046875,16.400024414062-13.669982910156,0,0,7.640014648438-4.359985351562,18.460021972656-12.77001953125,2.649963378906,5.030029296875,6.940002441406,10.740051269531,13.669982910156,13.450012207031,18.169982910156,7.330017089844,39.52001953125-13.049987792969,43.75-17.080017089844,17.239990234375-16.469970703125,14.02001953125-28.68994140625,28.710021972656-46.489990234375,6.379943847656-7.72998046875,16.809997558594-17.309997558594,34.529968261719-24.799987792969,2.859985351562,3.600036621094,5.630004882812,7.960021972656,7.849975585938,13.179992675781,1.820007324219,4.2900390625,7.380004882812,17.890014648438,3.410034179688,34.179992675781Z" fill="#1f2550"/><path d="M652.44547971437,1175.813495665833v.010009765625c3.039978027344,2.27001953125,7.070007324219,5.739990234375,10.929992675781,10.619995117188,2.859985351562,3.600036621094,5.630004882812,7.960021972656,7.849975585938,13.179992675781,1.820007324219,4.2900390625,7.380004882812,17.890014648438,3.410034179688,34.179992675781-4.360046386719,17.900024414062-17.630004882812,28.380004882812-23.240051269531,32.809997558594-12.22998046875,9.670043945312-17.75,7.550048828125-27.339965820312,17.77001953125-8.150024414062,8.679992675781-7.210021972656,13.450012207031-13.669982910156,22.559997558594-13.490051269531,19.030029296875-36.210021972656,24.510009765625-39.650024414062,25.289978027344-22.570007324219,5.130004882812-53.52001953125-.779968261719-62.200012207031-19.139953613281-.380004882812-.809997558594-6.339965820312-13.880004882812-.679992675781-25.2900390625,3.460021972656-6.989990234375,9.489990234375-9.72998046875,16.400024414062-13.669982910156,0,0,7.639953613281-4.359985351562,18.4599609375-12.77001953125,5.900024414062-4.569946289062,12.75-10.359985351562,19.820007324219-17.299987792969,.320007324219-.309997558594,.640014648438-.630004882812,.960021972656-.9599609375,11.289978027344-11.450012207031,18.359985351562-26.180053710938,20.589965820312-41.830017089844v-.02001953125c1.830017089844-9.200012207031,3.660034179688-18.399963378906,5.490051269531-27.599975585938,12.919982910156-64.989990234375,25.849975585938-130,38.769958496094-194.989990234375,1.530029296875-7.690002441406,3.059997558594-15.369995117188,4.590026855469-23.059997558594,33.570007324219,11.239990234375,67.140014648438,22.47998046875,100.7099609375,33.719970703125-6.889953613281,15.830017089844-13.789978027344,31.659973144531-20.669982910156,47.489990234375-20.179992675781,46.330017089844-40.349975585938,92.660034179688-60.529968261719,139Z" fill="#fabda1"/><path d="M675.84948609293,1226.324543029114c-4.962036132812,28.240478515625-9.924133300781,56.480895996094-14.886169433594,84.721374511719h-19.333557128906c-3.352966308594-15.949340820312-6.705871582031-31.898742675781-10.058837890625-47.848083496094,14.759521484375-12.291076660156,29.51904296875-24.582214355469,44.278564453125-36.873291015625Z" fill="#1f2550"/><path d="M674.631285409336,1233.803485900208c-4.359985351562,17.900024414062-17.630004882812,28.380004882812-23.239990234375,32.809997558594-12.230041503906,9.670043945312-17.75,7.550048828125-27.340026855469,17.77001953125-8.149963378906,8.679992675781-7.2099609375,13.450012207031-13.669982910156,22.559997558594-13.489990234375,19.030029296875-36.210021972656,24.510009765625-39.650024414062,25.289978027344-22.570007324219,5.130004882812-53.519958496094-.779968261719-62.199951171875-19.139953613281-.380004882812-.809997558594-6.340026855469-13.880004882812-.680053710938-25.2900390625,3.460021972656-6.989990234375,9.490051269531-9.72998046875,16.400024414062-13.669982910156,0,0,7.640014648438-4.359985351562,18.460021972656-12.77001953125,2.649963378906,5.030029296875,6.940002441406,10.740051269531,13.669982910156,13.450012207031,18.169982910156,7.330017089844,39.52001953125-13.049987792969,43.75-17.080017089844,17.239990234375-16.469970703125,14.02001953125-28.68994140625,28.710021972656-46.489990234375,6.379943847656-7.72998046875,16.809997558594-17.309997558594,34.529968261719-24.799987792969,2.859985351562,3.600036621094,5.630004882812,7.960021972656,7.849975585938,13.179992675781,1.820007324219,4.2900390625,7.380004882812,17.890014648438,3.410034179688,34.179992675781Z" fill="#1f2550"/><path d="M733.645430886245,989.323505431458c-6.889953613281,15.830017089844-13.789978027344,31.659973144531-20.669982910156,47.489990234375-18.580017089844-6.700012207031-41.72998046875-18.029968261719-64.089965820312-37.4599609375-7.910034179688-6.880004882812-14.720031738281-13.890014648438-20.5400390625-20.690002441406,1.530029296875-7.690002441406,3.059997558594-15.369995117188,4.590026855469-23.059997558594,33.570007324219,11.239990234375,67.140014648438,22.47998046875,100.7099609375,33.719970703125Z" fill="url(#linear-gradient)"/><path d="M887.895430886245,970.643512755677c-2.159973144531,22.109985351562-4.309997558594,44.22998046875-6.47998046875,66.339965820312-14.719970703125,2.210021972656-33.589965820312,3-54.809997558594-1.179992675781-15.089965820312-2.969970703125-27.900024414062-7.779968261719-38.200012207031-12.72998046875-1.239990234375-13.380004882812-2.47998046875-26.75-3.719970703125-40.130004882812,34.399963378906-4.099975585938,68.809997558594-8.200012207031,103.2099609375-12.299987792969Z" fill="url(#linear-gradient-2)"/><path d="M712.684798562026,73.830738097474c-2.807739257812-3.416931152344-11.900756835938-13.594177246094-25.063293457031-14.126586914062-17.006286621094-.687896728516-28.640930175781,15.216705322266-34.177185058594,22.784820556641-7.1708984375,9.802612304687-11.669677734375,20.756561279297-16.860778808594,53.316452026367-7.558227539062,47.407546997069-1.910949707031,48.585052490234-9.569580078125,74.278472900391-4.176574707031,14.011596679688-9.417236328125,31.593215942383-22.329162597656,51.037979125977-7.367553710938,11.095184326172-11.0771484375,13.526947021484-14.582275390625,22.784812927246-1.320434570312,3.487564086914-10.185791015625,28.049991607666,2.734191894531,50.126581192017,11.226440429688,19.182796597481,34.917236328125,29.681088447571,59.696228027344,26.430379390717,14.278503417969-29.316457271576,28.556945800781-58.632915019989,42.83544921875-87.949370861053,3.7490234375-7.12198638916,7.6982421875-16.290328979492,10.481018066406-27.341766357422,5.12255859375-20.34349822998,3.989318847656-37.920906066895,2.278442382812-49.215187072754l4.556945800781-122.126586914062Z" fill="#552360"/><path d="M737.748092019057,225.121875792786c-6.552612304688-1.418975830078-16.341552734375-4.341842651367-26.430358886719-10.936706542969-28.574829101562-18.678817749023-45.313049316406-57.50471496582-36.911376953125-93.417724609375,1.540832519531-6.586288452148,7.367431640625-29.91943359375,29.16455078125-46.025329589844,34.769348144531-25.691101074219,77.296813964844-8.699127197266,80.658203125-7.291137695312,29.992065429688,12.562774658202,42.530456542969,38.144149780273,45.113952636719,43.746841430664,2.272521972656,4.928283691406,20.420471191406,45.849212646484-1.822814941406,74.27848815918-7.672119140625,9.805786132812-17.527160644531,14.773818969727-24.15185546875,17.316452026367" fill="#552360"/><path d="M517.646834694839,597.881366759583c-3.432312011719,4.835861206055-7.63037109375,9.962524414062-12.759460449219,15.037963867188-14.355564520073,14.205431907601-30.044712463914,22.112497344254-42.150541416271,26.602056034823-3.158833702609,1.17148270948-6.259069976364-2.053286860993-4.825248867725-5.102017601444,.012901334411-.02743207962,.025918763001-.054870281523,.03905322345-.082313824005,1.602478027344-3.348236083984,4.002655029297-4.802825927734,8.202545166016-8.202514648438,2.291625976563-1.855010986328,5.473236083984-4.575775146484,9.113922119141-8.202545166016-17.772155761719-.303802490234-35.544311523438-.607574462891-53.316467285156-.911376953125-6.075958251953,3.797454833984-12.151885986328,7.594940185548-18.227844238281,11.392395019531-1.286193847656,.48193359375-3.737243652344,1.205322265625-6.83544921875,.911407470703-.027153015137-.002575988769-.054239239502-.00521906128-.081258454956-.007928255005-2.939676165443-.294758825852-4.375238020855-3.758361854523-2.594898444374-6.11610859994l27.753773818455-36.754993686576c1.765637791063-2.338276815534,4.241065240561-4.041851711479,7.055775577968-4.855744205479,23.769877061516-6.873220404446,47.539754123031-13.746452814135,71.309631184547-20.619671664133" fill="#fabda1"/><path d="M394.211196267104,623.200397521302c7.803436279298-6.313110351562,15.606903076173-12.626190185547,23.410339355469-18.93928527832l26.658233642579-7.063293457031c-9.265838623048,.683547973633-18.531646728517,1.367095947266-27.797485351563,2.050643920898-4.680236816406,4.350723266602-9.360443115234,8.701461791992-14.040679931641,13.052185058594" fill="#ed79a5"/><path d="M526.760787331557,540.463649103581c-9.449123470685,4.495074397515-18.898198740283,8.990148795029-28.347311478093,13.485223192544-2.33305248255,1.109865526359-3.903119174683,3.359171589786-4.152569582851,5.930690570234-.588833708666,6.070132613885-.397411245277,15.837644730521,4.702395709382,26.518268392259,5.083914156085,10.647364835996,12.791496080075,17.481127028413,18.069599219681,21.27094736439,2.225685077367,1.598101883306,5.145990498556,1.84181694276,7.594173240833,.611367856672,10.432763750212-5.24347484366,20.865489430733-10.486949687322,31.298263672299-15.730424530982" fill="#febb68"/><path d="M689.44547971437,509.02351763849c-5.010009765625,15.789978027343-10.030029296875,26.2099609375-15.0400390625,42.010009765625-19.9599609375,9-39.929992675781,18.010009765625-59.899963378906,27.010009765625-15.989990234375,7.2099609375-31.980041503906,14.419982910155-47.970031738281,21.629943847655-5.25,2.370056152345-11.369995117188,1.800048828125-16.049987792969-1.559997558594-7.880004882812-5.639953613281-18.070007324219-14.609985351562-24.179992675781-31.679992675781-3.25-9.059997558594-4.590026855469-17.5-5.010009765625-24.529968261719-.400024414062-6.489990234375,3.119995117188-12.570007324219,8.929992675781-15.480041503906l91.320007324219-45.65997314453c9.52001953125-85.080017089845,17.210021972656-147.52996826172,19.599975585938-163.140014648438,.480041503906-3.139953613281,1.640014648438-10.289978027344,5.460021972656-18.679992675781,1.72998046875-3.789978027344,5.239990234375-11.329956054688,12.760009765625-18.679992675781,7.539978027344-7.380004882812,15.549987792969-11.099975585938,20.739990234375-12.989990234375,1.679992675781,43.470031738281,3.359985351562,86.940002441406,5.039978027344,130.419982910156,1.430053710938,37.109985351562,2.870056152344,74.220031738281,4.300048828125,111.330017089845Z" fill="url(#linear-gradient-3)"/><path d="M926.865462624526,977.473529845521c-17.359985351562,6.329956054688-43.030029296875,14.380004882812-74.869995117188,19.5-35.720031738281,5.75-79.210021972656,7.809997558594-127.460021972656-.360046386719-53.809997558594-9.109985351562-95.989990234375-27.989990234375-124.409973144531-43.739990234375,7.529968261719-100.320007324219,22.539978027344-210.589965820312,49.219970703125-328.109985351562,5.859985351562-25.82000732422,12.059997558594-51,18.5400390625-75.54998779297,3.75-14.22003173828,7.599975585938-28.230041503905,11.529968261719-42.02001953125,52.859985351562-7.289978027344,105.72998046875-14.580017089844,158.590026855469-21.869995117188,20.929992675781,36.02001953125,47.609985351562,90.679992675782,62.880004882812,161.320007324219,6.569946289062,30.359985351563,9.089965820312,54.719970703125,13.669982910156,118.929992675781,3.839965820312,53.799987792969,8.419982910156,125.77001953125,12.309997558594,211.900024414062Z" fill="url(#linear-gradient-4)"/><path d="M851.995467507339,996.973529845521c3.9599609375-84.960021972656,2.760009765625-178.610046386719-7.160034179688-279.24005126953-3.969970703125-40.349975585938-9.079956054688-79.119995117188-15.039978027344-116.2099609375-21.840026855469-12.410034179688-50.719970703125-26.22998046875-86.119995117188-36.910034179688-28.210021972656-8.5-53.989990234375-13.039978027344-75.789978027344-15.399963378906,3.75-14.22003173828,7.599975585938-28.230041503905,11.529968261719-42.02001953125,52.859985351562-7.289978027344,105.72998046875-14.580017089844,158.590026855469-21.869995117188,20.929992675781,36.02001953125,47.609985351562,90.679992675782,62.880004882812,161.320007324219,6.569946289062,30.359985351563,9.089965820312,54.719970703125,13.669982910156,118.929992675781,3.839965820312,53.799987792969,8.419982910156,125.77001953125,12.309997558594,211.900024414062-17.359985351562,6.329956054688-43.030029296875,14.380004882812-74.869995117188,19.5Z" fill="#1f2550"/><path d="M689.44547971437,509.02351763849c-5.010009765625,15.789978027343-10.030029296875,26.2099609375-15.0400390625,42.010009765625-19.9599609375,9-39.929992675781,18.010009765625-59.899963378906,27.010009765625,18.5-17.920043945313,27.119995117188-35.170043945313,31.419982910156-46.240051269532,7.929992675781-20.389953613281,8.359985351562-41.659973144531,8.890014648438-83.389953613281,.299987792969-24.010009765625-.420043945312-43.809997558594-1.130004882812-57.220031738281,10.489990234375,2.169982910156,20.97998046875,4.340026855469,31.4599609375,6.5,1.430053710938,37.109985351562,2.870056152344,74.220031738281,4.300048828125,111.330017089845Z" fill="#bc0074" opacity=".5"/><path d="M865.665450417495,497.873493224427c1.179992675781,6.700012207031-.029968261719,13.640014648438-3.640014648438,19.410034179688-.029968261719,.059997558593-.070007324219,.109985351562-.099975585938,.169982910155-3.950012207031,6.239990234375-9.059997558594,9.52001953125-11.619995117188,10.929992675781-6.669982910156,3.75-17.52001953125,9.289978027344-31.77001953125,13.950012207031-16.010009765625,5.22998046875-36.330017089844,9.359985351562-59.830017089844,8.609985351562-36.509948730469-1.15997314453-63.889953613281-13.580017089844-77.919982910156-21.190002441405-2.72998046875-1.390014648438-7.469970703125-4.260009765625-11.619995117188-9.57000732422-.039978027344-.049987792969-.080017089844-.099975585938-.119995117188-.149963378905-4.049987792969-5.25-6-11.82000732422-5.719970703125-18.460021972657,.329956054688-7.669982910156,.549987792969-17.099975585938,.369995117188-27.869995117188-.2900390625-17.72998046875-.460021972656-28.260009765625-2.730041503906-42.380004882812-2.489990234375-15.489990234375-4.940002441406-19.330017089844-6.839965820312-35.539978027344-.010009765625-.110046386719-.02001953125-.230041503906-.0400390625-.340026855469-1.559997558594-13.589965820312-.509948730469-27.349975585938,2.970031738281-40.580017089844,7.679992675781-29.199951171875,15.359985351562-58.389953613281,23.049987792969-87.589965820312,7.510009765625-2.390014648438,15.869995117188-4.679992675781,25.02001953125-6.640014648438,5.570007324219-1.190002441406,11.440002441406-2.260009765625,17.570007324219-3.149963378906,5.199951171875-.75,10.599975585938-1.369995117188,16.190002441406-1.830017089844,11.579956054688-.950012207031,22.349975585938-1.070007324219,32.130004882812-.679992675781,10.109985351562,.989990234375,20.219970703125,1.97998046875,30.329956054688,2.960021972656,6.390014648438,.629943847656,12.7900390625,1.25,19.179992675781,1.869995117188,13.800048828125,1.359985351562,27.600036621094,2.699951171875,41.400024414062,4.049987792969,1.529968261719,24.580017089844,3.059997558594,49.159973144531,4.580017089844,73.739990234375,.760009765625,12.109985351562,1.510009765625,24.2099609375,2.260009765625,36.309997558594-2.620056152344,30.239990234375-5.230041503906,60.47998046875-7.840026855469,90.7099609375-.239990234375,2.860046386719-.109985351562,5.740051269531,.380004882812,8.559997558594,1.460021972656,8.230041503906,2.909973144531,16.460021972656,4.359985351562,24.700012207031Z" fill="url(#linear-gradient-5)"/><path d="M865.665450417495,497.873493224427c1.179992675781,6.700012207031-.029968261719,13.640014648438-3.640014648438,19.410034179688-.029968261719,.059997558593-.070007324219,.109985351562-.099975585938,.169982910155-3.950012207031,6.239990234375-9.059997558594,9.52001953125-11.619995117188,10.929992675781-6.669982910156,3.75-17.52001953125,9.289978027344-31.77001953125,13.950012207031,4.799987792969-7.780029296875,6.980041503906-14.600036621093,8.070007324219-19.640014648438,.799987792969-3.669982910155,1.200012207031-7.190002441405,1.830017089844-24.609985351562,.539978027344-14.950012207031,.779968261719-27.220031738281,.909973144531-35.539978027343-14.5,2.619995117187-35.369995117188,4.759948730468-60.149963378906,1.819946289062-25.420043945312-3.019958496094-45.630004882812-10.289978027344-59.240051269531-16.409973144531,16.650024414062,1.72998046875,71.930053710938,5.700012207031,106.630004882812-24.599975585938,8.860046386719-7.740051269531,13.220031738281-14.960021972656,14.580017089844-17.320007324219,16.950012207031-29.420043945312,4.880004882812-63.429992675781,1.369995117188-72.460021972656,11.320007324219,1.340026855469,22.650024414062,2.679992675781,33.970031738281,4.02001953125,.760009765625,12.109985351562,1.510009765625,24.2099609375,2.260009765625,36.309997558594-2.620056152344,30.239990234375-5.230041503906,60.47998046875-7.840026855469,90.7099609375-.239990234375,2.860046386719-.109985351562,5.740051269531,.380004882812,8.559997558594,1.460021972656,8.230041503906,2.909973144531,16.460021972656,4.359985351562,24.700012207031Z" fill="#bc0074" opacity=".5"/><rect x="731.985457741714" y="199.453510314271" width="58.169982910156" height="75.340026855469" fill="#fabda1"/><path d="M790.15544065187,208.516364755601v46.141783962871c-8.630004882812,.565456739109-26.099975585938-.589617163416-39.649963378906-16.519635043217-9.600036621094-11.285782153213-12.630004882812-24.592888558891-13.670043945312-30.704961857078,17.780029296875,.360937645808,35.5400390625,.721875291616,53.320007324219,1.082812937424Z" fill="url(#linear-gradient-6)"/><path d="M715.053235845151,189.758542770172c3.381958007812,6.141967773438,9.203674316406,14.740036010743,19.139282226562,22.556961059571,.000061035156,.000061035156,1.046691894531,.813110351562,2.08251953125,1.57781982422,8.096069335938,5.977005004882,34.736877441406,23.696128845214,58.7529296875,12.093070983886,24.496765136719-11.835334777832,26.963134765625-44.833000183105,27.341735839844-49.898735046386,.864318847656-11.564025878907-1.388122558594-21.13851928711-3.417724609375-27.341766357423-6.360534667969-.561752319336-14.547180175781-2.118286132812-23.240478515625-6.151901245118-24.501281738281-11.368347167968-34.715087890625-33.916442871093-37.594970703125-41.012664794921-1.710144042969,6.192047119141-4.431945800781,13.775833129883-8.886047363281,21.873428344727-6.8291015625,12.415405273438-15.022094726562,21.114929199219-21.189880371094,26.658218383789-2.499938964844-1.692535400391-9.909912109375-6.228820800781-19.974670410156-5.544296264648-3.488525390625,.237258911133-11.983520507812,.815032958984-17.924072265625,7.594940185547-6.432373046875,7.341262817382-6.6279296875,18.254272460938-2.734191894531,26.126571655273,.869934082031,1.758819580078,4.650695800781,9.099227905274,13.367126464844,11.848098754883,6.625427246094,2.089447021484,12.311218261719,.330413818359,14.278442382812-.379745483399Z" fill="#fabda1"/><path d="M790.305098854995,161.932010680482c1.020263671875,3.864654541016,1.94091796875,8.459533691406,2.430358886719,13.670883178711,.289855957031,3.08642578125,.389831542969,5.97673034668,.366760253906,8.631530761719-.012756347656,1.464706420898-1.349365234375,2.574005126952-2.789001464844,2.303741455077-1.17919921875-.221374511718-2.52880859375-.593063354491-3.95751953125-1.213760375976-2.796264648438-1.214813232422-4.69482421875-2.861801147461-5.772155761719-3.949371337891l6.501953125,1.300384521484c1.400512695312,.28010559082,2.742065429688-.728225708008,2.834228515625-2.153472900391,.157653808594-2.438064575195,.207580566406-5.101867675781,.08154296875-7.95703125-.249938964844-5.661224365234-1.126159667969-10.583892822266-2.126586914062-14.582275390625,.810119628906,1.316452026367,1.620300292969,2.632919311523,2.430419921875,3.949371337891Z" fill="#b96381"/><path d="M672.314236766941,134.802655529064h62.945454545459v14.836363636364h-62.945454545459c-2.067172637194,0-3.745454545451-1.678281908257-3.745454545451-3.745454545451v-7.345454545462c0-2.067172637194,1.678281908257-3.745454545451,3.745454545451-3.745454545451Z" fill="#172b5e"/><rect x="731.98696403967" y="119.748110074519" width="92.50909090909" height="50.327105179587" rx="6.254545454546" ry="6.254545454546" fill="#172b5e"/><rect x="748.859691312391" y="119.748110074519" width="92.5090909091" height="50.327105179587" rx="6.254545454546" ry="6.254545454546" fill="#494d7f"/><rect x="753.69165065696" y="124.111746438155" width="82.845172219952" height="41.599832452315" rx="5.38123507857" ry="5.38123507857" fill="url(#linear-gradient-7)"/><rect x="805.732418585121" y="130.43901916543" width="22.912759884919" height="5.890909090909" fill="#ffc166"/><path d="M753.849410378432,186.235797911927c2.604064941406,2.443954467773,6.112915039062,5.212768554687,10.632873535156,7.594940185547,10.41015625,5.48649597168,20.35107421875,5.847854614258,25.673156738281,5.622772216797-1.971740722656,.789154052734-4.949035644531,1.729644775391-8.660461425781,1.97216796875-1.428649902344,.093353271484-7.58447265625,.385070800781-14.430419921875-2.886077880859-7.760131835938-3.707962036133-11.741821289062-9.764755249023-13.215148925781-12.303802490234Z" fill="#b96381"/><path d="M698.317733132339,160.021557649744c.902770996094-.404747279747,5.180786132812-2.218788942783,10.025329589844-.791460149682,5.18212890625,1.526802940394,8.021667480469,5.881324484516,8.50634765625,9.761333012178,.648071289062,5.187854386682-2.996520996094,8.864343075757-3.645568847656,9.497535047037,.450317382812-.953889095668,2.526672363281-5.633242030057,0-10.552806412712-2.461669921875-4.792952490102-8.311889648438-7.904636855983-14.886108398438-7.91460149682Z" fill="#ed79a5"/><path d="M639.224719832829,123.475018875931c-2.940317246826,27.385274013977-14.605156298666,53.313649878745-32.742551173268,73.980873125096-9.567138010862,10.901575362182-20.367858683373,20.831685405856-28.27109444664,33.095100461051-7.357390308745,11.416429141412-11.955759067962,25.231249403493-9.071844873322,38.854080577955,2.807786457718,13.263224321489,14.156407953757,24.946195743848,28.269763228238,24.94984803704,1.93037823441,.00049954863,1.933532419442-2.999499635122,0-3-12.133888996051-.003140041423-22.018444067341-9.80524404267-24.981508745917-21.078450958131-3.491849735725-13.285010237243,1.168800660391-27.036974143418,8.374002446445-38.211320212645,7.763702252766-12.040508833324,18.406322526223-21.781735197495,27.802002734756-32.48793756171,8.821283996199-10.051688592993,16.237475975396-21.22409347516,21.831355806035-33.382474639267,6.215441307102-13.509354294845,10.202411938928-27.934541614313,11.789875023674-42.719718829389,.205845436937-1.917185535388-2.795714407719-1.902657588316-3,0h0Z" fill="#552360"/><path d="M813.845443093276,309.883502990052c-3.941066204861,11.859669377342-9.065848032722,21.735405892507-14.062115020924,29.611560256561-5.399764852264,8.512231553366-16.305617967359,11.687551303417-25.392053246584,7.322664089033-5.015923749732-2.409519329719-10.44815030348-5.776892267475-15.685846380929-10.504231669813-6.72998046875-6.079956054688-11.009948730469-12.489990234375-13.669982910156-17.319946289062-4.869995117188,3.969970703125-12.779968261719,9.440002441406-23.690002441406,13.219970703125-1.628249536512,.562350330027-3.230037391284,1.054952364728-4.799455507509,1.485551166862-13.514801644413,3.708035060262-26.461252319697-7.294892364553-25.097996900775-21.242685098844,.380626486363-3.8942807542,.914619437885-7.949287299703,1.637442642659-12.14289048208,2.720031738281-15.75,7.340026855469-29.089965820312,12.0400390625-39.679992675781,5.570007324219-1.190002441406,11.440002441406-2.260009765625,17.570007324219-3.149963378906,5.199951171875-.75,10.599975585938-1.369995117188,16.190002441406-1.830017089844,11.579956054688-.950012207031,22.349975585938-1.070007324219,32.130004882812-.679992675781,10.109985351562,.989990234375,20.219970703125,1.97998046875,30.329956054688,2.960021972656,6.390014648438,.629943847656,12.7900390625,1.25,19.179992675781,1.869995117188,.679992675781,12.549987792969-.089965820312,30.279968261719-6.679992675781,50.079956054688Z" fill="#febb68"/><path d="M801.345443093276,257.933551818177c-3.549987792969,8.429992675781-9.529968261719,19.119995117188-19.619995117188,29.109985351562-12.510009765625,12.380004882812-25.789978027344,18.200012207031-33.419982910156,20.890014648438-4.850036621094-4.370056152344-11.760009765625-11.680053710938-17.289978027344-22.420043945312-5.52001953125-10.719970703125-7.570007324219-20.779968261719-8.320007324219-28.029968261719,5.199951171875-.75,10.599975585938-1.369995117188,16.190002441406-1.830017089844,11.579956054688-.950012207031,22.349975585938-1.070007324219,32.130004882812-.679992675781,10.109985351562,.989990234375,20.219970703125,1.97998046875,30.329956054688,2.960021972656Z" fill="#fabda1"/><path d="M1061.497030895564,368.781328059523c10.762797969821-21.181392896963,12.97123372281-25.527636829337,23.734031692631-46.7090297263,9.760143268129-.188514054437,19.520286179908-.377023968266,29.28042917098-.565538602086,19.01659209322-10.769104704334,34.596328179319-19.591916297207,53.612920272539-30.361021001541,3.864589143661-5.707899848429,10.933747815601-1.561898845558,9.392996139901,3.520301930353-.01402190021,.046251523375-.02840496548,.092572816359-.043154691721,.138961213913-.91196445997,2.868085401916-2.76644749389,4.548591543528-3.59492610648,5.213424250323-10.68005526245,7.092095212716-21.360110714681,14.184194394127-32.040165977131,21.276289606844,2.631814352631,3.311481073133,6.38101872944,8.84577535113,8.93962977704,16.583506615236,1.169968089191,3.538138140463,1.87030912318,6.869591280428,2.276198395552,9.846101995297,.663450452939,4.865285969252-1.472351166121,9.684662582674-5.535274928801,12.442165903571-2.492662974189,1.691768497442-4.985329920939,3.383536794189-7.47795954661,5.075306828106-3.306251609691,5.910784435075-9.74346755053,15.648755487318-20.918440297581,24.025631214116-13.42903058495,10.066531946932-26.737520195738,12.948458837244-33.513209730789,13.919808621091-8.03765598334-11.468633984152-16.075485322881-22.93727908826-24.113074169531-34.405908848921Z" fill="#fabda1"/><path d="M1035.773421608903,379.147193938538c7.843923938031-5.366911241515,15.687948065341-10.733821700302,23.531890848401-16.10073279459,1.604877441439-1.098074626967,3.6281099264-1.419990903862,5.48093505631-.829704086798,4.668139405379,1.487210588155,12.087100411251,4.754221519173,18.379630149981,11.917777808512,8.49858699715,9.674914823801,9.955167663029,20.779665552747,10.092909017609,26.597998878381,.050207677801,2.120822797817-.987570762309,4.119479711552-2.727652274039,5.332956733662-10.65764091973,7.43229686588-21.31528183947,14.864593981472-31.9729227592,22.296894348284" fill="#febb68"/><path d="M1059.375472390153,436.133502990052c-32.75,20.429992675781-65.5,40.869995117188-98.250000000002,61.299987792969-15.230041503906,9.5-35.210021972656,5.869995117188-46.070007324219-8.419982910155-3.77001953125-4.960021972657-7.530029296875-10.039978027345-11.280029296875-15.22998046875-32.119995117188-44.480041503907-56.4599609375-88.080017089845-75.039978027344-127.900024414063-3.330017089844-6.549987792969-7.969970703125-17.72998046875-8.809997558594-32.199951171875-.640014648438-10.920043945312-1.309997558594-22.400024414062,6.080017089844-33.120056152344,7.809997558594-11.339965820312,22.599975585938-18.879943847656,35.919982910156-16.7099609375,5.179992675781,.839965820312,8.97998046875,2.9599609375,12.380004882812,4.859985351562,10.169982910156,5.690002441406,16.349975585938,13.510009765625,20.049987792969,18.840026855469,1.090026855469,1.579956054688,2.429992675781,3.609985351562,4,6.059997558594,11.510009765625,18.009948730469,35.299987792969,58.9599609375,64.349975585938,113.329956054688,20.560058593755-10.489990234375,41.110107421875-20.989990234375,61.660034179686-31.47998046875,6.579956054689-3.359985351562,14.54992675782-2.510009765625,20.219970703129,2.22998046875,1.369995117191,1.150024414062,2.740112304691,2.390014648438,4.099975585941,3.72998046875,11.2900390625,11.190002441406,16.47998046875,24.440002441406,18.900024414059,34.75,1.819946289061,7.730041503906-1.469970703129,15.760009765625-8.2099609375,19.960021972656Z" fill="url(#linear-gradient-8)"/><path d="M1140.041732155774,365.241797477051c-3.30114746093,1.226510047913-6.6142578125,2.469157218933-9.939208984371,3.728180885315-.021347656249,.00808336258-.042694494628,.01616690731-.064040515139,.0242506341-3.591256228739,1.360006853434-7.62957112533-.200019868281-9.35826343081-3.629066799253-5.16303409369-10.241432878145-10.326010911631-20.482865980024-15.48907300718-30.724298748787,5.71789550782,17.352731704712,11.43566894532,34.705463409424,17.153564453129,52.058195114136,2.528564453121-2.130899429321,5.25927734375-4.708604812622,7.998901367191-7.795331954956,4.30395507812-4.849273681641,7.43493652343-9.608800888062,9.69812011718-13.661929130554Z" fill="#ed79a5"/><path d="M868.042891823745,265.580257445618c-4.762573242188,1.021903991699-15.049072265625,3.933372497559-24.117553710938,12.85807800293-14.481262207031,14.251651763916-14.627402186517,32.785987854004-14.582275390625,36.45569229126-.81298828125-2.68879699707-5.907165527344-20.59330368042,4.860778808594-36.759494781494,6.151306152344-9.235122680664,14.539611816406-13.489921569824,18.501159667969-15.181846618652,5.112609863281,.875854492188,10.225280761719,1.75171661377,15.337890625,2.627571105957Z" fill="#bc0074" opacity=".5"/><path d="M663.469649636245,332.210485488221c1.513061523438-6.332021713257,2.902221679688-13.021085739136,4.101257324219-20.050634384155,2.525817871094-14.807941436768,3.779602050781-28.61487197876,4.238220214844-41.122341156006-3.00244140625,2.045509338379-6.0048828125,4.091011047363-9.00732421875,6.136520385742,.222595214844,18.345485687256,.445251464844,36.690971374512,.667846679688,55.036455154419Z" fill="#bc0074" opacity=".5"/><path d="M1044.585433327653,377.693500548646c-4.75,1.960021972656-37.579956054689,15.619995117188-57.569946289059,28.340026855469-6.47003173829,4.109985351562-11.0400390625,7.779968261719-15.0400390625,11.619995117188-6.099975585941,5.849975585938-10.289978027349,11.570007324219-12.98999023438,15.719970703125-10.419982910156-30.380004882812-23.200012207031-62.72998046875-38.960021972656-96.379943847656-7.089965820312-15.140014648438-14.339965820312-29.600036621094-21.669982910156-43.380004882812,11.510009765625,18.009948730469,35.299987792969,58.9599609375,64.349975585938,113.329956054688,20.560058593755-10.489990234375,41.110107421875-20.989990234375,61.660034179686-31.47998046875,6.579956054689-3.359985351562,14.54992675782-2.510009765625,20.219970703129,2.22998046875Z" fill="#bc0074" opacity=".5"/></g><path d="M266.809193043439,365.118518853837c-.000000003426,76.47944218214,53.418219150818,138.489625574649,119.303460428715,138.489625577608,65.893017313793,.000000002959,119.311051329893-62.010183384758,119.311051333337-138.489625566895,.000000003427-76.487079360249-53.418034007112-138.48962557465-119.311051320903-138.489625577608-65.885241277899-.000000002959-119.303460437722,62.002546206646-119.303460441149,138.489625566895Zm45.751232908061,.000000002055c.000000002117-47.161703990417,32.935029750599-85.390085027658,73.552227530711-85.390085025836,40.624788672282,.000000001824,73.559818417321,38.228381042024,73.559818415204,85.390085032439-.000000002117,47.154113098231-32.9350297506,85.390038741731-73.559818422885,85.390038739906-40.617197780095-.000000001822-73.55222752515-38.235925648279-73.552227523031-85.390038746509Z" fill="#fff"/><path d="M266.809193043439,365.118518853837l45.751232908061,.000000002055c.000000002117-47.161703990417,32.935029750599-85.390085027658,73.552227530711-85.390085025836l.000000002377-53.099540543115c-65.885241277899-.000000002959-119.303460437722,62.002546206646-119.303460441149,138.489625566895Z" fill="#0d9de8"/><path d="M266.809193043439,365.118518853837c-.000000003426,76.47944218214,53.418219150818,138.489625574649,119.303460428715,138.489625577608,65.893017313793,.000000002959,119.311051329893-62.010183384758,119.311051333337-138.489625566895l-45.751232908076-.000000002055c-.000000002117,47.154113098231-32.9350297506,85.390038741731-73.559818422885,85.390038739906-40.617197780095-.000000001822-73.55222752515-38.235925648279-73.552227523031-85.390038746509l-45.751232908061-.000000002055Z" fill="#f8b76d"/><g opacity=".4"><path d="M731.349853530435,403.130004890649l-.000000005573,124.140014648438-.000000018485,411.719970703126C322.439941397359,931.169982899634-.000000004888,841.989990209376,0,733.130004857813L.000000024058,197.280029271877c-.000000004888,108.859985351562,322.439941397359,198.029968276195,731.349853506377,205.849975618772Z" fill="#f8b76d"/></g><g opacity=".4"><path d="M649.295455300307,466.163532286927v321.72998046875c-154.219970703125-7.22998046875-292.900024414062-26.169982910156-402.109985351562-53.169982910156V412.983478575989c109.2099609375,27.010009765625,247.890014648438,45.940002441406,402.109985351562,53.180053710938Z" fill="#ff7be3"/></g><path d="M649.295455300307,831.858509093568v28.179992675781c-154.219970703125-7.22998046875-292.900024414062-26.169982910156-402.109985351562-53.169982910156v-28.180053710938c109.2099609375,27,247.890014648438,45.940002441406,402.109985351562,53.170043945312Z" fill="#fff"/><g opacity=".4"><path d="M598.815474831557,513.613483458802v217.740051269531c-111.910034179688-7.27001953125-214.390014648438-20.77001953125-301.730041503905-39.02001953125v-217.72998046875c87.340026855468,18.25,189.820007324218,31.75,301.730041503905,39.009948730469Z" fill="#fff"/></g><g opacity=".4"><path d="M365.665450417495,940.653522521302v97.339965820312c-65.25-10.869995117188-123.969970703125-24.179992675781-174.299987792968-39.429992675781v-97.339965820312c50.330017089843,15.25,109.049987792968,28.559997558594,174.299987792968,39.429992675781Z" fill="#ff7be3"/></g><path d="M1209.815535866714,727.693500548646v215.169982910156c-87.84008789062,29.559997558594-205.77001953125,52.720031738281-341.770080566406,66.330017089844v-215.17999267578c136.000061035156-13.599975585938,253.929992675787-36.760009765625,341.770080566406-66.32000732422Z" fill="#17f1fc" opacity=".4"/><path d="M868.045455300307,843.77351763849c.760009765625-.080017089845,1.52001953125-.150024414063,2.280029296875-.22998046875v13.579956054687c-.760009765625,.080017089844-1.52001953125,.150024414063-2.280029296875,.230041503906v-13.580017089843Z" fill="#17f1fc" opacity=".4"/><path d="M1166.755477272964,790.743488341615v13.590026855468c-46.55004882812,13.210021972657-99.619995117189,24.830017089844-157.869995117189,34.5v-13.580017089843c58.25-9.679992675782,111.31994628907-21.29998779297,157.869995117189-34.510009765625Z" fill="#fff"/><path d="M1095.165389382344,845.73347857599v13.590026855468c-27.23999023438,6.010009765625-56.059936523441,11.549987792969-86.27990722657,16.570007324219v-13.580017089844c30.219970703129-5.019958496093,59.039916992189-10.570007324218,86.27990722657-16.580017089843Z" fill="#fff"/><path d="M971.465438210464,830.363483458802v52.140014648438c-18.949951171875,2.780029296875-38.389953613281,5.359985351562-58.269958496094,7.72998046875v-52.139953613281c19.880004882812-2.369995117188,39.320007324219-4.950012207031,58.269958496094-7.730041503906Z" fill="#dd28bb"/><path d="M1166.755477272964,868.443500548646v13.590026855469c-46.55004882812,13.210021972656-99.619995117189,24.830017089844-157.869995117189,34.5v-13.580017089844c58.25-9.679992675781,111.31994628907-21.299987792969,157.869995117189-34.510009765625Z" fill="#fff"/><path d="M1095.165389382344,923.433490783021v13.590026855469c-27.23999023438,6.010009765625-56.059936523441,11.549987792969-86.27990722657,16.570007324219v-13.580017089844c30.219970703129-5.019958496094,59.039916992189-10.570007324219,86.27990722657-16.580017089844Z" fill="#fff"/><path d="M971.465438210464,908.063495665833v52.140014648438c-18.949951171875,2.780029296875-38.389953613281,5.359985351562-58.269958496094,7.72998046875v-52.139953613281c19.880004882812-2.369995117188,39.320007324219-4.950012207031,58.269958496094-7.730041503906Z" fill="#f8b76d"/><g opacity=".4"><path d="M1375.435408913594,255.153522521302v306.640014648438c0,42.559997558593-86.099975585941,79.859985351562-215.26000976563,100.649963378905V355.793537169739c129.160034179689-20.7900390625,215.26000976563-58.090026855469,215.26000976563-100.640014648438Z" fill="#ff7be3"/></g><path d="M1375.435408913594,337.510768003304v27.329956054688c0,17.900024414062-15.25,34.880004882812-42.54992675782,50.080017089844v-27.309997558594c27.29992675782-15.200012207031,42.54992675782-32.190002441406,42.54992675782-50.099975585938Z" fill="#fff"/><path d="M1375.435408913594,398.42571551307v27.329956054688c0,17.900024414062-15.25,34.880004882812-42.54992675782,50.080017089844v-27.309997558594c27.29992675782-15.200012207031,42.54992675782-32.190002441406,42.54992675782-50.099975585938Z" fill="#fff"/><path d="M1375.435408913594,461.804028504143v27.329956054687c0,17.900024414063-15.25,34.880004882813-42.54992675782,50.080017089844v-27.309997558594c27.29992675782-15.200012207031,42.54992675782-32.190002441406,42.54992675782-50.099975585937Z" fill="#fff"/><path d="M314.25575011003,651.542365719844c15.029801016248-25.250571820286,30.808866990691-50.053349808123,47.324337350911-74.358364054565,8.200595418932-12.068417316558,16.581848886105-24.014115575054,25.13952532915-35.832007187839,3.586923818424-4.953433001537,6.928612909844-9.411353120853,11.427134671161-13.914595396348,.994258019901-.995301342425,2.017276746004-1.96216483843,3.074703159958-2.890219091957,1.210885590085-1.062738274346,2.060083800883-1.744607145047,3.08222981814-2.47325284674,1.091099563474-.777799838404,2.216992936552-1.508151621173,3.381838766977-2.170924811328,.604363498564-.343870333304,1.218426531236-.670159443704,1.842707571364-.976422335595,.343316984686-.168426150735,.688847884082-.332233319299,1.03849055473-.487197608225-.552629156442,.244929442134,.191604913435-.075957959752,.397186976147-.154365534706,1.190990760414-.454235627783,2.412883610232-.828300555637,3.658243563521-1.101718736121,.364673328842-.080063854454,.731276897233-.144894343074,1.098121401456-.213231979303,.746389391435-.139041163571-.621824753161,.056864358352,.133993519604-.026285409158,.746847433959-.082162859429,1.496055502393-.127590674149,2.247357094684-.133849959129,.688098952633-.005732727686,1.368028523322,.037700405587,2.053867801069,.078548181901,.901051504989,.053665562059,.405273201083,.032998125784,.189158996229,.003143830848,.310760307768,.042928829637,.622384076619,.100446168613,.930608343291,.160282288943,.66996291709,.130061082325,1.332675171669,.291893586587,1.986826493778,.486229411868,.355150851005,.105508513699,.70736904547,.219319783547,1.05642090444,.343685029695,.15270620319,.054408375318,1.293784542319,.541868600842,.561650225632,.208334169072,1.133650081059,.516450775483,2.220866612781,1.128929496061,3.253283223947,1.825829970507,.243172336691,.164145864159,.482741273432,.333022118853,.719827131548,.505828402194,.662614521712,.482964077631-.745877045507-.671504820612,.306230949433,.245359652159,.558161598676,.486412556841,1.113050421776,.969265769093,1.639935333694,1.490420854117,.423006029355,.418405876136,.832259257068,.850962166133,1.226874671327,1.296242585554,.198417444051,.223892426691,.387182433649,.455369859413,.584425023474,.680064517781,.938655583609,1.069296929599-.232749399808-.3417070576,.271031603763,.3274523265,.864772553452,1.148655199685,1.638288090203,2.368186259556,2.334274271136,3.625738424746,2.583842072699,4.668650444589,3.775671571878,10.167057439456,3.791558462513,15.881077648225,.019986873449,7.18865644796-1.580563688068,14.212313576295-3.42299266719,21.122216451392-3.919212088894,14.698734761583-8.167535473953,29.316608431295-12.261646288807,43.967590708267-1.88763079381,6.754982108752-3.97872658863,13.487495929407-5.588513278401,20.315198983076-1.269722784886,5.38536576974-2.184442094605,10.996952019371-2.025736519758,16.545144730492,.151297602902,5.289217208854,1.26875960934,10.909087134157,4.362788010266,15.31243591094,3.544618623271,5.044618231131,8.767397145049,8.261538683735,14.890521225508,9.030402784872,12.071412798096,1.515774599456,23.39950454565-6.693177900488,29.916627907507-16.158814240704,3.726978672857-5.413158966958,6.414992633424-11.436432170083,9.316407406909-17.30836402861,1.432460568944-2.899037713513,2.918880953949-5.776426148282,4.610836325029-8.53416489888,1.70750868243-2.783089282972,2.777536427719-4.333476124791,4.969334627825-6.576552005288,.935636619186-.957526077586,1.927447768421-1.856690776734,2.962695641067-2.70510187005,.683211902618-.559908957635-.826321807888,.585333568665,.395630759794-.311747303352,.253636291037-.186203843879,.508604689879-.370376912056,.766630082692-.550496520613,.642047333871-.448193540922,1.300365329057-.873352992391,1.972626910518-1.274800338459,2.531630264468-1.511786898024,4.000288134501-2.163216087518,6.922269293577-2.811168008689,.16903305727-.037483230808,1.840945262467-.31431506715,.972936766666-.207102565177,.717431734255-.088613938224,1.445467830406-.129110263407,2.16815524193-.131603614233,.576720903669-.001989750367,1.149374849962,.032386705868,1.724025115106,.075771601189,.911235139963,.068796350681,.277065334248,.043315077566,.08574810043,.007179130856,.425993630452,.080461560215,.848463064751,.161058300394,1.269127072746,.267061617778,.635284520145,.160085639224,1.26193847713,.357835953003,1.872370985293,.595681437126,.688826052588,.268390303208-.519196775158-.262871411127,.148186188208,.076729859236,.33654392593,.171252116178,.673023037652,.338431011009,1.001566534836,.525383116792,.468638455006,.266670765866,.909217911581,.573278973771,1.364027939136,.861128482361,.707814206937,.447975988427,.18456840118,.124270886898,.031699057984,.001836455558,.300669878778,.240809209092,.592593429565,.493021817238,.875670571855,.754295708824,.417917205241,.385728263648,.815129159747,.793206642935,1.19196665945,1.21908682482,.207322380609,.234303892877,.410625494759,.472550177768,.603188132444,.71923281526-.115450475312-.147897993567-.46359801658-.701345839825-.03563449196-.008579990872,.598932020524,.969521059143,1.161054443101,1.913400900535,1.665300335351,2.937654239634,.535844005345,1.088437248859-.196574413012-.546490412938,.06472801171,.15292112608,.089653535097,.239969900881,.181190914246,.479055592617,.266325570786,.720727529471,.193757872384,.550020898688,.367290116773,1.107040060559,.523029079717,1.668999740935,.320860519702,1.157774982498,.541243588118,2.331288186359,.749606743709,3.513183262603,.22658804447,1.285271829058-.057503881468-.571026283635,.033476134484,.223541797585,.039251751177,.342802628592,.077141216913,.685572937285,.109271211279,1.029146222094,.051991301645,.555954728301,.092963961337,1.113005538946,.124791524891,1.670471107974,.077117010503,1.350718476086,.098091011491,2.704318378945,.07929716484,4.056967566642-.036363042028,2.617156571075-.223497512425,5.230326215454-.486748239645,7.833775080057-.123645052471,1.222802211686-.264557620383,2.443805240189-.416673659447,3.663378744844-.079321170482,.635948703855-.16182068558,1.271492184424-.246174629383,1.906791613627-.10810931122,.814209515455,.149598321817-1.068076572752-.036918138793,.265741261772-.048021594931,.343412369893-.095072985591,.686967600305-.142582283605,1.0304512681-.366188143805,2.647474325959-.663586208465,5.275691261203-.672125099241,7.951490328604-.015898432862,4.982030211552,.633006023347,10.110733691239,2.156203816654,14.863409016014,2.948404263061,9.19959853546,9.971224538786,17.83661833768,20.539298615311,17.175050709799,8.357293506291-.523171469128,14.211803655778-6.17335068691,18.339466240807-13.025191952208,3.938980615266-6.538632789601,6.493293925046-13.806537024662,10.449563756746-20.335904799445,.438107686483-.723046286451,.894041911668-1.435431789358,1.373624365661-2.131716474103,.247927028939-.3599543556,.513740351732-.707196535169,.762656250487-1.066130243708,.152781089639-.220308479181,.542662928758-.596287013197-.179709830604,.227329065725,.186181435009-.212275478943,.355330382907-.44376886357,.537108173093-.660127375609,.505792105086-.602012089294,1.037447206802-1.182430140863,1.600146140051-1.731763298748,.291194883007-.284278137367,.589908826479-.56088029374,.897864216177-.826959730577,.13500711287-.1166487672,.279715916073-.2258748336,.411398167908-.345645250914,.68659858436-.624489616698-.850199617982,.53883948091-.064172944193,.054526494342,.678385963046-.417989799536,1.31480549008-.876981369343,2.02878661193-1.240343064674,.387281411461-.197096570109,1.332821378998-.421080912566,.132147947474-.093290809173,.427881770041-.116813952871,.840654464693-.312197175421,1.268633533651-.43752547538,.394716291192-.115587712879,.794434897612-.213183804296,1.197576929918-.294494608971,.181404514168-.036587966118,.371453993032-.052368815665,.549668707187-.09989987468,.603967262445-.161082117884-1.180611180465,.0646210273-.207831937637,.033137847419,.55498319129-.017961562987,1.10200104983-.07482979507,1.658956949544-.062888998677,.300214688057,.006436420668,.597472673227,.026995287611,.896615445085,.048287137352-.855734261253-.06090792432,.368027018071,.062899453289,.554844175333,.103443481803,2.177497670931,.472571839519,4.306655344437,1.660585245447,5.815289857048,2.988186597651,2.277422536905,2.004136332733,3.488605024333,3.596185053585,4.946509225476,6.04039303048,1.670487384551,2.800608289227,2.337057884313,4.548302656372,3.364695521149,7.671502237523,.988935495986,3.005575911326,1.822803734599,6.058869962651,2.758949158864,9.080780160341,1.897698774826,6.125838070819,4.291555605002,12.464128422316,8.737789427606,17.231577238585,3.942943155991,4.227798274143,9.510556148723,6.85144854049,15.223891713181,7.462868211088,5.191552877905,.555580451155,10.76512981082-1.208523450182,14.094743014291-5.370525198106,1.516860226168-1.896068560181,1.85211775106-4.511843279619,0-6.363961030678-1.57195085028-1.571950850281-4.837706294269-1.907811656348-6.363961030678,0-.373828691332,.467284207404-.770691917307,.880647556638-1.191399013116,1.303491927018-.177670695463,.178573297448-.859993269704,.635060857024-.119640593512,.133379992171-.206993775692,.14026398465-.411635499345,.279731289468-.6262224195,.408981755768-.250900586126,.151122993555-1.491897603682,.689232753617-.592948910572,.358454464921-.591499238374,.217648801688-1.187187972027,.349611045757-1.789541663306,.523451490411-1.09753591104,.316750994577,.571720763138,.033728881508-.1126670409,.040563803717-.316655642153,.003162412698-.638199954355,.05567093345-.955800924567,.066731833589-.518582639063,.018060369214-1.038673024273,.007454118199-1.556338885538-.027673082201-.262220592182-.01779347641-.525093784476-.042031360306-.786222532601-.07289595661,.943048774344,.111465397527,.050087390409-.004505346909-.185016026541-.059083528367-.662154617849-.153716161827-1.317018832851-.300346608096-1.966853835405-.504681519141-.199235636665-.062647896673-1.825706621997-.685000891389-1.047241278029-.345884733008-.508218126439-.221390688736-1.005810158733-.469042555053-1.493288277295-.732783992594-.550019338066-.297578261202-1.086042320862-.620406371549-1.607074920703-.966167788618-.289065455357-.191826157327-.57421210277-.389257928685-.852810811883-.596093888204,.507780308089,.376983897673-.002526878156-.006357127286-.223379349866-.201296319871-.463417395073-.409043250119-.917503393508-.824470285809-1.34475195729-1.271566734788-.190823910261-.199688658758-1.133598043079-1.289799515292-.612339769106-.635658267394-1.0693076335-1.341903360943-1.949834789442-2.873699164158-2.734242198656-4.394673873477-2.625880326447-5.09161122054-4.009903229752-11.430727047092-5.892983604047-17.21011054406-1.954957560348-5.99998259011-4.67447870207-11.676335403625-9.038905927857-16.314454876062-4.158047255833-4.418797461129-9.999550369492-7.653961051182-16.209771494491-7.384291578435-4.381595014434,.190264145761-8.298833946028,1.80470435436-11.703712496308,4.516855683869-5.895631102968,4.696156852024-9.17685538199,12.062047604923-12.32634340703,18.706890859177-1.619901505197,3.417695671102-3.225061407151,6.857191411801-5.16972024482,10.105971758059-.458074479115,.765267066923-.93496157501,1.519600802359-1.438740652242,2.255674727561-.218422135295,.319137585787-.446300808353,.631280210904-.669982202668,.946651869382-.110494159841,.155787326647-.229213259297,.305507608593-.342869746818,.458942328645,.739762231168-.998669000955,.192376325392-.247969382809,.001033434203-.023614204663-.537370932341,.630083252675-1.079746232452,1.25080269205-1.671171910273,1.831582436703-.255880490142,.251274524084-.517935039997,.496458361487-.786960744399,.733623241247-.164199573048,.144753350188-.352776957288,.276059523313-.507071473276,.430862387841-.38107260685,.382328112932,.82719334616-.574167064156,.181094405737-.13628946202-.652095005295,.441941287036-1.293132196649,.881273503968-1.993547592357,1.246071634097-.150576271802,.07842480724-.320190045242,.146183023595-.467300937823,.232864446415-.775774475669,.457105753067,.802594630012-.263846964609,.234336199867-.08752048103-.421365560889,.130746687972-.826906802458,.306302124345-1.252299302168,.429901878533-.390933988479,.113587674707-.785056514433,.19726060433-1.181429321678,.288489823069-.121500615294,.027964597992-.445613276163,.120684640976-.542544589724,.096607551089,.488204674884,.121266775504,.900031332385-.068983923039,.361816410574-.053188713247-.471354271238,.013833023389-.939005555295,.071284665709-1.412315002368,.074655756736-.300698141919,.002141687251-.600995834216-.003155077561-.901332109967-.019399298038-.141483219345-.007652371008-1.146754657505-.103785739277-.446740551058-.019489710235,.604525715787,.072797271977-.819955941015-.175260330691-1.066913655816-.240402770744-.426890450239-.112605048948-.839495800279-.261624546143-1.257383827964-.401805535686-.985645169594-.33063573507,.557119427683,.360512115633,.027975516321,.003098654379-.175424593132-.118491604409-.389471417645-.194430091768-.576628946935-.296306435645-.526309777655-.286488692697-1.009271081372-.619890405819-1.504675828237-.95433564678,.818776354475,.552751779022-.070530496281-.073618333541-.353934290762-.332552237784-.368117342342-.336333043272-.719282315992-.690894799979-1.055058933386-1.059429954727-.16172978482-.17750822478-1.15108734493-1.465208893898-.481864369486-.531453819709-.338807116127-.472731623783-.670799816944-.946755149474-.978222607787-1.440924007704-.542004437151-.871248722733-.994990744681-1.778668188759-1.449381591343-2.696816229037-.10677102528-.215742918984-.430248794264-.995168744092-.0669116724-.11352598432-.095311622503-.231275024888-.187629500337-.463980784835-.277296486572-.697474779654-.227394482999-.592138182227-.436912054387-1.191201426211-.630497135145-1.795224886889-.336684037253-1.050520301159-.623292545637-2.116557252104-.868475734742-3.192000188362-.131909487917-.578592388506-.251249815085-1.160023114596-.358629791853-1.743667796621-.05752462931-.312664846772-.339084443178-2.139781805037-.209071831922-1.167612926244-.316653780352-2.367777615111-.436281400517-4.768195423207-.389603622411-7.155929119869,.022732727356-1.162859530349,.087346152876-2.325175536655,.197599301803-3.483054819626,.034031226551-.357396161286,.186223274687-1.672208063213,.058575435754-.674803909526,.087928630063-.687049476018,.191356617068-1.372388099206,.284938324374-2.058701371932,1.423300397509-10.43825745437,3.014426099048-21.973523997689-1.19630049267-31.991676537811-2.084462794805-4.959349838489-5.737356804216-9.24276672714-10.660323919226-11.56984653662-5.522824771431-2.610631701703-11.801497549021-2.734344952948-17.557674517749-.763117295729-5.731809715035,1.962882985978-10.940779227072,5.482165890347-15.054938834517,9.917493348857-4.455307941118,4.803107203622-7.584200959567,10.660253769635-10.45913879458,16.494726959306-2.894297089116,5.873761360588-5.594817729771,11.893704352454-9.349305514899,17.287217451537-.840533475066,1.207469185529-1.10554642344,1.579155445822-2.1397201687,2.733927352012-.966588517823,1.079305358838-2.004899731979,2.09405430354-3.103757412289,3.038339464931-.197154648998,.169421584691-1.340266043559,1.078529471027-.887670939151,.738567029121-.552791500977,.415223997579-1.120993428183,.81044222142-1.699322355998,1.189120722222-1.211695977619,.793394890286-2.475101293418,1.507369131498-3.78441368697,2.12699167009-.272058076532,.128749500009-.546528805855,.256527723233-.823535352485,.373823071253,.622045926228-.263398444147-.076905148022,.021258091399-.173322429842,.054733939326-.631248612311,.219167997179-1.253643919658,.448707182743-1.895155136372,.637540232082-.630711889955,.185654196422-1.268273467977,.347819917452-1.91213758913,.481213554396-.283665619974,.058768903998-.567943415097,.106754332332-.852474944376,.159856791981-1.31890898386,.246149561262,.821565356054-.017437862571-.50828687712,.055158181297-1.268454873725,.069244389233-2.532785938883,.114911435443-3.797431186327-.054360998721,.925333057769,.123855586709-.665027352175-.167099974974-.864945415209-.21707324928-.680493951085-.170102242712-1.357857899634-.378344857625-2.007141098204-.644554042069,.692946571551,.284111374025,.019799661196-.002161240282-.096973393542-.067183960271-.316101003956-.176014467675-.641639630771-.332715425406-.954683220043-.515128525289-.556696194979-.324391497221-1.109025347891-.677698462141-1.617253925059-1.074588874208,.632784241913,.494159537273-.451199419908-.434159870323-.643934114021-.619855630889-.477300680424-.459869009459-.922825057734-.950104154315-1.344010704654-1.461666793311,.58180662499,.706649276018-.429209515024-.659532392915-.543506017078-.843386491227-.309503851013-.497859080808-.593440301014-1.011346852831-.852417437982-1.537265051314-.115423985755-.234397427357-.226071210684-.471799925494-.331680375615-.710850793974,.342101286078,.774360914583,.061711113322,.141808125979,.007996180851-.020691153451-.209177326054-.632806618079-.434063456211-1.254512590635-.610196892921-1.898214974545-.178587881722-.652672470086-.328518763435-1.313429901574-.453957745433-1.978315470563-.053728572818-.284786691822-.24212054303-1.726990628926-.147859971111-.850523091924-.144335024903-1.342077193084-.22185418872-2.686163445804-.224317811328-4.03617740515-.00226523626-1.241302365525,.050784298035-2.482483174801,.148618898475-3.719854937045,.052556172985-.66470884626,.117991768545-1.328297787573,.194282094389-1.990692474185,.022479019297-.195175243753,.148248281529-1.152675965222,.037880401201-.355009850849,.051148765996-.369669484506,.10782499977-.73861200409,.166118508489-1.107207583045,.967623893152-6.11838087885,2.802804941097-12.050559655729,4.46653721744-18.004309689683,4.080112176023-14.600887625931,8.160224435287-29.201775228604,12.240337246605-43.802662677006,3.887783661145-13.91262797995,8.492488857989-28.942114174895,4.641723113727-43.392110099043-2.977672397653-11.173713714901-11.433048906079-22.123336964131-23.38664725426-24.180683890523-12.775399492146-2.198788022904-23.959283975999,4.98842173652-32.469443167693,13.858687533329-4.492072890454,4.68215454252-8.344077328424,9.907967404833-12.14046386925,15.15524701183-4.27638985531,5.910729331176-8.508501343911,11.853483074196-12.69619416491,17.827380310103-16.867069981634,24.061493296709-33.009491381027,48.631102125338-48.399066783107,73.663356529991-3.714750370374,6.042309413451-7.384301173963,12.112266836157-11.012133763706,18.207147750432-1.243099639616,2.088449254647-.470671561936,4.9373093833,1.614381916836,6.156854249492,2.11946541817,1.23967236146,4.910228971292,.479990529356,6.156854249492-1.614381916836h0Z" fill="#0d9de8"/><rect x="52.836723562772" y="348.769925300755" width="43.746835445275" height="372.474759599824" rx="21.873395852067" ry="21.873395852067" fill="#0d9de8"/><rect x="125.74811587724" y="513.976677525454" width="43.746835445678" height="229.273611859592" rx="21.8733958378" ry="21.8733958378" fill="#e8862d"/><rect x="1214.600345977118" y="380.692172713794" width="34.211061158959" height="227.186093161528" rx="17.105513475884" ry="17.105513475884" fill="#0d9de8"/><rect x="1274.752244677706" y="362.768744985377" width="34.211061218552" height="227.186093160197" rx="17.105513484011" ry="17.105513484011" fill="#0d9de8"/></svg>