<?xml version="1.0" encoding="UTF-8"?><svg id="Technology_Companies_Illustration_5" xmlns="http://www.w3.org/2000/svg" width="1314.88989257812" height="1402.604057427548" xmlns:xlink="http://www.w3.org/1999/xlink" viewBox="0 0 1314.88989257812 1402.604057427548"><defs><linearGradient id="linear-gradient" x1="720.306988512033" y1="1275.620331289894" x2="720.306988512033" y2="635.03491210937" gradientUnits="userSpaceOnUse"><stop offset=".000000192569" stop-color="#1e2750"/><stop offset=".240736522852" stop-color="#212b56"/><stop offset=".578084192307" stop-color="#2b3768"/><stop offset=".97095495039" stop-color="#3c4a86"/><stop offset="1" stop-color="#3e4c89"/></linearGradient><linearGradient id="linear-gradient-2" x1="487.43994140625" y1="294.66491699218" x2="487.43994140625" y2="585.393010638671" gradientUnits="userSpaceOnUse"><stop offset="0" stop-color="#0c77e7"/><stop offset=".093044583512" stop-color="#1278e3"/><stop offset=".223627891775" stop-color="#247ed9"/><stop offset=".376443165494" stop-color="#4287c9"/><stop offset=".546058574576" stop-color="#6c94b3"/><stop offset=".729548784033" stop-color="#a2a497"/><stop offset=".921794433588" stop-color="#e2b875"/><stop offset="1" stop-color="#ffc166"/></linearGradient><linearGradient id="linear-gradient-3" x1="696.89501953125" y1="270.66491699218" x2="696.89501953125" y2="669.237590973369" xlink:href="#linear-gradient-2"/><linearGradient id="linear-gradient-4" x1="692.164794921875" y1="270.953352656754" x2="692.164794921875" y2="223.97485351562" gradientUnits="userSpaceOnUse"><stop offset="0" stop-color="#fabda1"/><stop offset=".117548629292" stop-color="#f6a8a2"/><stop offset=".280244181981" stop-color="#f293a3"/><stop offset=".46184782123" stop-color="#ef84a4"/><stop offset=".67540218435" stop-color="#ed7ba4"/><stop offset="1" stop-color="#ed79a5"/></linearGradient><linearGradient id="linear-gradient-5" x1="703.671341540427" y1="131.935183543725" x2="642.299988628024" y2="193.306536456127" gradientTransform="translate(-5.532763677289 2.597742953424)" gradientUnits="userSpaceOnUse"><stop offset="0" stop-color="#70cae2"/><stop offset=".018708823036" stop-color="#6fc8e1"/><stop offset=".448825477098" stop-color="#68a0cf"/><stop offset=".790798305811" stop-color="#6488c4"/><stop offset="1" stop-color="#637fc0"/></linearGradient><linearGradient id="linear-gradient-6" x1="856.25383653015" y1="311.078936152206" x2="856.25383653015" y2="586.154907226559" xlink:href="#linear-gradient-2"/></defs><g opacity=".4"><path d="M1.98658230819,195.68005371093c-.5,3.099975585939-.75,6.219970703129-.75,9.349975585939s.25,6.25,.75,9.349975585939V732.72998046875c17.18994140625-106.89990234375,327.580078125-192.5,712.1298828125-195.67993164063V0C329.55640652694,3.18005371093,19.17652371444,88.78002929687,1.98658230819,195.68005371093Z" fill="#e8862d"/></g><path d="M198.1298828125,235.99487304687v24.36010742188c-53.77978515625,16.11987304687-98.35009765625,34.669921875-131.419921875,54.96997070312v-24.36010742187c33.06982421875-20.29992675782,77.64990234375-38.84985351563,131.419921875-54.96997070313Z" fill="#fff"/><g opacity=".4"><path d="M1.98974609375,390.72485351562v18.690063476561c-.5-3.089965820311-.75-6.210083007811-.75-9.339965820311,0-3.130004882811,.25-6.25,.75-9.35009765625Z" fill="#e8862d"/></g><g><path d="M223.87100587666,243.177612306679c.00000000128,24.605821149151,17.18630666437,44.556430598181,38.38364305958,44.556430597069,21.19983818841-.000000001099,38.386085282899-19.950609451909,38.38608528163-44.556430601058-.00000000129-24.60827826748-17.18624709786-44.556430598181-38.38608528627-44.55643059708-21.19733639521,.00000000111-38.38364305622,19.9481523336-38.38364305494,44.556430601069Zm14.71959813211-.000000000769c-.00000000079-15.173390657241,10.59622596949-27.47265278395,23.66404492371-27.472652784631,13.070261180929-.000000000669,23.66648715249,12.29926212493,23.666487153269,27.472652782169,.00000000079,15.17094843055-10.59622596948,27.472637892321-23.66648715041,27.47263789301-13.06781895423,.00000000068-23.66404492578-12.301689459999-23.66404492657-27.472637890549Z" fill="#fff"/><path d="M223.87100587666,243.177612306679l14.71959813211-.000000000769c-.00000000079-15.173390657241,10.59622596949-27.47265278395,23.66404492371-27.472652784631l-.00000000088-17.083777815669c-21.19733639521,.00000000111-38.38364305622,19.9481523336-38.38364305494,44.556430601069Z" fill="#0d9de8"/><path d="M223.87100587666,243.177612306679c.00000000128,24.605821149151,17.18630666437,44.556430598181,38.38364305958,44.556430597069,21.19983818841-.000000001099,38.386085282899-19.950609451909,38.38608528163-44.556430601058l-14.71959813212,.000000000759c.00000000079,15.17094843055-10.59622596948,27.472637892321-23.66648715041,27.47263789301-13.06781895423,.00000000068-23.66404492578-12.301689459999-23.66404492657-27.472637890549l-14.71959813211,.000000000769Z" fill="#0d9de8"/></g><path d="M198.1298828125,366.74666012375v24.36010742187c-53.77978515625,16.11987304688-98.35009765625,34.669921875-131.419921875,54.96997070313v-24.36010742188c33.06982421875-20.299926757811,77.64990234375-38.84985351562,131.419921875-54.96997070312Z" fill="#fff"/><g><path d="M300.64073421787,373.92939937956c-.00000000129-24.605821149151-17.18630666437-44.55643059817-38.38364305958-44.556430597071-21.19983818841,.000000001111-38.386085282909,19.95060945192-38.38608528163,44.556430601071s17.18624709786,44.55643059817,38.38608528627,44.556430597069c21.19733639521-.0000000011,38.38364305621-19.948152333589,38.38364305494-44.556430601069Zm-14.71959813211,.000000000769c.00000000079,15.173390657241-10.59622596949,27.47265278395-23.66404492372,27.472652784631-13.070261180929,.00000000068-23.66648715248-12.29926212493-23.666487153259-27.472652782169-.00000000079-15.170948430541,10.59622596948-27.472637892321,23.66648715041-27.472637893001,13.06781895423-.00000000068,23.66404492578,12.30168946,23.66404492657,27.47263789054Z" fill="#fff"/><path d="M300.64073421787,373.92939937956l-14.71959813211,.000000000769c.00000000079,15.173390657241-10.59622596949,27.47265278395-23.66404492372,27.472652784631l.00000000089,17.083777815669c21.19733639521-.0000000011,38.38364305621-19.948152333589,38.38364305494-44.556430601069Z" fill="#0d9de8"/><path d="M300.64073421787,373.92939937956c-.00000000129-24.605821149151-17.18630666437-44.55643059817-38.38364305958-44.556430597071-21.19983818841,.000000001111-38.386085282909,19.95060945192-38.38608528163,44.556430601071l14.71959813212-.000000000769c-.00000000079-15.170948430541,10.59622596948-27.472637892321,23.66648715041-27.472637893001,13.06781895423-.00000000068,23.66404492578,12.30168946,23.66404492657,27.47263789054l14.71959813211-.000000000769Z" fill="#0d9de8"/></g><path d="M527.009765625,277.044921875c-2.4697265625,23.27001953125-21.080078125,41.59997558593-44.22998046875,43.21997070312-1.10009765625,.07006835938-2.19970703125,.11010742188-3.31982421875,.11010742188-26.419921875,0-47.830078125-21.76000976563-47.830078125-48.61010742188,0-23.71997070312,16.7099609375-43.46997070312,38.81982421875-47.73999023437v-67.96997070313c-58.85986328125,4.669921875-105.19970703125,54.67993164063-105.19970703125,115.7099609375,0,64.11010742188,51.1396484375,116.07006835938,114.2099609375,116.07006835938,1.10986328125,0,2.2197265625-.02001953125,3.31982421875-.06005859375,59.8203125-1.71997070313,108.10986328125-50.18994140625,110.77001953125-110.72998046875h-66.5400390625Z" fill="#ff7be3"/><path d="M627.2847212358,260.676485978889c0,2.14011182486-.0476350133,4.268120948371-.14290503988,6.38402737053h-80.46018476855c.22597585574-2.091848613371,.34506338897-4.231812844309,.34506338897-6.38402737053,0-32.464168037919-25.88788697982-58.773964843209-57.83181071047-58.773964843209-3.72424475872,0-7.364256871981,.362785852789-10.897961577531,1.05204945432V120.77280057602c3.59295801476-.29031723859,7.23355104282-.435402060921,10.897961577531-.435402060921,76.27237000243,0,138.08983712993,62.8242371672,138.08983712993,140.33908746379Z" fill="#0d9de8"/><path d="M593.5498046875,277.044921875c-2.66015625,60.5400390625-50.94970703125,109.01000976562-110.77001953125,110.72998046875v-67.51000976563c23.14990234375-1.619995117189,41.76025390625-19.94995117187,44.22998046875-43.21997070312h66.5400390625Z" fill="#fff"/><g opacity=".4"><path d="M1233.52978515625,621.71484375c0,3.13012695312-.25,6.25-.75,9.35009765625v-18.68994140625c.5,3.08984375,.75,6.2099609375,.75,9.33984375Z" fill="#e8862d"/></g><g><path d="M581.8564453125,1233.81396484375c-13.22265625,22.68701171875-27.31591796875,36.97265625-37.72607421875,45.818359375-22.7490234375,19.32983398437-43.01123046875,25.51196289062-52.81591796875,49.74536132812-2.22265625,5.494140625-5.5947265625,13.82861328125-3.77294921875,23.56372070313,4.10888671875,21.9560546875,29.99462890625,37.78271484375,52.81640625,37.96362304687,23.24169921875,.18408203125,40.19140625-15.8330078125,42.755859375-18.32739257812,10.59521484375-10.302734375,9.134765625-16.52734375,21.3779296875-26.18188476563,11.60546875-9.15161132812,16.98876953125-6.76928710937,28.923828125-15.708984375,2.00048828125-1.49853515625,14.55810546875-11.10815429687,21.3779296875-26.18188476562,12.3837890625-27.37280273438-1.41796875-56.70654296875-3.77294921875-61.52734375-23.0546875-3.05444335938-46.109375-6.10913085938-69.1640625-9.16357421875Z" fill="#1f2550"/><path d="M805.984375,1244.28686523437c.88159179687,32.451171875,1.18798828125,58.52661132813,1.30908203125,75.92724609375,.24560546875,35.302734375-.1953125,45.88623046875,7.8544921875,57.59985351563,10.955078125,15.94091796875,34.162109375,28.91967773437,58.9091796875,23.56372070312,26.87475585937-5.81665039062,41.86059570312-30.2900390625,44.50903320312-49.74536132812,1.75170898438-12.86767578125-2.73559570312-23.58984375-11.78173828125-44.50927734375-17.63159179687-40.77368164063-27.85522460937-64.32446289063-34.03637695312-78.54541015625-22.25463867188,5.236328125-44.50903320313,10.47290039062-66.763671875,15.70922851562Z" fill="#1f2550"/><path d="M888.02001953125,1244.69506835937c-2.2001953125,3.13989257813-9.16015625,13.5-26.41015625,20.44970703125-7.080078125,2.86010742188-15.89990234375,5.13012695313-26.830078125,6.10009765625-29.30981445313,2.60009765625-38.35986328125-4.5-44.169921875-8.7900390625-33.5-163.419921875-69.72021484375-316.07983398437-98.52001953125-470.39990234375-10.02978515625,154.32006835938-20.06982421875,308.6298828125-30.10986328125,462.94995117188-3.2099609375,2.4599609375-14.60986328125,10.88989257812-31.2099609375,16.17993164062-12.41015625,3.9599609375-27.72998046875,6.15014648438-44.7099609375,2.77001953125-22.2099609375-4.419921875-21.6103515625-12.33984375-28.80029296875-18.94995117187-4.1298828125-272.09008789063-5.73974609375-431.73999023438-3.9296875-481.89990234375,.419921875-11.53002929688,1.3896484375-35.910034179691,5.23974609375-67.680053710941,.47021484375-3.869995117189,.9501953125-7.660034179689,1.4599609375-11.359985351559,3.22021484375-23.80004882813,7.06005859375-43.84008789063,10.3203125-59.03002929688,81.599609375,3.609985351561,163.19970703125,7.21997070313,244.7998046875,10.830078125,27.05004882812,196.27978515625,45.82006835937,402.5498046875,72.8701171875,598.830078125Z" fill="url(#linear-gradient)"/><path d="M888.02001953125,1244.69506835937c-2.2001953125,3.13989257813-9.16015625,13.5-26.41015625,20.44970703125-35.9599609375-249.59985351562-62.2099609375-428.05981445312-66.53002929688-457.30981445312-1.30981445312-8.830078125-4.44995117187-29.5400390625-12.21997070312-55.86010742188-5.53002929688-18.71997070312-11.4599609375-33.69995117187-15.7099609375-43.6298828125-14.77001953125-7.920043945311-36.66015625-17.8701171875-64.580078125-24.440063476561-17.77001953125-4.180053710939-49.02978515625-11.219970703129-89.02001953125-5.239990234379-20.6201171875,3.08996582032-38.56005859375,8.890014648439-53.52001953125,15.40002441407,3.22021484375-23.80004882813,7.06005859375-43.84008789063,10.3203125-59.03002929688,81.599609375,3.609985351561,163.19970703125,7.21997070313,244.7998046875,10.830078125,27.05004882812,196.27978515625,45.82006835937,402.5498046875,72.8701171875,598.830078125Z" fill="#1f2550"/><path d="M692.08984375,762.45483398437v29.60009765625c-10.02978515625,154.32006835938-20.06982421875,308.6298828125-30.10986328125,462.94995117188-3.2099609375,2.4599609375-14.60986328125,10.88989257812-31.2099609375,16.17993164062,9.97998046875-237.15991210937,17.56982421875-407.59985351562,21.1796875-444.14990234375,.4501953125-4.55004882812,1.97021484375-18.55004882812-3.48974609375-34.90991210937-7.60986328125-22.76000976563-24.64013671875-37.81005859375-38.39990234375-47.13012695313,27.33984375,5.82006835938,54.68994140625,11.640014648439,82.02978515625,17.4599609375Z" fill="#1f2550"/><path d="M631.29345703125,144.2685546875c-1.54248046875-3.937866210941-3.71728515625-11.166381835941-2.6181640625-20.07275390625,2.09619140625-16.983764648441,14.45654296875-26.75842285157,17.16357421875-28.79992675782-1.9951171875-2.440551757811-6.2109375-8.284790039061-7.2724609375-16.872802734371-1.44580078125-11.69775390625,3.96435546875-20.363037109379,5.52734375-22.69091796875,1.19580078125,2.417358398441,3.240234375,5.763549804691,6.69091796875,8.727294921871,7.05126953125,6.05627441407,15.62939453125,6.78479003907,22.9814453125,6.981811523439,19.9970703125,.536010742189,23.9619140625-3.04541015625,38.69091796875-3.19995117187,7.64453125-.08020019532,27.44287109375-.034057617191,45.0908203125,12.21813964843,5.18774414062,3.60168457032,13.48803710937,9.534912109379,17.45483398437,20.654541015629,2.63305664063,7.381103515621,2.29077148438,14.058715820311,1.74536132813,18.036376953121,4.48999023437,1.885620117189,10.09399414062,5.203125,14.25463867187,11.054565429689,8.71508789063,12.25708007813,7.63305664063,30.7607421875-2.6181640625,46.836303710939-1.45458984375,1.939453125-2.9091796875,3.878784179691-4.36376953125,5.818237304691-.08447265625,3.573852539059-.51318359375,6.87097167968-1.16357421875,9.89086914062-6.49145507812,30.147094726561-37.89819335937,45.86499023438-47.70922851562,50.327270507811" fill="#552360"/><path d="M386.20263671875,568.2685546875l-61.45055453817,31.513062508609c-3.88356341945,1.991568305821-8.44971633033-1.38926947555-7.52012579093-5.653571362011,.00827486035-.037959188599,.01673013379-.07596209387,.0253678291-.114007748169,.90380859375-3.98132324218,3.3603515625-6.469970703121,5.67236328125-8.727294921871,4.087890625-3.99169921875,9.60205078125-9.094116210939,16.58203125-14.836303710939-23.41796875-2.18188476562-46.83642578125-4.363647460939-70.25439453125-6.545532226561-4.57958984375-.610107421879-8.02001953125-2.073974609379-10.47265625-3.490844726559-10.93474808913-6.31659314581-14.7001942987-18.89330641862-15.97238021688-27.766587593071-.74222328345-5.176881613159,3.17411303459-9.84480571026,8.40264054952-9.9609894649,3.54131296204-.078691952,7.08262592407-.15738683677,10.62393888611-.23604598891-7.15673828125-1.81225585937-12.61181640625-6.833618164061-13.96337890625-13.090942382811-.008515625-.039432373049-.01684580078-.07880976563-.02499266357-.118131161129-.81695582923-3.943093689961,3.69724080982-6.83273429785,7.010065843539-4.54349971603,17.31726300483,11.96660763233,32.44658386409,15.85009556427,41.88748541378,17.31617189278,10.64599609375,1.653198242189,20.37255859375,1.212890625,37.52734375,.436401367189,14.44482421875-.65380859375,26.43408203125-1.94921875,34.9091796875-3.054565429689,3.498046875,2.160522460939,7.74365234375,5.477294921879,11.34521484375,10.47265625,11.43359375,15.858276367189,6.5791015625,35.045288085939,5.6728515625,38.40002441407Z" fill="#fabda1"/><path d="M389.25732421875,498.88671875c-7.36681808772,4.486470308899-14.73363617544,8.9730114223-22.10045426316,13.459515491169-3.48253778524,2.12091838802-4.32549282616,6.822322725709-1.76568858708,9.996242461901,2.9211219409,3.62192016034,5.92198980362,8.002305093209,8.59319363149,13.198783062549,6.76841461303,13.16713147872,8.44270165792,25.781470589451,8.63098380177,34.611824399341,.078514386551,3.682291895559,3.10897424213,6.6098684023,6.79206466562,6.593044450819l40.86796715761-.186680373599c3.07177734375-5.13671875,9.58154296875-17.75085449218,7.19970703125-33.16357421875-3.31787109375-21.467895507811-22.51513671875-39.496337890621-48.2177734375-44.50915527343Z" fill="#0e99ea"/><path d="M585.6201171875,340.05493164062c-4.650390625,39.119995117189-9.31005859375,78.25-13.9599609375,117.369995117189-3.2001953125,26.910034179691-6.400390625,53.819946289061-9.60009765625,80.72998046875-13.80029296875,6.079956054691-27.6103515625,12.170043945311-41.41015625,18.25-20.52978515625,9.049926757811-41.0498046875,18.089965820311-61.56982421875,27.140014648441-2.05029296875,.82006835937-8.64013671875,3.15991210937-16.59033203125,.86999511718-6.6796875-1.93005371093-10.68994140625-6.089965820311-12.2099609375-7.859985351561,.10986328125-9.80004882812-.89013671875-38.619995117189-21.81982421875-61.9599609375-3.2900390625-3.670043945311-6.7001953125-6.7900390625-10.0400390625-9.420043945311v-.010009765629c-3.14990234375-2.489990234371-6.259765625-4.55993652343-9.16015625-6.280029296871,.47021484375-2.619995117189,1.919921875-8.619995117189,6.97998046875-13.9599609375,3.14013671875-3.319946289059,6.5-5.140014648439,8.72998046875-6.109985351559,27.05029296875-11.930053710941,54.1103515625-23.86010742188,81.16015625-35.78002929688,31.56982421875-62.140014648439,51.9501953125-103.98999023437,56.72998046875-117.82006835937,.27001953125-.76000976563,.72021484375-2.13989257813,1.4501953125-3.93994140625,.009765625-.02001953125,.009765625-.03002929688,.02001953125-.05004882813,1.6396484375-4.01000976562,4.6298828125-10.079956054689,9.86962890625-16.079956054689,4.38037109375-5.01989746093,8.92041015625-8.36999511718,12.22021484375-10.47998046875,6.39990234375,15.13000488282,12.7998046875,30.260009765629,19.2001953125,45.390014648439Z" fill="url(#linear-gradient-2)"/><path d="M555.56982421875,472.0849609375c12.30029296875-40.200073242191,17.76025390625-77.02001953125,19.85986328125-107.71997070313-1.259765625,31.019897460939-2.509765625,62.039916992189-3.76953125,93.059936523439-3.2001953125,26.910034179691-6.400390625,53.819946289061-9.60009765625,80.72998046875-13.80029296875,6.079956054691-27.6103515625,12.170043945311-41.41015625,18.25,12.18017578125-22.950073242189,24.76025390625-51.150024414059,34.919921875-84.319946289059Z" fill="#0065c9" opacity=".5"/><path d="M839.07983398437,441.32495117187c-2.44995117187,38.089965820311-4.89990234375,76.18994140625-7.34985351562,114.2900390625,1.98999023437,25.8798828125,3.97998046875,51.769897460939,5.96997070312,77.65991210938,.07983398438,1.02001953125,.22998046875,2.03002929687,.42993164063,3.03002929687,.69995117187,3.47998046875,1.81005859375,13-4.64990234375,20.55004882813-1.5,1.75-3.15014648438,3.07995605468-4.740234375,4.09985351562-2.68994140625,1.710083007811-5.75,2.76000976563-8.90991210938,3.230102539061-20.59008789062,3.08996582032-39.05981445312,4.579956054689-55.55004882812,4.949951171879-30.4697265625,.710083007811-54.2099609375-2.359985351559-72.18994140625-6.180053710939-3.31982421875-.69995117187-7.64990234375-1.68994140625-12.9296875-2.75-6.91015625-1.38989257812-15.4404296875-2.89990234375-25.48046875-4.07983398437-7.349609375-.8701171875-15.509765625-1.56005859375-24.419921875-1.89013671875-24.9599609375-.92993164063-45.56982421875,1.35009765625-59.349609375,3.48999023437-1.97021484375-.169921875-10.85009765625-1.14990234375-17.4501953125-8.72998046875-4.7998046875-5.5-5.830078125-11.549926757811-6.10986328125-13.9599609375,7.28955078125-55.77001953125,12.259765625-103.90991210937,15.7099609375-142.26000976562,7.0498046875-78.42993164063,7.60986328125-114.31005859375,6.97998046875-144-.47998046875-22.349975585941-1.6201171875-40.96997070313-2.6201171875-54.10998535157,7.91015625-3.900024414061,16.93994140625-7.819946289061,27.06005859375-11.339965820311,14.419921875-5.03002929687,27.75-8.1201171875,39.27001953125-10.0400390625l124.35986328125-2.619995117189c18.169921875,7,32.8701171875,11.96008300782,43.19995117187,15.280029296879,9.34008789063,2.989990234371,17.59008789063,5.430053710941,27.92993164063,11.339965820311,8.57006835937,4.900024414061,14.97021484375,10.130004882811,19.2001953125,13.96997070313-2.7900390625,43.35009765625-5.580078125,86.7099609375-8.36010742188,130.07006835937Z" fill="url(#linear-gradient-3)"/><path d="M676.3798828125,642.01489257812c.5400390625,6.73999023438,1.56005859375,12.84008789063,2.7802734375,18.18994140625-6.91015625-1.38989257812-15.4404296875-2.89990234375-25.48046875-4.07983398437-2.52978515625-5.35009765625-4.8896484375-12.52001953125-5.2197265625-21.09008789063-.240234375-6.28002929687,.669921875-11.650024414061,1.73974609375-15.7099609375,13.68017578125-74.72998046875,22.580078125-157.44995117187,22.68994140625-246.97998046875,.01025390625-8.84008789062-.08984375-17.920043945311-.08984375-17.920043945311-.14990234375-12.630004882809-.4599609375-23.680053710939-.77978515625-32.700073242189,8.14990234375,.580078125,16.2900390625,1.160034179689,24.43994140625,1.73999023438,.64013671875,18.53002929687,.9501953125,37.440063476559,.8701171875,56.730102539059-.35009765625,87.469970703121-8.490234375,168.400024414061-20.9501953125,241.75-.4501953125,5.789916992191-.58984375,12.559936523441,0,20.069946289061Z" fill="#0e99ea"/><path d="M838.1298828125,636.30493164062c.69995117187,3.47998046875,1.81005859375,13-4.64990234375,20.55004882813-1.5,1.75-3.15014648438,3.07995605468-4.740234375,4.09985351562-2.68994140625,1.710083007811-5.75,2.76000976563-8.90991210938,3.230102539061-20.59008789062,3.08996582032-39.05981445312,4.579956054689-55.55004882812,4.949951171879,7.80004882812-13.279907226559,9.68017578125-24.349975585939,10.09008789062-31.47998046875,.2900390625-5.25-.38989257812-11.359985351559-1.75-23.569946289059-1.84985351562-16.580078125-3.32006835937-20.680053710941-4.36010742187-31.42004394532-.72998046875-7.47998046875-1.27978515625-18.510009765621,0-32.28991699218-12.52978515625,6.01989746093-35.81005859375,15.19995117187-66.330078125,15.7099609375-32.31982421875,.5400390625-57.0498046875-8.90002441407-69.81982421875-14.830078125,14.05029296875,.10009765625,110.01025390625-.19995117188,132.66015625-48.8798828125,6.55981445312-14.10009765625,9.67993164062-38.1201171875,12.2099609375-57.60009765625,2.92993164062-22.4599609375,3.509765625-41.22998046875,3.5-54.10998535157,17.44995117187,2.329956054689,34.89990234375,4.660034179689,52.35986328125,6.989990234379,2.080078125,14.559936523441,4.16015625,29.109985351561,6.23999023437,43.670043945311-2.44995117187,38.089965820311-4.89990234375,76.18994140625-7.34985351562,114.2900390625,1.98999023437,25.8798828125,3.97998046875,51.769897460939,5.96997070312,77.65991210938,.07983398438,1.02001953125,.22998046875,2.03002929687,.42993164063,3.03002929687Z" fill="#0065c9" opacity=".5"/><rect x="661.10986328125" y="206.0849609375" width="73.77001953125" height="104.2900390625" fill="#fabda1"/><path d="M723.2197265625,223.97485351562c-1.2900390625,4.180053710939-11.02978515625,34.06005859375-39.5595703125,43.930053710939-8.5302734375,2.950073242191-16.4404296875,3.319946289061-22.55029296875,2.910034179691v-43.25c20.7099609375-1.19995117188,41.41015625-2.390014648441,62.10986328125-3.59008789063Z" fill="url(#linear-gradient-4)"/><path d="M631.66514436997,147.85006116572c-3.43583590227,17.912243599159-4.78395544326,32.98070818369-5.34463362575,43.94935720375-1.24296123299,24.30903879833,1.25890941241,30.849395224639,2.67231681287,33.960923379229,8.38076828149,18.449604697751,27.97111316781,25.275096571801,30.063813335149,25.97005213169,23.75431485492,7.88854040741,53.96764237206-4.401343816669,74.15704074758-31.2972168381,1.954150358691,.813803392412,12.18789773571,4.852518503791,22.04686289653,0,11.98181735485-5.897435601879,20.53427775533-22.481116910179,13.36158406437-33.960923379229-6.02940857929-9.649773386391-21.76477947315-13.415523465481-34.74011856737-5.327164706421-.22277613118-10.21048181257-.445552262349-20.42096362514-.66832839353-30.631445437719-4.43708254103-1.90603608528-11.877406617759-5.79448382219-18.70621769012-13.318035953949-5.381513790639-5.92910351964-8.372295811169-11.900430929622-10.02143723858-15.981618307162-3.7597832966,3.604554168311-8.18390794186,7.254436924781-13.36158406438,10.65445360074-22.541754838931,14.802454075359-46.3299595751,16.30748739029-59.45929827677,15.981618307171Z" fill="#fabda1"/><path d="M733.072593669571,168.0781621146h65.39751987506v15.414320109195h-65.397519875054c-2.147700173147,0-3.891360223644-1.743660050496-3.891360223644-3.891360223644v-7.631599661914c0-2.147700173144,1.743660050494-3.891360223638,3.891360223638-3.891360223638Z" transform="translate(1496.194915118015 455.008231160552) rotate(-172.090439319488)" fill="#172b5e"/><path d="M734.87646484375,180.544555664059c2.2119140625-1.255493164059,6.13671875-3.105712890629,11.345703125-3.611938476559,2.7568359375-.267944335941,8.3095703125-.732421875,14.21069335937,2.37390136718,5.2216796875,2.74853515625,8.01538085938,6.871337890629,9.22338867188,8.958740234379-11.59326171875-2.573608398439-23.1865234375-5.147094726559-34.77978515625-7.720703125Z" fill="#fabda1"/><path d="M663.00244140625,178.88671875c-1.51806640625,4.92712402343-2.904296875,10.68139648437-3.78173828125,17.163696289059-.394141868,2.911672258331-.64795722683,5.691978615921-.79577516279,8.319744779801-.05042690908,.896441453939,.645539789241,1.67089764254,1.54284217813,1.70249790195,1.50041645056,.052840101231,3.46511843556-.067729060891,5.65283532841-.713160650501,2.89453125-.853881835939,4.9443359375-2.262451171879,6.109375-3.200073242189-2.71070497624,.079791560131-5.42174004036,.1595005983-8.13256239298,.239262814341-.948021748301,.0278942349-1.71857323699-.758192768801-1.671808365651-1.70547117054,.358846087271-7.268856693499,.718047977441-14.53762443628,1.07683169613-21.80649672192Z" fill="#b96381"/><path d="M664.82080078125,219.5048828125c3.6962890625,.56286621093,9.6875,.958129882809,16.58203125-.981811523441,12.376953125-3.482543945309,19.3212890625-12.143310546879,21.599609375-15.272705078129-1.0224609375,2.83850097657-3.2138671875,7.60705566407-7.8544921875,11.78186035157-2.02197265625,1.81884765625-9.0986328125,7.65405273437-19.30908203125,7.30908203125-4.9501953125-.16723632813-8.7958984375-1.72485351563-11.01806640625-2.83642578125Z" fill="#b96381"/><rect x="658.750949362978" y="119.585417381989" width="52.287617668388" height="96.1128195044" rx="6.498193771527" ry="6.498193771527" transform="translate(424.599540727784 822.95168649342) rotate(-82.090439319487)" fill="#172b5e"/><rect x="619.475108843067" y="139.085716525015" width="96.112819504415" height="52.287617668384" rx="6.49819377152" ry="6.49819377152" transform="translate(1305.975279704142 420.746038073565) rotate(-172.090439319482)" fill="#494d7f"/><rect x="624.416681906019" y="143.608417680675" width="86.072439001833" height="43.220370545332" rx="5.590863240949" ry="5.590863240949" transform="translate(29.085506521091 -90.27627273901) rotate(7.909560677943)" fill="url(#linear-gradient-5)"/><rect x="679.914579493422" y="153.452118085968" width="23.805335600274" height="6.120391808062" transform="translate(28.119225459531 -93.711873284011) rotate(7.909560677957)" fill="#ffc166"/><path d="M775.752953229456,122.836642502698c13.007655795082,4.571284580563,22.092460616642,16.374137755602,25.936086808687,29.285314164756,2.219108161494,7.454236055353,2.890371602113,15.278357470528,2.514416341204,23.027364920343-.369396232155,7.613815931143-1.661693169259,15.462219250827-5.481197637339,22.16668464499-3.634563129383,6.379833543195-9.742280709402,11.434360449543-17.157038147212,12.444809252484-.808873204231,.110229494059-1.234248262075,1.137352027687-1.047659132015,1.845177968644,.228897512546,.86832280717,1.046277332001,1.156529610751,1.845177968644,1.047659132015,7.034896960755-.958683176412,13.073950686417-5.404903904107,17.169988967533-11.054833887636,4.709858057867-6.496611221139,6.625710188363-14.59736272482,7.383781652448-22.461891143965,1.520795913473-15.777328718825-1.270848666272-32.551187355741-11.257293404087-45.261595476846-4.953125477104-6.304170096757-11.524289441067-11.2661192123-19.108744581234-13.931526675442-1.82503501271-.641372630396-2.609873914035,2.255920583928-.797518836629,2.892837100659h0Z" fill="#552360"/><path d="M661.10986328125,255.39587402343c-2.91552734375,1.210205078129-5.9892578125,2.648315429689-9.16162109375,4.363647460939-7.91357421875,4.27880859375-14.2646484375,9.10522460938-19.2001953125,13.527221679689,4.02105728355,23.15247471576,8.04245725868,46.304949431531,12.06362574267,69.457424147291,1.08865750494,6.2681072573,8.31876745207,9.284019043071,13.538935500769,5.64751119963,9.21126830379-6.41681438647,18.42264119891-12.833628772951,27.63376688156-19.250443159421,8.5658297057,7.60225923096,17.13192400803,15.204584611081,25.69789334962,22.80687875102,4.49277410277,3.987335101441,11.5789174855,2.327293565091,13.83325256131-3.240635467839,10.53209849844-26.012981670981,21.06419699688-52.025894150851,31.59629549532-78.038899533181-3.27490234375-4.170532226559-7.03955078125-8.5830078125-11.345703125-13.090942382809-3.72021484375-3.89428710938-7.3818359375-7.37524414063-10.88623046875-10.47265625-16.29833984375,21.089965820309-32.59716796875,42.18005371093-48.8955078125,63.27001953125-8.29150390625-18.32641601563-16.5830078125-36.652709960941-24.87451171875-54.97912597657Z" fill="#0e99ea"/><path d="M932.08984375,505.86499023437c-2.2099609375,4.419921875-4.419921875,8.84985351563-6.6298828125,13.269897460939-11.169921875,22.349975585941-22.34008789063,44.680053710941-33.51000976563,67.02001953125-8.40014648437-.359985351559-19.82006835937-1.920043945309-32.2900390625-6.97998046875-15.28002929687-6.200073242189-26.580078125-15.410034179689-34.52001953125-23.839965820309-7.77001953125-8.25-13.11987304687-18.47998046875-15.669921875-29.53002929688-9.17016601562-39.51000976562-18.330078125-79.03002929687-27.48999023437-118.55004882812-1.80004882813-10.619995117191-5.02001953125-38.48999023438,10.47998046875-64.58996582032,4.47998046875-7.53991699218,11.580078125-19.150024414061,26.17993164062-26.18005371093,11.80004882813-5.67993164063,22.919921875-5.67993164063,28.80004882813-5.22998046875,2.89990234375,3.190063476559,7.10986328125,8.18005371093,11.33984375,14.830078125,2.97998046875,4.67993164062,5.36010742187,9.18994140625,7.25,13.359985351559l.01025390625,.009887695311c3.60986328125,7.930053710939,5.51977539062,14.63012695313,6.7099609375,18.92016601563,5.09985351562,18.35986328125,16.34985351562,61.88989257812,29.669921875,120.43994140625,3.919921875,2.80004882812,8.03002929687,5.97998046875,12.21997070312,9.59997558593,6.90014648438,5.96008300782,12.669921875,11.92004394532,17.44995117188,17.450073242189Z" fill="url(#linear-gradient-6)"/><path d="M259.63157698331,522.409261265919c18.5762517889,9.90608941623,37.15250357779,19.812178832461,55.72875536668,29.718268248691-22.92205492179-9.480357263141-45.8445274282-18.960806219609-68.76658234999-28.441163482741,1.55007410679-.44498775339,3.42252353966-.868610959778,5.57224915974-1.13140405708,2.907641704081-.355495058699,5.45824855867-.310932098029,7.46557782357-.14570070887Z" fill="#ed79a5"/><path d="M739.220703125,205.94128417968c-.591796875-.083129882811-1.873046875-6.27526855468,1.45458984375-11.05456542968,2.83251953125-4.068359375,8.716796875-6.69897460938,13.9638671875-4.94543457032,2.90966796875,.972412109379,4.69799804687,2.98400878907,5.52709960937,4.07275390625-1.13598632812-.58642578125-5.43481445312-2.63366699218-10.47290039062-1.163696289061-2.80322265625,.817993164061-4.74267578125,2.406127929689-5.81787109375,3.49096679688-4.17724609375,4.2138671875-4.09130859375,9.67919921875-4.65478515625,9.59997558593Z" fill="#ed79a5"/><path d="M524.52978515625,460.48486328125c6.4501953125,11.48999023437,5.669921875,22.440063476559,5.240234375,26.18005371093-1.81005859375-4.70007324218-6.5400390625-15-17.4599609375-22.690063476561-5.5-3.8798828125-10.88037109375-5.88989257812-14.830078125-6.97998046875,0,0-47.01025390625,19.38012695313-83.7900390625,34.910034179689-1.72021484375,.72998046875-5.66015625,2.430053710941-9.60009765625,6.109985351561-2.4296875,2.27001953125-4.259765625,4.73999023438-5.669921875,7.150024414061-3.14990234375-2.489990234371-6.259765625-4.55993652343-9.16015625-6.280029296871,.47021484375-2.619995117189,1.919921875-8.619995117189,6.97998046875-13.9599609375,3.14013671875-3.319946289059,6.5-5.140014648439,8.72998046875-6.109985351559,27.05029296875-11.930053710941,54.1103515625-23.86010742188,81.16015625-35.78002929688,31.56982421875-62.140014648439,51.9501953125-103.98999023437,56.72998046875-117.82006835937,.27001953125-.76000976563,.72021484375-2.13989257813,1.4501953125-3.93994140625-6.89013671875,23.18994140625-14.0703125,46.61999511718-21.5302734375,70.27001953125-5.4697265625,17.34997558593-11,34.51000976562-16.580078125,51.48999023437,3.43994140625,1.71997070313,12.31005859375,6.72998046875,18.330078125,17.44995117188Z" fill="#0065c9" opacity=".5"/><path d="M932.08984375,505.86499023437c-2.2099609375,4.419921875-4.419921875,8.84985351563-6.6298828125,13.269897460939-12.6201171875-9.369995117189-25.25-18.739990234379-37.88012695313-28.099975585939-4.43994140625-.330078125-12.64990234375-.330078125-21.80981445312,3.48999023438-12.64013671875,5.26000976562-19.38012695313,14.55004882812-21.82006835938,18.330078125,1.6298828125-6.220092773441,7.03979492188-23.42004394532,23.55981445313-34.910034179691,5.97021484375-4.150024414059,11.85009765625-6.490112304689,16.580078125-7.859985351559-2.080078125-28.05004882813-5.42993164063-57.81005859375-10.46997070313-89.02001953125-2.31005859375-14.30004882813-4.84985351562-28.180053710941-7.59008789062-41.619995117191l.01025390625,.009887695311c3.60986328125,7.930053710939,5.51977539062,14.63012695313,6.7099609375,18.92016601563,5.09985351562,18.35986328125,16.34985351562,61.88989257812,29.669921875,120.43994140625,3.919921875,2.80004882812,8.03002929687,5.97998046875,12.21997070312,9.59997558593,6.90014648438,5.96008300782,12.669921875,11.92004394532,17.44995117188,17.450073242189Z" fill="#0065c9" opacity=".5"/><path d="M888.45727539062,590.95947265625c-6.46069335937-4.69445800782-9.7421875-10.46313476563-12.65478515625-15.70910644532-5.158203125-9.29040527343-6.75146484375-17.26513671875-8.29077148437-24.872680664061-2.17997824245-10.773161217539-4.57336398628-22.396814094991-7.76466843715-37.71164621414-.76471376022-3.669804318979,2.19338983329-7.178844752299,5.92359695277-6.80762282358,.03184602051,.003169245241,.06374970704,.006539545531,.09571015625,.010113764281,.75756835938,.084716796879,3.40063476563,.4912109375,6.54541015625,3.92736816407,7.11962890625,7.779418945309,14.80053710938,28.891723632809,15.708984375,31.418090820309,11.32446289063-17.314086914059,23.65893554688-35.11376953125,37.09106445313-53.236328125,6.48080382089-8.743699505379,12.95782889457-17.212752793179,19.40960907992-25.411265803159,2.3712728239-3.013263089941,7.2390107717-2.308858806291,8.48579419083,1.31718867828,.01074196851,.031241101929,.02135698316,.062600074099,.031842823,.094077124879,1.23950195312,3.721069335941,.05834960937,7.245361328121-.87280273438,9.599975585941-2.81689453125,7.12243652343-10.95776367187,22.78515625-22.69091796875,42.763671875,11.17940805878-10.558410914,22.35899416837-21.116821828,33.53845422213-31.675232742,4.01337224888-3.79041860257,10.20530589844-4.13462041923,14.56111654336-.743257328031,1.29119002196,1.005299481802,2.59073775917,2.199841334121,3.82767532826,3.618441241901,5.93432617188,6.80590820313,6.69384765625,14.48706054688,6.98193359375,17.890991210939,.6123046875,7.232788085941-1.1865234375,12.818481445311-2.6181640625,17.018188476561-8.82470703125,25.888061523439-17.45458984375,41.454467773439-17.45458984375,41.454467773439-10.0380859375,18.1064453125-15.05712890625,27.15966796875-22.25463867187,30.981811523441-9.6845703125,5.14294433593-19.72973632813,4.37939453125-31.41821289063,3.49096679687-9.50732421875-.72265625-18.00537109375-1.477172851561-26.181640625-7.41821289062Z" fill="#fabda1"/><path d="M888.02075195312,541.213989257809c3.75439453125,.626098632811,9.63720703125,2.150268554691,15.56372070313,6.254638671871,11.95336914062,8.27844238282,15.21557617187,20.912475585939,16,24.436279296879,.29443359375-4.155883789059,.35009765625-13.03271484375-4.36376953125-22.69091796875-5.94677734375-12.18408203125-15.75903320313-17.97900390625-19.32739257813-19.867553710939-2.62426757812,3.95581054688-5.24829101562,7.911743164061-7.87255859375,11.867553710939Z" fill="#ed79a5"/><path d="M786.5791015625,354.73327636718c2.77880859375-7.034301757811,8.275390625-18.32067871093,18.89453125-29.19274902343,12.46166992187-12.75842285157,25.86743164062-18.69006347657,33.32666015625-21.3662109375-5.2421875-3.215698242191-10.484375-6.43127441407-15.7265625-9.64697265625-5.71533203125,3.37194824218-13.7998046875,9.14135742187-21.0166015625,18.46850585937-12.8359375,16.58959960938-15.00439453125,34.19555664063-15.47802734375,41.737426757811Z" fill="#0065c9" opacity=".5"/><path d="M557.98876953125,301.21813964843c3.31298828125,4.32922363282,6.9228515625,9.94384765625,9.92822265625,16.90002441407,6.8232421875,15.792602539059,6.98095703125,30.28735351562,6.3583984375,38.73217773437,2.392578125-7.678100585939,5.087890625-19.499389648439,4.58154296875-34.03637695312-.46142578125-13.24291992188-3.4140625-23.9638671875-6.0234375-31.19409179688-2.29345703125,.890747070311-5.0771484375,2.194458007811-8.03173828125,4.118530273439-2.84912109375,1.85546875-5.1025390625,3.796020507811-6.81298828125,5.479736328121Z" fill="#0065c9" opacity=".5"/></g><g opacity=".4"><path d="M0,182.5048828125v9.35009765625c0-3.13012695313,.25-6.25,.75-9.35009765625H0Z" fill="#f8b76d"/><path d="M0,191.85498046875V728.91491699218c0,75.749877929689,147.1298828125,141.910034179689,366,177.430053710939V369.294921875C147.1298828125,333.77490234375,0,267.60498046875,0,191.85498046875Z" fill="#f8b76d"/></g><g opacity=".6"><path d="M280.97998046875,451.98619099883v205.83996582032c-113.25-24.85998535157-199.68017578125-58.809936523441-245.18017578125-97.90991210938v-205.84008789062c45.5,39.10009765625,131.93017578125,73.05004882812,245.18017578125,97.91003417968Z" fill="#fff"/></g><path d="M280.97998046875,706.601181233209v27.289916992191c-113.25-24.85998535157-199.68017578125-58.809936523441-245.18017578125-97.92004394532v-27.28991699218c45.5,39.109985351559,131.93017578125,73.05993652343,245.18017578125,97.920043945309Z" fill="#ff7be3"/><path d="M280.97998046875,772.12632771758v27.289916992189c-113.25-24.859985351561-199.68017578125-58.809936523439-245.18017578125-97.920043945311v-27.289916992189c45.5,39.109985351561,131.93017578125,73.059936523439,245.18017578125,97.920043945311Z" fill="#0d9de8"/><g opacity=".4"><path d="M0,505.20495605468v9.35009765625c0-3.130126953121,.25-6.25,.75-9.35009765625H0Z" fill="#fff"/></g><path d="M1312.759765625,270.95483398437v294.080078125c-4.33984375-26.97998046875-26.13989257813-52.69995117187-62.31982421875-76.2900390625V194.66491699218c36.17993164062,23.58996582032,57.97998046875,49.309936523439,62.31982421875,76.289916992189Z" fill="#0094a3" opacity=".5"/><g opacity=".4"><path d="M1314.88989257812,265.77490234375v295.17993164062c0,81.05004882813-157.42993164062,151.84008789063-391.61010742187,189.84008789063V455.61499023437c234.18017578125-38,391.61010742187-108.7900390625,391.61010742187-189.84008789062Z" fill="#17f1fc"/></g><path d="M1285.2099609375,390.23672028918v73.25c-19.30004882813,19.03002929687-47.56005859375,37-83.43994140625,53.5400390625v-73.25c35.8798828125-16.5400390625,64.13989257812-34.51000976563,83.43994140625-53.5400390625Z" fill="#fff"/><path d="M1285.2099609375,491.143040453v73.25c-19.30004882813,19.03002929687-47.56005859375,37-83.43994140625,53.5400390625v-73.25c35.8798828125-16.5400390625,64.13989257812-34.51000976563,83.43994140625-53.5400390625Z" fill="#fff"/><g opacity=".4"><path d="M1098.05981445312,743.47485351562v116.3701171875c-82.23999023437,31.06982421875-195.1298828125,55.42993164063-326.22998046875,69.58984375v-116.36987304687c131.10009765625-14.17004394532,243.98999023438-38.53002929688,326.22998046875-69.59008789063Z" fill="#ff7be3"/></g><path d="M1048.23974609375,809.47485351562v25.66015625c-39.72998046875,12.08984375-84.57983398438,22.83984375-133.59985351563,31.98999023438v-25.66015625c49.02001953125-9.14990234375,93.86987304688-19.89990234375,133.59985351563-31.98999023438Z" fill="#fff"/><circle cx="847.43994140625" cy="865.17504882812" r="33.16266867898" fill="#0d9de8"/><rect x="981.43981936864" y="563.0771768123" width="29.044506808347" height="133.609115356581" rx="14.522238892834" ry="14.522238892834" fill="#f8b76d"/><rect x="1030.218641632431" y="475.62352228423" width="29.044506694593" height="209.228303673352" rx="14.52223888277" ry="14.52223888277" fill="#f8b76d"/><rect x="1078.997462534941" y="566.077176811678" width="29.044506836926" height="103.799926758442" rx="14.522238991256" ry="14.522238991256" fill="#0d9de8"/><rect x="1127.776285496768" y="516.213564278892" width="29.044506424679" height="135.493615870846" rx="14.522238718835" ry="14.522238718835" fill="#0d9de8"/><path d="M.75,182.5048828125c-.5,3.10009765625-.75,6.21997070312-.75,9.35009765625v-9.35009765625H.75Z" fill="#fff"/><path d="M69.378229372579,475.298852744403c1.384308368076-4.369108295068,2.781921697028-8.735764025045,4.349005311111-13.043496877242,.756422726202-2.079319187902,1.552302125701-4.144538484938,2.405568521686-6.186136615837-.342373574794,.819192287025,.2847925091-.650978394589,.35769432416-.816646627412,.220141998802-.500269244079,.444379470886-.998753259211,.672643045365-1.495369394774,.453693803652-.987067971804,.924098056273-1.96663385986,1.413864403893-2.936323417467,.996477470718-1.972928116526,2.071135058754-3.906991971398,3.245387430106-5.7799109396,.526822883368-.840276413499,1.073198675264-1.668334130267,1.641479921297-2.481177882819,.301445863947-.431174509018,.608794689671-.858321728623,.922674817298-1.280533987414,.156407296868-.210389484038,.313161898207-.421489048993,.474188369109-.628482015667-.592644694761,.761820605419,.215543647556-.25339714188,.271280046478-.321672656337,1.287050149815-1.576600082011,2.668167523636-3.090062253692,4.171898425516-4.463155852987,.347697870208-.31749146039,.702600521059-.627161788247,1.063763668601-.929241659758,.227326233988-.190137559774,1.320376138716-.975884664203,.47211689039-.389570304276,.772423950772-.533897219728,1.522919087191-1.088842821187,2.321719427793-1.584844246428,.791837273239-.491677827513,1.604202419521-.950809399923,2.435203975137-1.373008207082,.413256481055-.209959165748,.830966127305-.411289610814,1.25271462687-.603624519319,.210237173888-.09587692107,.422000641789-.188201116296,.63383276172-.280490176448-.535920416181,.233484853676-.436513797576,.183480961094,.044943105956-.001899771862,1.749366256373-.673578042881,3.559181201252-1.190848820534,5.403817917701-1.52654862923,.220497072331-.040127589535,.441770695797-.074630615642,.662722552744-.112141840922,.56421048549-.095786597671,.194944638614,.176122755498-.201573630259,.023216694923,.242422197536,.093483267055,.912672493699-.094045150501,1.159905276734-.112688711339,.932244792387-.070299586845,1.868246668153-.091613171933,2.802634808617-.05823220855,.435754676636,.015567311137,.871379009602,.04277636237,1.305629664599,.082208051213,.170929099248,.015521042924,.508957900081,.004393874608,.648286724238,.067974833333-.078120930071-.035649505122-1.076057103857-.181778009221-.230555125437-.024709688962,.851155235217,.158118521878,1.69434768579,.326363810946,2.527043353235,.566751173541,.414452458603,.119646513534,.825433481488,.252018090816,1.231637722365,.397224796186,.203634679855,.072793727846,.404170690136,.151816726364,.606545161078,.227676887602,.795757650228,.298290112249-.092474154589-.07044336937-.177779116672-.075307724139,.727309103282,.041473431542,1.837454847402,.930712623154,2.449134507338,1.317216183441,.375641757935,.23735769937,.730044446457,.501428350608,1.099266848609,.747486814007,.524273062134,.349387857612-.589349080229-.505239279244-.11123507117-.088132474069,.170515364598,.148757655315,.349434691304,.288310602709,.520431704703,.436797416698,.746032266036,.647823912912,1.443071981139,1.350018328698,2.090641987154,2.096178827313,.197890814782,.228019067681,.980546063568,1.318536127046,.412100762468,.481249581935,.232105502088,.341877773584,.483153350546,.670711812551,.712112458052,1.015166286792,.553842051908,.833220284969,1.057005196692,1.700065085783,1.507974549168,2.59316825962,.212816729873,.421463888515,.407324525308,.850492266341,.604962930071,1.279114745363-.418512563551-.907636816366,.105254376676,.280124561732,.213589353814,.572265625859,.354108982583,.954906510548,.657992447555,1.928258260183,.919695503886,2.912378353185,.234737870347,.882718979428,.435298296758,1.774489940773,.604329567663,2.672099171939,.091363611567,.485169523343,.168576775316,.972259979395,.248186627503,1.45941929173,.139733381478,.855075297359,.012862248591,.073136766989-.00640716517-.087828958123,.037191444956,.31067618246,.075081730599,.621071478274,.108268403604,.932200865014,.223238530772,2.092890334814,.311165925466,4.198622446074,.305079996982,6.302892917689-.006042338611,2.089198838854-.106976927687,4.177922128503-.272754808178,6.260294951035-.083460629614,1.048367528556-.183497324944,2.095373549926-.296890450719,3.140916731036-.056637663568,.522228508413-.116948860846,1.044064786571-.180052112924,1.565550266268-.031497261971,.260293475008-.063882292155,.520489947445-.096862606591,.780598056679-.014947259437,.117885576796-.158731080204,1.194306763526-.073073408723,.568995618412,.080611612259-.588474315253-.033670986711,.233143992538-.053150961547,.37112446565-.036360564792,.257548994538-.073333578604,.515007432121-.110853571252,.772390036662-.065381475894,.448509004578-.132368254421,.896783038108-.200977645763,1.344809968215-.174164531419,1.137313694511-.358557465902,2.272996753636-.547966509655,3.407862093567-.436744869711,2.616805434445-.876522772964,5.23310836683-1.314783643194,7.849660407817-.890217799915,5.314873764712-1.780435199336,10.629747596506-2.67065235819,15.944621468594-.890217085087,5.314873431682-1.780433927835,10.629746903955-2.67065068461,15.944620390628-.808301250253,4.825812198565-1.720380149359,9.646713065293-2.273020673964,14.510682026772-.853021986415,7.507723883165-.832049714972,15.794202330657,2.736284859498,22.654991072231,1.884511969711,3.623325737912,4.938222617822,6.314918970038,8.690639347256,7.856713747515,4.038342980408,1.659276291997,8.416309540384,1.07068180595,12.270343931231-.772247011228,3.924398200476-1.876575505115,7.005279805504-5.193912393845,9.611187088343-8.589565444956,2.788162617434-3.633142652938,4.908829304107-7.661384643699,6.669125629999-11.877129580356,.73159787871-1.7521084419,1.396170834692-3.531558120152,2.122283647285-5.286143265048,.09061849575-.218971299966,.18198074316-.437628239997,.273465328422-.656239243832-.05918416309,.141426113123-.36990275848,.858540386593-.034946786809,.089148704516,.190791070309-.43824584401,.380211259413-.877019418929,.57468691126-1.313655722881,.389481154833-.874462228512,.791174853195-1.743636507368,1.209024414156-2.604924085019,.847240801877-1.746365309695,1.757740504957-3.46382852233,2.771479367757-5.119723837455,.444184651101-.725554982453,.907817913101-1.439380981383,1.396359559717-2.135915004734,.254265641-.362517036474,.518966196441-.716770413428,.782770789132-1.07231114915-.7013007046,.945172962804,.313498496448-.357082887847,.522421461562-.596309137416,.513833079949-.588362129334,1.053865352542-1.154157100802,1.624471653207-1.687771924808,.293790037235-.274744107855,.622531664787-.520519712778,.909758104533-.800519370927,.427838335545-.417073678182-.701236219799,.482344297985-.207870031798,.153031080188,.203350376931-.135732785498,.396166408944-.288313498892,.59923324173-.425099991933,.22510723749-.151632982857,2.005360189024-1.025615033261,2.005012338247-1.13262511934,.000159434732,.049047251261-1.069851216231,.392314563509-.288007342186,.123690049077,.179334056693-.061615273202,.355102991411-.130344479798,.535560132626-.189454799134,.360756324195-.118168898067,.727418939998-.219554215579,1.097840242769-.302716066455,.187107966211-.042006884234,.375071231407-.072815245525,.562500807894-.111941702989,.821484803268-.171487290398-.303879235311,.088756710285-.335240828756,.043957844662,.046372604167,.066241534132,1.060042098543-.05691666283,1.180896833291-.056816189182,.387310407074,.000321993914,.769919674083,.033718334802,1.156019551415,.055316407659,.504524569544,.028222641475,.1859730199,.253422359257-.389200541291-.056356574671,.170908789521,.092048637471,.465602415281,.085361969286,.654191411629,.127593236026,.342044748858,.076595046934,.679725278552,.168495421825,1.013331850105,.276057936237,.164321274903,.052980999199,.325223884634,.124918957932,.491113497514,.170771824389,.54593036999,.150898371003-.848857053273-.437408653705-.357604620029-.157849110459,.640227962555,.364337812236,1.297680679033,.660731763412,1.908141108492,1.083061016328,.12538186133,.086741785823,.290974669968,.249407567046,.422374353562,.305020817668-.084517091816-.035770787877-.831202969833-.706205202376-.295943665767-.212315943523,.227574749268,.209985559142,.46535955751,.408132418612,.688682081518,.623116992296,.488863839069,.470611661311,.99043569786,1.37499178854,1.548191621895,1.71823635528-.515640885617-.317326853468-.465401673306-.637248945508-.199259922281-.239176396839,.104930935519,.156946908088,.218312048757,.308799048626,.324220542274,.465239775776,.215179191016,.317847870292,.421490170859,.641819208175,.619763880358,.970469730659,.434780834802,.72067521652,.829171961899,1.465114094717,1.191161570359,2.22480816867,.14331032513,.300760027892,.38088386068,.64829586228,.441876072737,.973297507593-.158086260522-.842374674381-.220023469594-.543226667012-.097623767573-.216456717646,.073169170022,.19533941332,.152387651161,.388540779106,.225888016476,.583805305576,.3185134101,.846177701713,.602885555649,1.705025014149,.858616527463,2.572178159049,.513402699142,1.740887159671,.909272675785,3.515482806753,1.210340706342,5.305015135857,.064695509252,.384546659237,.041928372852,.972975334565,.20463815724,1.325390029657-.04786169877-.103664116095-.125262237881-1.050861930671-.029532433202-.196921819088,.024968998836,.22273136066,.052691082349,.445070490654,.076953805395,.667902825922,.096860078386,.889576879754,.171779277362,1.781660133138,.224600800382,2.674934671435,.106903831934,1.807870459843,.126662475524,3.621135659399,.052308058733,5.430706339655-.200451626623,4.878410752171-.784389528022,9.735836098593-.992148128615,14.61567969984-.191151708094,4.48978014364-.357163266327,9.136128908758,2.096170816255,13.109213506705,1.935192326331,3.133973020796,5.164661485422,5.661406486468,8.844780468031,6.309659544308,4.153520851976,.731642809871,8.212107255953-.459260071275,11.269070872297-3.396412800526,1.497213030598-1.438533097215,2.678094614857-3.197268425494,4.157930641652-4.667472094308,.710509351432-.705884595516,1.452559281812-1.380234853916,2.226355246805-2.016150829866,.09305281298-.076472058601,.754931504915-.586869319703,.327939910377-.26727616174-.42742287984,.319915964861,.24907253435-.173495313606,.346695599079-.242877354736,.489439030816-.347850982356,.98967612364-.680683608651,1.501744013131-.994373811774,.921184793287-.564313152319,1.876981391269-1.068651469606,2.861366994613-1.513522723257-.759788435323,.343369541959,.790547448107-.276163717686,.952032635621-.32788109964,.553621527937-.177303296106,1.116995126778-.327088259974,1.685692905517-.447756324451,.282361793563-.059912404065,.566721434637-.112166633418,.851725197727-.158111888915-.787071265486,.126883203207-.067286567577,.015664580647,.087819239789,.008508194092,.573110601514-.026442601171,1.141299806647-.05901836731,1.715715794439-.039357911395,.285485769805,.009771281633,.570561905678,.044130948838,.855723682818,.052624525968-.76014708891-.022641070605-.110911015418-.027776744339,.080050768212,.011295628838,.63857294426,.130657348842,1.266329980558,.27385304643,1.886964525032,.475671423103,.097043019085,.031556517042,.945808655085,.337174909351,.48977229016,.157158273878-.407494839636-.160855264288,.241064530892,.114499111593,.331126665375,.15845768074,.397017059403,.193780682173,.78524515137,.403418430684,1.164392482732,.630201587408,.322915592756,.193148708757,.629313049615,.406573964585,.943780850432,.612101656889,.703988387384,.460107865711-.086778116221-.111368411528-.155750898308-.135333941324,.199573891254,.069344658754,.55299396488,.464835453953,.708193076747,.606179827002,.569619443808,.51876909728,1.02690570553,1.143552915781,1.580369115763,1.669462616628,.431260934529,.409790972395-.464885548409-.687721081948-.141002898655-.186581323371,.110451456082,.170900219809,.239401031003,.331278240503,.354728027095,.49931026328,.261234463523,.380619948593,.508576687393,.770579903634,.742982368282,1.168286937083,.422727377615,.717225157132,.803091006263,1.459265973745,1.15063843262,2.215616206549,.079695346086,.173437030442,.217313200097,.400070659311,.257927522841,.578187259654-.024091084494-.105652926821-.379119713642-.957524033523-.086261806277-.191689798288,.172791934157,.451857284446,.348702520121,.901750194354,.511481967535,1.357419827973,.592668862272,1.659062047564,1.083806203012,3.352613261495,1.54742604119,5.051587915437,.934342139964,3.423976894826,1.713772152202,6.92080052846,2.973415567252,10.245753432861,1.917824015151,5.062285447708,6.114559108744,8.607100717474,10.948712493928,10.832120093522,6.82772158283,3.14260049394,14.275239946382,4.41656480358,21.712928502063,5.108022608058,4.588950014198,.426619813119,9.199360665921,.563460253439,13.806622454189,.535905399945,2.353369892231-.014074902963,4.60930021518-2.059725026349,4.5-4.5-.108663210196-2.426052976745-1.977525827831-4.515086272379-4.5-4.5-4.737438125024,.028333404845-9.478665440321-.116991291396-14.19578846907-.572843163071-1.008606122496-.097469365528-2.014938188547-.213115886329-3.020499650413-.337778265537-.213103680992-.026419083166-.884965539564-.136467861661,.106212031787,.014939212431-.237572753157-.036290364591-.476050535097-.067663587186-.713770772896-.102924679906-.46609301687-.069135674927-.931619859888-.142240242392-1.396444663167-.219450398565-1.837235505486-.305175712017-3.664842813202-.673923680655-5.470773463271-1.130038809306-1.50539451037-.380210176254-2.996671517213-.82061823539-4.458850698855-1.343725864719-.338189969372-.120990474601-.674858209197-.246344870902-1.00959132135-.376598807925-.334407012573-.130127042632-1.334649580363-.689508772726-.127688080493-.039309371317-.610768852641-.329025857436-1.274110391643-.574165378839-1.892462448668-.89352481694-1.097645056563-.566899235662-2.10904934975-1.230912912219-3.126900480237-1.925839488096-.587162320455-.40087856526,.90152462405,.769056655887,.106636362529,.071997887271-.198308391567-.173901930528-.400950392082-.342115377116-.595111795738-.520839258994-.371853474078-.342287885882-.727684655505-.702496295533-1.061449889466-1.082103193936-.079512451009-.090433250203-.155009943741-.191379392434-.238481754143-.278779120516-.432825930705-.453193341182,.370302250178,.493859195385,.366112291025,.486503014799-.114508408021-.201038840116-.283060233465-.383820539279-.412284396884-.576839095123-.272964904386-.407720121737-.505283453762-.83321971021-.732209512819-1.26732568359-.448309113875-.857608267042,.145716891853,.408551075217,.114150860322,.303908955948-.102122605852-.338538783097-.245539573261-.670796000566-.360276678829-1.005452983169-.303823415137-.886170405385-.581418763665-1.781123893878-.844307014233-2.680227225494-1.030931766552-3.525886698912-1.824669218026-7.120497279298-2.976788439618-10.610995688563-1.256751075928-3.807494527617-2.910591818212-7.387008840375-5.475069656897-10.490653009068-2.734946369462-3.309952701959-6.884478856306-5.822903211429-11.132354403384-6.523410310798-5.454064153982-.899416806811-10.736844081808,.342269575895-15.469059550284,3.14902790554-2.098026616541,1.244375646253-4.065057857201,2.774176849427-5.845098077316,4.439098228138-1.598343606573,1.494975456757-2.905403624698,3.193757242843-4.355558028698,4.819073662415-.267927602095,.300290182715-.564978212881,.562936106315-.850526643839,.844504520988-.475016368516,.468395520082,.059077460836-.270052852899,.238863127164-.170271032703-.01122610594-.006230537212-.491919884709,.327741058947-.461730763735,.308961409499-.23693736443,.147390864711-.77960937541,.301779498313-.950907867516,.50846393577,.021015527435-.025356805027,.890185501154-.302004640169,.465529927807-.209503936954-.207627432413,.045226495802-.410484012452,.137172801353-.617611880587,.191757151921-.165442561553,.043599033101-.333381252908,.071639320822-.498702043606,.113956309806-.710091531084,.181761382652,.360559021196-.077496404105,.443732422467-.052843485948-.263016985213-.077959252732-.722852644161,.038938637623-1.00513381421,.029028649542-1.181504896666-.041478854017,.672564306157,.197572486659-.048690585459,.018517687988-.367889235319-.091330171525-.729598889387-.188474824372-1.094127893513-.292039103068-.980500797576-.278564549628,.799770590784,.462453321659-.093746482978-.043319704702-.300632370727-.170172175138-.593089465679-.340914041804-.886396802725-.523636147722-.872134259434-.543314770543,.624242204163,.6248881513-.119925444392-.101436640965-.28850846459-.281590917069-.563256796585-.566864585211-.839530740634-.860343674396-.5322549599-.565401494459,.216811714874,.196067718032,.198392285222,.267940698177,.008070027173-.031489406229-.32018711037-.473552723126-.310282577036-.458009034117-.203316947372-.319075648848-.368262568728-.654362739126-.551153348834-.984333718612-.338344087937-.6104393564,.209367376962,.252529976289,.105993231495,.279049094745-.011970622015,.003070887229-.213214860275-.60362807628-.198093357073-.557053906945-.141880043473-.436989966003-.242157468465-.879816513816-.338920098838-1.328222079414-.232480588429-1.077333153751-.021551234838,.747507485967-.030578260544-.393262740703-.0037895619-.478897427349-.023463677806-.95805608666-.023771208524-1.437408751488-.000912261776-1.4219558843,.035720724058-2.843710427915,.095764954594-4.264331478937,.107314454784-2.539014526181,.293017250318-5.073993240971,.489165061003-7.607433437766,.321320378796-4.150165942963,.696951159342-8.274131104386,.450675008879-12.438952601731-.434761971958-7.352340060688-1.990991381704-15.365451559206-6.235902574953-21.544062437268-1.955190007941-2.845844754291-4.465875169794-5.47429893705-7.662348371139-6.90797079271-3.64880018334-1.636548095439-7.746044437892-2.095989324975-11.620143850916-.927428209134-7.635433203116,2.303108256277-12.518568341495,9.523434635892-15.90579128863,16.301842526442-1.865769926381,3.733722222691-3.414279076462,7.615647048897-4.945745111023,11.49506211255-.109560880132,.277532847078-.547373511562,1.29333963345-.198092653014,.506607400472-.209224768061,.471265072054-.415078829579,.943661053268-.633086116039,1.41101476619-.497814825922,1.067191886199-1.030138990474,2.118262152364-1.597462133396,3.150199045558-1.007816657922,1.833176037082-2.135538224938,3.589862812496-3.37047971214,5.277863433781-.504002130953,.688903821756-.103533044694,.133775814575,.004458132054,.00009383553-.158782230428,.196556083933-.315631426291,.394488316046-.476807894578,.589091078802-.317811783217,.383722584989-.643370179313,.761174207593-.978132358322,1.130219697872-.687024764197,.757383619879-1.411256781956,1.481559508102-2.179179475687,2.157032942536-.174758392101,.153719446334-.351586481649,.304848646734-.530942251499,.453181454634-.116556251902,.096395650597-.715533247271,.528051768808-.217887342791,.180208997273,.495566407649-.346389252205-.104643646987,.062767227409-.226291158124,.1471468746-.182008883446,.126248743005-.365818097982,.249520065359-.552333781434,.369023324196-.319974644476,.205012318818-.646038300504,.400702894745-.979613684714,.582871491972-.18674538109,.101983376837-.375949205541,.200593530195-.566981225425,.294450833833-.141346236756,.070241981981-.284205730891,.137224070593-.428578482403,.200946265837-.308865728115,.138505392217-.190440761768,.087303989545,.355274899043-.153604208015-.088673844635,.175257758752-.963337208998,.323379614305-1.165644989436,.377172527269-.194404993337,.05169159023-.395576172299,.085540758422-.588710593791,.139691960861-.682577900873,.191381804472,.232819216734-.211925236421,.306561790784-.01509925718-.005961600553-.015912081748-1.081398957815,.070115660368-1.197378528683,.0697468576-.201153632077-.000639647275-.402048874256-.019335599371-.602874442534-.020680804355-.756200553266-.00506531495,.291652067006,.051262631965,.287444668767,.057505380042-.060547017353,.089836938325-1.107857284202-.244987211598-1.218894542655-.277638394358-.384840316768-.113164641227-1.309337025325-.58080854535-.457259181496-.129488509378-.359111044506-.190210331952-.723515210415-.361436884357-1.072470715128-.571567562443-.163805408085-.098638769156-.325663001469-.201649671257-.484386072281-.308395240834-.836574697597-.562619171447,.038375907356-.091521067279,.002224199878,.024872767901,.020766569088-.066859929677-1.359699043735-1.329602871197-1.494650696355-1.481919291005-.712098936342-.80372754559,.429870401707,.697141877239-.149623295119-.215586289709-.231111805557-.364011301248-.465699399379-.722041728137-.675411070873-1.099412907235-.189478745403-.340962508464-.35213642632-.693601574751-.529145852884-1.040709387622-.288773986822-.566273271012-.056534279136,.168309639606,.098751996817,.258420335453-.059790415322-.034695634864-.211542670582-.545028345126-.217242531155-.560419234458-.30386690092-.820508113187-.552413934634-1.660844815453-.758739011914-2.510907788466-.189686309983-.781510957027-.32943114288-1.569969645248-.464969880612-2.362110608678-.14151221944-.827052307844-.00756750603,.111953364649,.024566101445,.21989194693-.0562031046-.188789367494-.054504567295-.456606144022-.075915431087-.659392558655-.058796468666-.556872678724-.104907397475-1.115059331874-.140230998999-1.673902579243-.115856300828-1.832924973338-.112213217531-3.673201086383-.027913903071-5.507396974373,.087376940748-1.901159297096,.284028399627-3.788028902762,.500073644413-5.677852622512,.074627525794-.652793207884-.120867952101,.835554962121-.026951121501,.189133559372,.032171632069-.221434554356,.062481331042-.443142086318,.095003373979-.664532382241,.064216287812-.437145445918,.131887507121-.873736782753,.202410441867-1.309907827044,.2113579421-1.30720899034,.436093901947-2.612362353333,.654841396939-3.918353626827,.903912343884-5.396640693705,1.807824722288-10.79328138163,2.711737297966-16.189922036512,1.742175780651-10.401334043581,3.566206009633-20.792777747029,5.217778916107-31.208868367963,1.425333266136-8.989249222306,2.433289917819-18.076510170371,1.16196787127-27.143960826148-1.198179480715-8.545775909135-5.0457790146-16.679379752397-12.236020334841-21.740766553257-6.66165187991-4.689299759939-15.506200662937-5.294144643969-23.186095703047-3.150786835662-18.007289125707,5.025597817737-27.11356095439,22.86207817301-32.993238794385,39.147938463178-1.509401603257,4.180824919555-2.86463011726,8.414919256242-4.206998091403,12.651656666863-.711214652594,2.244712168102,.835504615156,5.009965324029,3.142977396045,5.535533905933,2.454057303432,.558955853156,4.774006995425-.739471343244,5.535533905932-3.142977396046h0Z" fill="#0d9de8"/><g opacity=".4"><rect x="880.60261008523" y="106.159477095169" width="123.05454545454" height="69.625845074032" fill="#ff7be3"/></g></svg>