<svg xmlns="http://www.w3.org/2000/svg" xmlns:xlink="http://www.w3.org/1999/xlink" width="1070" zoomAndPan="magnify" viewBox="0 0 802.5 809.999993" height="1080" preserveAspectRatio="xMidYMid meet" version="1.0"><path fill="#fdd8e9" d="M 190.375 223.230469 C 269.429688 143.664062 246.796875 93.796875 300.894531 56.957031 C 384.125 0.269531 539.46875 49.039062 631.121094 127.007812 C 743.371094 222.496094 801.28125 396.859375 735.3125 554.597656 C 665.050781 722.578125 480.195312 809.78125 315.238281 783.5 C 167.9375 760.03125 23.136719 643.941406 8.628906 504.703125 C 7.058594 489.609375 0.113281 408.03125 48.804688 337.695312 C 89.050781 279.558594 127.707031 286.296875 190.375 223.230469 " fill-opacity="1" fill-rule="nonzero"/><path fill="#ff98c8" d="M 704.707031 295.257812 L 54.800781 275.191406 C 39.347656 275.191406 28.652344 285.25 28.652344 297.613281 L 28.652344 660.449219 C 28.652344 672.808594 39.347656 682.867188 54.800781 682.867188 L 289.632812 670.144531 L 259.484375 758.148438 L 227.585938 758.351562 C 217.636719 758.351562 209.542969 764.824219 209.542969 772.78125 C 209.542969 780.734375 217.636719 787.207031 227.585938 787.207031 L 494.742188 777.015625 C 504.683594 777.015625 486.070312 682.867188 486.070312 682.867188 C 486.070312 682.867188 720.160156 295.257812 704.707031 295.257812 " fill-opacity="1" fill-rule="nonzero"/><path fill="#ffffff" d="M 481.871094 636.476562 L 316.144531 636.476562 L 269.125 773.71875 L 528.882812 773.71875 L 481.871094 636.476562 " fill-opacity="1" fill-rule="nonzero"/><path fill="#ffffff" d="M 729.878906 276.457031 L 68.136719 276.457031 C 53.53125 276.457031 43.574219 285.929688 43.574219 297.609375 L 43.574219 660.449219 C 43.574219 672.128906 53.53125 681.601562 68.136719 681.601562 L 729.878906 681.601562 C 744.480469 681.601562 754.441406 672.128906 754.441406 660.449219 L 754.441406 297.609375 C 754.441406 285.929688 744.480469 276.457031 729.878906 276.457031 " fill-opacity="1" fill-rule="nonzero"/><path fill="#ffffff" d="M 557.09375 759.621094 L 240.917969 759.621094 C 231.828125 759.621094 224.460938 765.515625 224.460938 772.78125 C 224.460938 780.050781 231.828125 785.9375 240.917969 785.9375 L 557.09375 785.9375 C 566.179688 785.9375 573.546875 780.050781 573.546875 772.78125 C 573.546875 765.515625 566.179688 759.621094 557.09375 759.621094 " fill-opacity="1" fill-rule="nonzero"/><path fill="#ffffff" d="M 522.25 754.335938 L 509.035156 715.777344 L 522.25 754.335938 " fill-opacity="1" fill-rule="nonzero"/><path fill="#000000" d="M 522.242188 755.703125 C 521.679688 755.703125 521.152344 755.347656 520.957031 754.785156 L 507.746094 716.21875 C 507.503906 715.503906 507.882812 714.730469 508.589844 714.484375 C 509.308594 714.242188 510.085938 714.621094 510.328125 715.335938 L 523.539062 753.894531 C 523.785156 754.609375 523.402344 755.386719 522.6875 755.628906 C 522.539062 755.683594 522.390625 755.703125 522.242188 755.703125 " fill-opacity="1" fill-rule="nonzero"/><path fill="#000000" d="M 557.089844 787.304688 C 556.339844 787.304688 555.722656 786.695312 555.722656 785.9375 C 555.722656 785.1875 556.339844 784.574219 557.089844 784.574219 C 565.414062 784.574219 572.179688 779.28125 572.179688 772.78125 C 572.179688 766.277344 565.414062 760.988281 557.089844 760.988281 L 492.394531 760.988281 C 491.636719 760.988281 491.027344 760.375 491.027344 759.621094 C 491.027344 758.867188 491.636719 758.253906 492.394531 758.253906 L 557.089844 758.253906 C 566.917969 758.253906 574.910156 764.769531 574.910156 772.78125 C 574.910156 780.789062 566.917969 787.304688 557.089844 787.304688 " fill-opacity="1" fill-rule="nonzero"/><path fill="#000000" d="M 534.097656 787.304688 L 450.691406 787.304688 C 449.941406 787.304688 449.328125 786.691406 449.328125 785.9375 C 449.328125 785.1875 449.941406 784.574219 450.691406 784.574219 L 534.097656 784.574219 C 534.851562 784.574219 535.464844 785.1875 535.464844 785.9375 C 535.464844 786.691406 534.851562 787.304688 534.097656 787.304688 " fill-opacity="1" fill-rule="nonzero"/><path fill="#000000" d="M 404.167969 277.828125 L 373.0625 277.828125 C 372.308594 277.828125 371.699219 277.214844 371.699219 276.460938 C 371.699219 275.707031 372.308594 275.09375 373.0625 275.09375 L 404.167969 275.09375 C 404.921875 275.09375 405.53125 275.707031 405.53125 276.460938 C 405.53125 277.214844 404.921875 277.828125 404.167969 277.828125 " fill-opacity="1" fill-rule="nonzero"/><path fill="#000000" d="M 729.875 682.964844 L 68.136719 682.964844 C 53.355469 682.964844 42.207031 673.285156 42.207031 660.449219 L 42.207031 297.613281 C 42.207031 284.773438 53.355469 275.097656 68.136719 275.097656 L 182.847656 275.097656 C 183.601562 275.097656 184.214844 275.703125 184.214844 276.460938 C 184.214844 277.214844 183.601562 277.828125 182.847656 277.828125 L 68.136719 277.828125 C 54.914062 277.828125 44.941406 286.332031 44.941406 297.613281 L 44.941406 660.449219 C 44.941406 671.726562 54.914062 680.234375 68.136719 680.234375 L 729.875 680.234375 C 743.097656 680.234375 753.074219 671.726562 753.074219 660.449219 L 753.074219 297.613281 C 753.074219 286.332031 743.097656 277.828125 729.875 277.828125 L 426.417969 277.828125 C 425.664062 277.828125 425.054688 277.214844 425.054688 276.460938 C 425.054688 275.703125 425.664062 275.097656 426.417969 275.097656 L 729.875 275.097656 C 744.65625 275.097656 755.804688 284.773438 755.804688 297.613281 L 755.804688 660.449219 C 755.804688 673.285156 744.65625 682.964844 729.875 682.964844 " fill-opacity="1" fill-rule="nonzero"/><path fill="#fdd8e9" d="M 732.8125 652.019531 C 732.8125 657.214844 728.605469 661.421875 723.410156 661.421875 L 75.597656 661.421875 C 70.402344 661.421875 66.195312 657.214844 66.195312 652.019531 L 66.195312 305.582031 C 66.195312 300.390625 70.402344 296.179688 75.597656 296.179688 L 723.410156 296.179688 C 728.605469 296.179688 732.8125 300.390625 732.8125 305.582031 L 732.8125 652.019531 " fill-opacity="1" fill-rule="nonzero"/><path fill="#000000" d="M 719.664062 664.167969 L 78.347656 664.167969 C 70.34375 664.167969 63.832031 658.835938 63.832031 652.28125 C 63.832031 651.53125 64.445312 650.917969 65.199219 650.917969 C 65.953125 650.917969 66.566406 651.53125 66.566406 652.28125 C 66.566406 657.328125 71.851562 661.4375 78.347656 661.4375 L 719.664062 661.4375 C 726.15625 661.4375 731.449219 657.328125 731.449219 652.28125 L 731.449219 509.324219 C 731.449219 508.566406 732.058594 507.957031 732.8125 507.957031 C 733.570312 507.957031 734.179688 508.566406 734.179688 509.324219 L 734.179688 652.28125 C 734.179688 658.835938 727.664062 664.167969 719.664062 664.167969 " fill-opacity="1" fill-rule="nonzero"/><path fill="#000000" d="M 65.199219 347.152344 C 64.445312 347.152344 63.835938 346.542969 63.835938 345.789062 L 63.835938 323.480469 C 63.835938 322.726562 64.445312 322.113281 65.199219 322.113281 C 65.953125 322.113281 66.566406 322.726562 66.566406 323.480469 L 66.566406 345.789062 C 66.566406 346.542969 65.953125 347.152344 65.199219 347.152344 " fill-opacity="1" fill-rule="nonzero"/><path fill="#000000" d="M 65.199219 307.140625 C 64.445312 307.140625 63.835938 306.53125 63.835938 305.777344 C 63.835938 299.226562 70.34375 293.894531 78.347656 293.894531 L 116.488281 293.894531 C 117.242188 293.894531 117.855469 294.507812 117.855469 295.257812 C 117.855469 296.015625 117.242188 296.625 116.488281 296.625 L 78.347656 296.625 C 71.851562 296.625 66.566406 300.734375 66.566406 305.777344 C 66.566406 306.53125 65.953125 307.140625 65.199219 307.140625 " fill-opacity="1" fill-rule="nonzero"/><path fill="#000000" d="M 732.8125 324.847656 C 732.058594 324.847656 731.449219 324.238281 731.449219 323.480469 L 731.449219 305.777344 C 731.449219 300.730469 726.15625 296.628906 719.664062 296.628906 L 680.4375 296.628906 C 679.6875 296.628906 679.074219 296.019531 679.074219 295.261719 C 679.074219 294.507812 679.6875 293.898438 680.4375 293.898438 L 719.664062 293.898438 C 727.664062 293.898438 734.179688 299.226562 734.179688 305.777344 L 734.179688 323.480469 C 734.179688 324.238281 733.570312 324.847656 732.8125 324.847656 " fill-opacity="1" fill-rule="nonzero"/><path fill="#000000" d="M 732.8125 374.265625 C 732.058594 374.265625 731.449219 373.65625 731.449219 372.902344 L 731.449219 348.246094 C 731.449219 347.492188 732.058594 346.878906 732.8125 346.878906 C 733.570312 346.878906 734.179688 347.492188 734.179688 348.246094 L 734.179688 372.902344 C 734.179688 373.65625 733.570312 374.265625 732.8125 374.265625 " fill-opacity="1" fill-rule="nonzero"/><path fill="#000000" d="M 513.128906 108.03125 C 521.566406 122.421875 541.367188 125.253906 545.808594 125.753906 C 563.851562 127.777344 577.179688 119.097656 580.78125 116.570312 C 587.03125 120.414062 602.179688 128.503906 621.941406 126.984375 C 637.574219 125.785156 663.910156 117.988281 669.011719 99.710938 C 675.121094 77.832031 647.585938 52.429688 623.972656 43.460938 C 604.167969 35.929688 573.972656 34.972656 559.519531 50.203125 C 554.210938 55.796875 553.394531 61.085938 547.125 62.910156 C 535.871094 66.191406 527.597656 52.347656 513.015625 53.050781 C 504.265625 53.472656 497.433594 58.925781 493.21875 63.167969 C 482.457031 66.722656 475.855469 73.871094 476.660156 79.617188 C 477.496094 85.605469 486.253906 89.234375 487.957031 89.941406 C 496.828125 93.621094 501.53125 89.910156 506.78125 93.757812 C 511.433594 97.175781 509.546875 101.921875 513.128906 108.03125 " fill-opacity="1" fill-rule="nonzero"/><path fill="#ffffff" d="M 524.703125 122.824219 C 524.703125 122.824219 480.414062 136.972656 458.882812 122.824219 C 448.753906 116.175781 411.074219 69.191406 402.898438 64.847656 C 397.925781 62.203125 390.210938 58.238281 384.917969 55.535156 C 381.226562 53.652344 376.914062 53.445312 373.066406 54.976562 L 351.054688 63.730469 C 351.054688 63.730469 357.460938 68.875 367.898438 66.816406 C 374.628906 65.492188 381.597656 66.167969 387.796875 69.105469 L 388.21875 69.304688 L 368.445312 75.457031 C 368.445312 75.457031 371.445312 80.453125 382.042969 78.535156 C 387.636719 77.519531 394.378906 78.777344 399.496094 80.1875 L 399.859375 80.378906 C 399.859375 80.378906 418.761719 132.855469 446.484375 149.277344 C 486.816406 173.171875 529.203125 158.152344 529.203125 158.152344 L 524.703125 122.824219 " fill-opacity="1" fill-rule="nonzero"/><path fill="#000000" d="M 386.425781 76.808594 C 391.195312 76.808594 396.148438 77.851562 399.863281 78.875 C 399.953125 78.902344 400.042969 78.9375 400.125 78.980469 L 400.488281 79.167969 C 400.789062 79.328125 401.027344 79.59375 401.140625 79.921875 C 401.332031 80.441406 420.203125 132.125 447.175781 148.101562 C 483.046875 169.359375 520.984375 159.257812 527.703125 157.203125 L 523.554688 124.605469 C 515.320312 127.023438 477.898438 136.960938 458.128906 123.972656 C 452.945312 120.566406 441.492188 107.726562 429.363281 94.132812 C 417.949219 81.347656 406.152344 68.125 402.253906 66.054688 C 397.34375 63.445312 389.777344 59.554688 384.292969 56.753906 C 380.957031 55.050781 377.050781 54.867188 373.566406 56.25 L 354.117188 63.984375 C 356.675781 65.222656 361.351562 66.714844 367.632812 65.476562 C 374.878906 64.046875 382.054688 64.878906 388.378906 67.875 L 388.800781 68.070312 C 389.3125 68.3125 389.617188 68.839844 389.582031 69.402344 C 389.539062 69.964844 389.160156 70.441406 388.625 70.613281 L 371.082031 76.070312 C 372.734375 77.121094 375.976562 78.246094 381.796875 77.1875 C 383.285156 76.921875 384.847656 76.808594 386.425781 76.808594 Z M 497.417969 164.105469 C 482.359375 164.105469 463.8125 161.136719 445.789062 150.457031 C 419.199219 134.703125 401.023438 87.464844 398.78125 81.410156 C 394.125 80.15625 387.609375 78.917969 382.285156 79.875 C 370.890625 81.945312 367.417969 76.402344 367.273438 76.160156 C 367.058594 75.800781 367.023438 75.367188 367.171875 74.972656 C 367.320312 74.582031 367.640625 74.277344 368.042969 74.152344 L 384.210938 69.125 C 379.1875 67.402344 373.703125 67.070312 368.160156 68.15625 C 357.226562 70.3125 350.480469 65.023438 350.199219 64.800781 C 349.820312 64.496094 349.628906 64.011719 349.707031 63.527344 C 349.773438 63.050781 350.097656 62.644531 350.550781 62.460938 L 372.554688 53.710938 C 376.773438 52.035156 381.503906 52.253906 385.539062 54.320312 C 391.03125 57.125 398.605469 61.023438 403.539062 63.640625 C 407.867188 65.941406 419.296875 78.757812 431.394531 92.3125 C 442.878906 105.179688 454.75 118.476562 459.625 121.6875 C 480.375 135.320312 523.847656 121.664062 524.289062 121.523438 C 524.667969 121.402344 525.09375 121.457031 525.4375 121.675781 C 525.78125 121.894531 526.003906 122.253906 526.058594 122.65625 L 530.558594 157.980469 C 530.636719 158.621094 530.261719 159.226562 529.65625 159.441406 C 529.414062 159.523438 516.109375 164.105469 497.417969 164.105469 " fill-opacity="1" fill-rule="nonzero"/><path fill="#000000" d="M 618.207031 210.796875 C 618.207031 210.796875 579.683594 236.957031 525.929688 229.253906 C 525.929688 229.253906 533.195312 215.21875 545.613281 210.183594 C 558.035156 205.144531 618.207031 210.796875 618.207031 210.796875 " fill-opacity="1" fill-rule="nonzero"/><path fill="#000000" d="M 671.21875 276.785156 C 668.824219 218.113281 635.003906 196.492188 635.003906 196.492188 L 565.300781 213.878906 L 536.546875 276.785156 L 671.21875 276.785156 " fill-opacity="1" fill-rule="nonzero"/><path fill="#bf1162" d="M 526.203125 117.320312 L 562.847656 99.015625 C 572.136719 94.375 583.386719 96.472656 590.359375 104.171875 C 606.34375 121.824219 633.890625 155.9375 647.734375 194.785156 C 647.734375 194.785156 622.839844 226.542969 589.910156 224.335938 C 556.980469 222.117188 537.574219 220 525.933594 229.253906 C 525.933594 229.253906 516.238281 180.554688 514.285156 137.542969 C 513.902344 129.046875 518.585938 121.125 526.203125 117.320312 " fill-opacity="1" fill-rule="nonzero"/><path fill="#000000" d="M 584.5625 216.855469 C 583.871094 216.855469 583.269531 216.324219 583.203125 215.617188 C 581.972656 202.414062 577.855469 193.03125 570.964844 187.722656 C 565.710938 183.683594 560.140625 182.882812 554.238281 182.035156 C 547.957031 181.128906 541.46875 180.203125 534.839844 175.390625 C 527.882812 170.34375 522.933594 162.542969 520.113281 152.21875 C 519.914062 151.492188 520.34375 150.738281 521.074219 150.539062 C 521.800781 150.339844 522.550781 150.773438 522.75 151.5 C 525.398438 161.214844 530.007812 168.511719 536.441406 173.179688 C 542.523438 177.59375 548.671875 178.476562 554.621094 179.332031 C 560.613281 180.191406 566.808594 181.078125 572.628906 185.5625 C 580.148438 191.347656 584.617188 201.371094 585.921875 215.363281 C 585.996094 216.117188 585.445312 216.78125 584.695312 216.847656 C 584.648438 216.855469 584.609375 216.855469 584.5625 216.855469 " fill-opacity="1" fill-rule="nonzero"/><path fill="#ffffff" d="M 642.203125 274.777344 L 564.8125 116.5625 C 561.683594 110.160156 564.316406 102.4375 570.703125 99.28125 C 576.644531 96.347656 583.835938 98.371094 587.367188 103.972656 C 597.695312 120.332031 617.460938 153.265625 621.902344 172.253906 C 627.976562 198.242188 636.800781 211.105469 642.203125 219.382812 C 645.6875 224.730469 650.0625 243.707031 652.722656 256.480469 C 654.070312 262.957031 660.710938 266.863281 667.019531 264.871094 L 667.039062 264.867188 C 672.691406 263.085938 678.847656 264.125 683.601562 267.65625 L 691.925781 273.84375 C 692.828125 274.515625 692.335938 275.949219 691.214844 275.921875 L 642.203125 274.777344 " fill-opacity="1" fill-rule="nonzero"/><path fill="#000000" d="M 643.0625 273.429688 L 690.570312 274.535156 L 682.792969 268.75 C 678.402344 265.484375 672.667969 264.527344 667.457031 266.164062 C 664.0625 267.234375 660.378906 266.816406 657.328125 265.03125 C 654.273438 263.242188 652.109375 260.226562 651.382812 256.757812 C 647.289062 237.050781 643.617188 224.042969 641.058594 220.125 L 640.476562 219.234375 C 634.90625 210.730469 626.484375 197.867188 620.574219 172.5625 C 616.238281 154.015625 597.1875 122.085938 586.214844 104.699219 C 583.046875 99.675781 576.636719 97.871094 571.308594 100.503906 C 565.613281 103.320312 563.25 110.25 566.042969 115.960938 Z M 691.246094 277.285156 C 691.222656 277.285156 691.203125 277.285156 691.183594 277.285156 L 641.339844 276.117188 L 563.585938 117.15625 C 560.140625 110.101562 563.0625 101.53125 570.101562 98.054688 C 576.683594 94.800781 584.609375 97.03125 588.527344 103.242188 C 599.585938 120.769531 618.800781 153.003906 623.234375 171.941406 C 629.035156 196.777344 637.300781 209.394531 642.761719 217.738281 L 643.34375 218.632812 C 646.859375 224.011719 651.113281 242.03125 654.058594 256.203125 C 654.625 258.917969 656.316406 261.273438 658.710938 262.675781 C 661.097656 264.074219 663.972656 264.398438 666.609375 263.566406 C 672.683594 261.652344 679.328125 262.777344 684.417969 266.558594 L 692.746094 272.746094 C 693.628906 273.402344 693.980469 274.546875 693.625 275.585938 C 693.269531 276.605469 692.316406 277.285156 691.246094 277.285156 " fill-opacity="1" fill-rule="nonzero"/><path fill="#ffffff" d="M 526.292969 86.703125 C 526.351562 86.640625 530.097656 82.347656 528.042969 79.214844 C 525.96875 76.046875 521.871094 80.238281 521.871094 80.238281 C 521.871094 80.238281 518.402344 74.222656 510.46875 74.433594 C 510.46875 74.433594 507.089844 82.125 498.441406 82.089844 C 498.441406 82.089844 500.410156 86.589844 503.328125 91.585938 L 504.269531 96.960938 C 504.417969 97.777344 505.320312 98.195312 506.03125 97.777344 C 506.566406 97.457031 507.246094 97.605469 507.621094 98.09375 C 509.757812 100.90625 512.078125 103.257812 514.355469 104.285156 C 517.539062 105.710938 520.390625 104.242188 522.539062 101.496094 C 527.589844 107.625 535.054688 118.046875 531.574219 122.554688 C 531.574219 122.554688 542.941406 125.847656 554.183594 110.390625 L 526.292969 86.703125 " fill-opacity="1" fill-rule="nonzero"/><path fill="#000000" d="M 533.597656 121.488281 C 536.847656 121.675781 544.449219 120.832031 552.320312 110.601562 L 524.34375 86.847656 L 525.265625 85.804688 C 525.3125 85.75 528.339844 82.171875 526.894531 79.964844 C 526.597656 79.507812 526.324219 79.421875 526.121094 79.402344 C 525.082031 79.3125 523.464844 80.566406 522.84375 81.195312 L 521.585938 82.46875 L 520.683594 80.921875 C 520.5625 80.714844 517.71875 76.003906 511.296875 75.804688 C 510.203125 77.742188 506.914062 82.480469 500.511719 83.324219 C 501.351562 85.074219 502.761719 87.910156 504.507812 90.902344 L 504.632812 91.109375 L 505.570312 96.476562 C 506.660156 95.980469 507.96875 96.300781 508.707031 97.273438 C 510.996094 100.277344 513.078125 102.222656 514.910156 103.035156 C 517.78125 104.324219 520.054688 102.457031 521.460938 100.660156 L 522.507812 99.324219 L 523.585938 100.632812 C 531.441406 110.152344 534.789062 117.148438 533.597656 121.488281 Z M 534.359375 124.230469 C 532.496094 124.230469 531.339844 123.917969 531.1875 123.871094 L 529.261719 123.316406 L 530.488281 121.722656 C 532.503906 119.117188 529.511719 112.394531 522.484375 103.609375 C 519.894531 106.167969 516.792969 106.875 513.792969 105.535156 C 511.558594 104.53125 509.144531 102.339844 506.605469 99.019531 C 505.90625 99.382812 505.082031 99.402344 504.363281 99.074219 C 503.605469 98.722656 503.066406 98.027344 502.925781 97.199219 L 502.023438 92.0625 C 499.171875 87.148438 497.273438 82.820312 497.1875 82.636719 L 496.34375 80.710938 L 498.445312 80.722656 C 498.464844 80.722656 498.484375 80.722656 498.507812 80.722656 C 506.074219 80.722656 509.09375 74.160156 509.21875 73.882812 L 509.570312 73.097656 L 510.429688 73.074219 C 516.742188 72.867188 520.480469 76.292969 522.105469 78.238281 C 523.160156 77.445312 524.769531 76.519531 526.386719 76.6875 C 527.175781 76.757812 528.308594 77.136719 529.183594 78.464844 C 531.082031 81.371094 529.328125 84.78125 528.15625 86.503906 L 556.03125 110.167969 L 555.289062 111.195312 C 547.089844 122.464844 538.769531 124.230469 534.359375 124.230469 " fill-opacity="1" fill-rule="nonzero"/><path fill="#000000" d="M 522.53125 102.867188 C 522.226562 102.867188 521.910156 102.765625 521.652344 102.546875 C 521.078125 102.0625 521.003906 101.199219 521.488281 100.621094 C 522.746094 99.128906 523.878906 95.871094 524.210938 94.742188 C 524.421875 94.015625 525.183594 93.601562 525.910156 93.8125 C 526.628906 94.027344 527.042969 94.78125 526.832031 95.507812 C 526.777344 95.695312 525.460938 100.144531 523.578125 102.382812 C 523.308594 102.707031 522.921875 102.867188 522.53125 102.867188 " fill-opacity="1" fill-rule="nonzero"/><path fill="#bf1162" d="M 392.402344 82.125 C 392.402344 73.855469 385.699219 67.148438 377.433594 67.148438 L 144.40625 67.148438 C 136.136719 67.148438 129.4375 73.855469 129.4375 82.125 L 129.4375 236.351562 C 129.4375 244.621094 136.136719 251.324219 144.40625 251.324219 L 377.433594 251.324219 C 385.699219 251.324219 392.402344 244.621094 392.402344 236.351562 L 392.402344 82.125 " fill-opacity="1" fill-rule="nonzero"/><path fill="#fdd8e9" d="M 364.617188 168.210938 C 364.617188 171.117188 362.257812 173.476562 359.355469 173.476562 L 162.484375 173.476562 C 159.582031 173.476562 157.226562 171.117188 157.226562 168.210938 L 157.226562 91.675781 C 157.226562 88.773438 159.582031 86.417969 162.484375 86.417969 L 359.355469 86.417969 C 362.257812 86.417969 364.617188 88.773438 364.617188 91.675781 L 364.617188 168.210938 " fill-opacity="1" fill-rule="nonzero"/><path fill="#000000" d="M 178.160156 137.027344 C 177.808594 137.027344 177.460938 136.894531 177.191406 136.625 L 168.878906 128.3125 C 168.347656 127.777344 168.347656 126.914062 168.878906 126.382812 L 177.191406 118.074219 C 177.726562 117.539062 178.589844 117.539062 179.125 118.074219 C 179.65625 118.605469 179.65625 119.46875 179.125 120.003906 L 171.777344 127.347656 L 179.125 134.695312 C 179.65625 135.226562 179.65625 136.089844 179.125 136.625 C 178.855469 136.894531 178.507812 137.027344 178.160156 137.027344 " fill-opacity="1" fill-rule="nonzero"/><path fill="#000000" d="M 343.683594 137.027344 C 343.335938 137.027344 342.988281 136.894531 342.71875 136.625 C 342.1875 136.089844 342.1875 135.226562 342.71875 134.695312 L 350.066406 127.347656 L 342.71875 120.003906 C 342.1875 119.46875 342.1875 118.605469 342.71875 118.074219 C 343.253906 117.539062 344.117188 117.539062 344.652344 118.074219 L 352.960938 126.382812 C 353.496094 126.914062 353.496094 127.777344 352.960938 128.3125 L 344.652344 136.625 C 344.382812 136.894531 344.035156 137.027344 343.683594 137.027344 " fill-opacity="1" fill-rule="nonzero"/><path fill="#000000" d="M 242.652344 190.359375 C 242.652344 192.335938 241.050781 193.933594 239.074219 193.933594 C 237.101562 193.933594 235.5 192.335938 235.5 190.359375 C 235.5 188.382812 237.101562 186.78125 239.074219 186.78125 C 241.050781 186.78125 242.652344 188.382812 242.652344 190.359375 " fill-opacity="1" fill-rule="nonzero"/><path fill="#000000" d="M 264.5 190.359375 C 264.5 192.335938 262.898438 193.933594 260.921875 193.933594 C 258.945312 193.933594 257.34375 192.335938 257.34375 190.359375 C 257.34375 188.382812 258.945312 186.78125 260.921875 186.78125 C 262.898438 186.78125 264.5 188.382812 264.5 190.359375 " fill-opacity="1" fill-rule="nonzero"/><path fill="#000000" d="M 286.339844 190.359375 C 286.339844 192.335938 284.742188 193.933594 282.765625 193.933594 C 280.789062 193.933594 279.1875 192.335938 279.1875 190.359375 C 279.1875 188.382812 280.789062 186.78125 282.765625 186.78125 C 284.742188 186.78125 286.339844 188.382812 286.339844 190.359375 " fill-opacity="1" fill-rule="nonzero"/><path fill="#fdd8e9" d="M 250.015625 225.535156 C 250.015625 228.441406 247.660156 230.796875 244.753906 230.796875 L 162.488281 230.796875 C 159.582031 230.796875 157.226562 228.441406 157.226562 225.535156 L 157.226562 213.054688 C 157.226562 210.144531 159.582031 207.789062 162.488281 207.789062 L 244.753906 207.789062 C 247.660156 207.789062 250.015625 210.144531 250.015625 213.054688 L 250.015625 225.535156 " fill-opacity="1" fill-rule="nonzero"/><path fill="#fdd8e9" d="M 364.621094 225.535156 C 364.621094 228.441406 362.261719 230.796875 359.359375 230.796875 L 277.089844 230.796875 C 274.183594 230.796875 271.828125 228.441406 271.828125 225.535156 L 271.828125 213.054688 C 271.828125 210.144531 274.183594 207.789062 277.089844 207.789062 L 359.359375 207.789062 C 362.261719 207.789062 364.621094 210.144531 364.621094 213.054688 L 364.621094 225.535156 " fill-opacity="1" fill-rule="nonzero"/><path fill="#bf1162" d="M 390.523438 327.410156 C 390.523438 319.140625 383.820312 312.4375 375.554688 312.4375 L 142.527344 312.4375 C 134.257812 312.4375 127.554688 319.140625 127.554688 327.410156 L 127.554688 481.636719 C 127.554688 489.90625 134.257812 496.609375 142.527344 496.609375 L 375.554688 496.609375 C 383.820312 496.609375 390.523438 489.90625 390.523438 481.636719 L 390.523438 327.410156 " fill-opacity="1" fill-rule="nonzero"/><path fill="#fdd8e9" d="M 218.285156 389.757812 C 218.285156 392.664062 215.933594 395.019531 213.027344 395.019531 L 160.605469 395.019531 C 157.699219 395.019531 155.34375 392.664062 155.34375 389.757812 L 155.34375 337.910156 C 155.34375 335.003906 157.699219 332.648438 160.605469 332.648438 L 213.027344 332.648438 C 215.933594 332.648438 218.285156 335.003906 218.285156 337.910156 L 218.285156 389.757812 " fill-opacity="1" fill-rule="nonzero"/><path fill="#ffffff" d="M 290.511719 389.757812 C 290.511719 392.664062 288.15625 395.019531 285.25 395.019531 L 232.828125 395.019531 C 229.921875 395.019531 227.566406 392.664062 227.566406 389.757812 L 227.566406 337.910156 C 227.566406 335.003906 229.921875 332.648438 232.828125 332.648438 L 285.25 332.648438 C 288.15625 332.648438 290.511719 335.003906 290.511719 337.910156 L 290.511719 389.757812 " fill-opacity="1" fill-rule="nonzero"/><path fill="#fdd8e9" d="M 362.734375 389.757812 C 362.734375 392.664062 360.378906 395.019531 357.472656 395.019531 L 305.054688 395.019531 C 302.148438 395.019531 299.792969 392.664062 299.792969 389.757812 L 299.792969 337.910156 C 299.792969 335.003906 302.148438 332.648438 305.054688 332.648438 L 357.472656 332.648438 C 360.378906 332.648438 362.734375 335.003906 362.734375 337.910156 L 362.734375 389.757812 " fill-opacity="1" fill-rule="nonzero"/><path fill="#fdd8e9" d="M 218.285156 414.546875 C 218.285156 417.453125 215.933594 419.808594 213.027344 419.808594 L 160.605469 419.808594 C 157.699219 419.808594 155.34375 417.453125 155.34375 414.546875 L 155.34375 414.058594 C 155.34375 411.152344 157.699219 408.796875 160.605469 408.796875 L 213.027344 408.796875 C 215.933594 408.796875 218.285156 411.152344 218.285156 414.058594 L 218.285156 414.546875 " fill-opacity="1" fill-rule="nonzero"/><path fill="#ffffff" d="M 288.796875 419.808594 L 229.28125 419.808594 C 228.335938 419.808594 227.566406 419.042969 227.566406 418.09375 L 227.566406 410.507812 C 227.566406 409.566406 228.335938 408.796875 229.28125 408.796875 L 288.796875 408.796875 C 289.742188 408.796875 290.511719 409.566406 290.511719 410.507812 L 290.511719 418.09375 C 290.511719 419.042969 289.742188 419.808594 288.796875 419.808594 " fill-opacity="1" fill-rule="nonzero"/><path fill="#fdd8e9" d="M 362.734375 414.546875 C 362.734375 417.453125 360.378906 419.808594 357.472656 419.808594 L 305.054688 419.808594 C 302.148438 419.808594 299.792969 417.453125 299.792969 414.546875 L 299.792969 414.058594 C 299.792969 411.152344 302.148438 408.796875 305.054688 408.796875 L 357.472656 408.796875 C 360.378906 408.796875 362.734375 411.152344 362.734375 414.058594 L 362.734375 414.546875 " fill-opacity="1" fill-rule="nonzero"/><path fill="#fdd8e9" d="M 211.703125 434.816406 L 198.558594 434.816406 C 197.804688 434.816406 197.191406 434.207031 197.191406 433.453125 C 197.191406 432.699219 197.804688 432.085938 198.558594 432.085938 L 211.703125 432.085938 C 212.457031 432.085938 213.070312 432.699219 213.070312 433.453125 C 213.070312 434.207031 212.457031 434.816406 211.703125 434.816406 " fill-opacity="1" fill-rule="nonzero"/><path fill="#fdd8e9" d="M 191.355469 434.816406 L 161.925781 434.816406 C 161.171875 434.816406 160.5625 434.207031 160.5625 433.453125 C 160.5625 432.699219 161.171875 432.085938 161.925781 432.085938 L 191.355469 432.085938 C 192.109375 432.085938 192.71875 432.699219 192.71875 433.453125 C 192.71875 434.207031 192.109375 434.816406 191.355469 434.816406 " fill-opacity="1" fill-rule="nonzero"/><path fill="#fdd8e9" d="M 211.703125 442.648438 L 180.046875 442.648438 C 179.292969 442.648438 178.679688 442.039062 178.679688 441.28125 C 178.679688 440.527344 179.292969 439.914062 180.046875 439.914062 L 211.703125 439.914062 C 212.457031 439.914062 213.070312 440.527344 213.070312 441.28125 C 213.070312 442.039062 212.457031 442.648438 211.703125 442.648438 " fill-opacity="1" fill-rule="nonzero"/><path fill="#fdd8e9" d="M 172.703125 442.648438 L 161.925781 442.648438 C 161.171875 442.648438 160.5625 442.039062 160.5625 441.28125 C 160.5625 440.527344 161.171875 439.914062 161.925781 439.914062 L 172.703125 439.914062 C 173.460938 439.914062 174.070312 440.527344 174.070312 441.28125 C 174.070312 442.039062 173.460938 442.648438 172.703125 442.648438 " fill-opacity="1" fill-rule="nonzero"/><path fill="#fdd8e9" d="M 211.703125 450.476562 L 161.925781 450.476562 C 161.171875 450.476562 160.5625 449.863281 160.5625 449.109375 C 160.5625 448.355469 161.171875 447.746094 161.925781 447.746094 L 211.703125 447.746094 C 212.457031 447.746094 213.070312 448.355469 213.070312 449.109375 C 213.070312 449.863281 212.457031 450.476562 211.703125 450.476562 " fill-opacity="1" fill-rule="nonzero"/><path fill="#fdd8e9" d="M 283.925781 434.816406 L 255.605469 434.816406 C 254.847656 434.816406 254.238281 434.207031 254.238281 433.453125 C 254.238281 432.699219 254.847656 432.085938 255.605469 432.085938 L 283.925781 432.085938 C 284.683594 432.085938 285.292969 432.699219 285.292969 433.453125 C 285.292969 434.207031 284.683594 434.816406 283.925781 434.816406 " fill-opacity="1" fill-rule="nonzero"/><path fill="#fdd8e9" d="M 248.132812 434.816406 L 234.152344 434.816406 C 233.398438 434.816406 232.785156 434.207031 232.785156 433.453125 C 232.785156 432.699219 233.398438 432.085938 234.152344 432.085938 L 248.132812 432.085938 C 248.886719 432.085938 249.5 432.699219 249.5 433.453125 C 249.5 434.207031 248.886719 434.816406 248.132812 434.816406 " fill-opacity="1" fill-rule="nonzero"/><path fill="#fdd8e9" d="M 283.925781 442.648438 L 234.152344 442.648438 C 233.398438 442.648438 232.785156 442.039062 232.785156 441.28125 C 232.785156 440.527344 233.398438 439.914062 234.152344 439.914062 L 283.925781 439.914062 C 284.683594 439.914062 285.292969 440.527344 285.292969 441.28125 C 285.292969 442.039062 284.683594 442.648438 283.925781 442.648438 " fill-opacity="1" fill-rule="nonzero"/><path fill="#fdd8e9" d="M 283.925781 450.476562 L 274.8125 450.476562 C 274.054688 450.476562 273.445312 449.863281 273.445312 449.109375 C 273.445312 448.355469 274.054688 447.746094 274.8125 447.746094 L 283.925781 447.746094 C 284.683594 447.746094 285.292969 448.355469 285.292969 449.109375 C 285.292969 449.863281 284.683594 450.476562 283.925781 450.476562 " fill-opacity="1" fill-rule="nonzero"/><path fill="#fdd8e9" d="M 267.558594 450.476562 L 234.152344 450.476562 C 233.398438 450.476562 232.785156 449.863281 232.785156 449.109375 C 232.785156 448.355469 233.398438 447.746094 234.152344 447.746094 L 267.558594 447.746094 C 268.3125 447.746094 268.925781 448.355469 268.925781 449.109375 C 268.925781 449.863281 268.3125 450.476562 267.558594 450.476562 " fill-opacity="1" fill-rule="nonzero"/><path fill="#fdd8e9" d="M 356.152344 434.816406 L 326 434.816406 C 325.246094 434.816406 324.632812 434.207031 324.632812 433.453125 C 324.632812 432.699219 325.246094 432.085938 326 432.085938 L 356.152344 432.085938 C 356.902344 432.085938 357.519531 432.699219 357.519531 433.453125 C 357.519531 434.207031 356.902344 434.816406 356.152344 434.816406 " fill-opacity="1" fill-rule="nonzero"/><path fill="#fdd8e9" d="M 317.988281 434.816406 L 306.375 434.816406 C 305.621094 434.816406 305.007812 434.207031 305.007812 433.453125 C 305.007812 432.699219 305.621094 432.085938 306.375 432.085938 L 317.988281 432.085938 C 318.742188 432.085938 319.351562 432.699219 319.351562 433.453125 C 319.351562 434.207031 318.742188 434.816406 317.988281 434.816406 " fill-opacity="1" fill-rule="nonzero"/><path fill="#fdd8e9" d="M 356.152344 442.648438 L 346.753906 442.648438 C 346.003906 442.648438 345.386719 442.039062 345.386719 441.28125 C 345.386719 440.527344 346.003906 439.914062 346.753906 439.914062 L 356.152344 439.914062 C 356.902344 439.914062 357.519531 440.527344 357.519531 441.28125 C 357.519531 442.039062 356.902344 442.648438 356.152344 442.648438 " fill-opacity="1" fill-rule="nonzero"/><path fill="#fdd8e9" d="M 338.925781 442.648438 L 306.375 442.648438 C 305.621094 442.648438 305.007812 442.039062 305.007812 441.28125 C 305.007812 440.527344 305.621094 439.914062 306.375 439.914062 L 338.925781 439.914062 C 339.679688 439.914062 340.289062 440.527344 340.289062 441.28125 C 340.289062 442.039062 339.679688 442.648438 338.925781 442.648438 " fill-opacity="1" fill-rule="nonzero"/><path fill="#fdd8e9" d="M 356.152344 450.476562 L 330.1875 450.476562 C 329.433594 450.476562 328.820312 449.863281 328.820312 449.109375 C 328.820312 448.355469 329.433594 447.746094 330.1875 447.746094 L 356.152344 447.746094 C 356.902344 447.746094 357.519531 448.355469 357.519531 449.109375 C 357.519531 449.863281 356.902344 450.476562 356.152344 450.476562 " fill-opacity="1" fill-rule="nonzero"/><path fill="#fdd8e9" d="M 322.652344 450.476562 L 306.375 450.476562 C 305.621094 450.476562 305.007812 449.863281 305.007812 449.109375 C 305.007812 448.355469 305.621094 447.746094 306.375 447.746094 L 322.652344 447.746094 C 323.40625 447.746094 324.015625 448.355469 324.015625 449.109375 C 324.015625 449.863281 323.40625 450.476562 322.652344 450.476562 " fill-opacity="1" fill-rule="nonzero"/><path fill="#000000" d="M 240.773438 471.535156 C 240.773438 473.511719 239.171875 475.113281 237.195312 475.113281 C 235.21875 475.113281 233.617188 473.511719 233.617188 471.535156 C 233.617188 469.558594 235.21875 467.957031 237.195312 467.957031 C 239.171875 467.957031 240.773438 469.558594 240.773438 471.535156 " fill-opacity="1" fill-rule="nonzero"/><path fill="#000000" d="M 262.617188 471.535156 C 262.617188 473.511719 261.015625 475.113281 259.039062 475.113281 C 257.0625 475.113281 255.460938 473.511719 255.460938 471.535156 C 255.460938 469.558594 257.0625 467.957031 259.039062 467.957031 C 261.015625 467.957031 262.617188 469.558594 262.617188 471.535156 " fill-opacity="1" fill-rule="nonzero"/><path fill="#000000" d="M 284.464844 471.535156 C 284.464844 473.511719 282.859375 475.113281 280.882812 475.113281 C 278.90625 475.113281 277.308594 473.511719 277.308594 471.535156 C 277.308594 469.558594 278.90625 467.957031 280.882812 467.957031 C 282.859375 467.957031 284.464844 469.558594 284.464844 471.535156 " fill-opacity="1" fill-rule="nonzero"/><path fill="#bf1162" d="M 692.394531 327.40625 C 692.394531 319.136719 685.691406 312.4375 677.425781 312.4375 L 444.394531 312.4375 C 436.128906 312.4375 429.425781 319.136719 429.425781 327.40625 L 429.425781 481.636719 C 429.425781 489.90625 436.128906 496.609375 444.394531 496.609375 L 677.425781 496.609375 C 685.691406 496.609375 692.394531 489.90625 692.394531 481.636719 L 692.394531 327.40625 " fill-opacity="1" fill-rule="nonzero"/><path fill="#fdd8e9" d="M 574.742188 443.847656 C 574.742188 446.75 572.390625 449.109375 569.488281 449.109375 L 462.476562 449.109375 C 459.570312 449.109375 457.210938 446.75 457.210938 443.847656 L 457.210938 337.910156 C 457.210938 335.003906 459.570312 332.644531 462.476562 332.644531 L 569.488281 332.644531 C 572.390625 332.644531 574.742188 335.003906 574.742188 337.910156 L 574.742188 443.847656 " fill-opacity="1" fill-rule="nonzero"/><path fill="#000000" d="M 659.34375 332.648438 L 606.921875 332.648438 C 604.015625 332.648438 601.65625 335.003906 601.65625 337.90625 L 601.65625 389.757812 C 601.65625 392.664062 604.015625 395.023438 606.921875 395.023438 L 659.34375 395.023438 C 662.246094 395.023438 664.605469 392.664062 664.605469 389.757812 L 664.605469 337.90625 C 664.605469 335.003906 662.246094 332.648438 659.34375 332.648438 Z M 659.34375 335.378906 C 660.738281 335.378906 661.871094 336.511719 661.871094 337.90625 L 661.871094 389.757812 C 661.871094 391.152344 660.738281 392.289062 659.34375 392.289062 L 606.921875 392.289062 C 605.527344 392.289062 604.390625 391.152344 604.390625 389.757812 L 604.390625 337.90625 C 604.390625 336.511719 605.527344 335.378906 606.921875 335.378906 L 659.34375 335.378906 " fill-opacity="1" fill-rule="nonzero"/><path fill="#ffffff" d="M 658.019531 413.34375 L 644.875 413.34375 C 644.121094 413.34375 643.507812 412.734375 643.507812 411.976562 C 643.507812 411.226562 644.121094 410.613281 644.875 410.613281 L 658.019531 410.613281 C 658.773438 410.613281 659.386719 411.226562 659.386719 411.976562 C 659.386719 412.734375 658.773438 413.34375 658.019531 413.34375 " fill-opacity="1" fill-rule="nonzero"/><path fill="#ffffff" d="M 637.667969 413.34375 L 608.246094 413.34375 C 607.488281 413.34375 606.875 412.734375 606.875 411.980469 C 606.875 411.230469 607.488281 410.613281 608.246094 410.613281 L 637.667969 410.613281 C 638.425781 410.613281 639.035156 411.230469 639.035156 411.980469 C 639.035156 412.734375 638.425781 413.34375 637.667969 413.34375 " fill-opacity="1" fill-rule="nonzero"/><path fill="#ffffff" d="M 658.019531 421.171875 L 626.367188 421.171875 C 625.613281 421.171875 625 420.5625 625 419.808594 C 625 419.054688 625.613281 418.441406 626.367188 418.441406 L 658.019531 418.441406 C 658.773438 418.441406 659.386719 419.054688 659.386719 419.808594 C 659.386719 420.5625 658.773438 421.171875 658.019531 421.171875 " fill-opacity="1" fill-rule="nonzero"/><path fill="#ffffff" d="M 619.019531 421.175781 L 608.246094 421.175781 C 607.492188 421.175781 606.878906 420.5625 606.878906 419.808594 C 606.878906 419.058594 607.492188 418.441406 608.246094 418.441406 L 619.019531 418.441406 C 619.773438 418.441406 620.386719 419.058594 620.386719 419.808594 C 620.386719 420.5625 619.773438 421.175781 619.019531 421.175781 " fill-opacity="1" fill-rule="nonzero"/><path fill="#ffffff" d="M 658.019531 436.578125 L 644.875 436.578125 C 644.121094 436.578125 643.507812 435.964844 643.507812 435.207031 C 643.507812 434.457031 644.121094 433.84375 644.875 433.84375 L 658.019531 433.84375 C 658.773438 433.84375 659.386719 434.457031 659.386719 435.207031 C 659.386719 435.964844 658.773438 436.578125 658.019531 436.578125 " fill-opacity="1" fill-rule="nonzero"/><path fill="#ffffff" d="M 637.667969 436.578125 L 608.246094 436.578125 C 607.488281 436.578125 606.875 435.964844 606.875 435.210938 C 606.875 434.460938 607.488281 433.847656 608.246094 433.847656 L 637.667969 433.847656 C 638.425781 433.847656 639.035156 434.460938 639.035156 435.210938 C 639.035156 435.964844 638.425781 436.578125 637.667969 436.578125 " fill-opacity="1" fill-rule="nonzero"/><path fill="#ffffff" d="M 658.019531 444.40625 L 626.367188 444.40625 C 625.613281 444.40625 625 443.792969 625 443.039062 C 625 442.289062 625.613281 441.671875 626.367188 441.671875 L 658.019531 441.671875 C 658.773438 441.671875 659.386719 442.289062 659.386719 443.039062 C 659.386719 443.792969 658.773438 444.40625 658.019531 444.40625 " fill-opacity="1" fill-rule="nonzero"/><path fill="#ffffff" d="M 619.019531 444.40625 L 608.246094 444.40625 C 607.492188 444.40625 606.878906 443.792969 606.878906 443.039062 C 606.878906 442.289062 607.492188 441.671875 608.246094 441.671875 L 619.019531 441.671875 C 619.773438 441.671875 620.386719 442.289062 620.386719 443.039062 C 620.386719 443.792969 619.773438 444.40625 619.019531 444.40625 " fill-opacity="1" fill-rule="nonzero"/><path fill="#ffffff" d="M 658.019531 429 L 608.246094 429 C 607.492188 429 606.882812 428.390625 606.882812 427.636719 C 606.882812 426.882812 607.492188 426.269531 608.246094 426.269531 L 658.019531 426.269531 C 658.773438 426.269531 659.386719 426.882812 659.386719 427.636719 C 659.386719 428.390625 658.773438 429 658.019531 429 " fill-opacity="1" fill-rule="nonzero"/><path fill="#000000" d="M 542.640625 471.535156 C 542.640625 473.511719 541.039062 475.113281 539.0625 475.113281 C 537.089844 475.113281 535.488281 473.511719 535.488281 471.535156 C 535.488281 469.558594 537.089844 467.957031 539.0625 467.957031 C 541.039062 467.957031 542.640625 469.558594 542.640625 471.535156 " fill-opacity="1" fill-rule="nonzero"/><path fill="#000000" d="M 564.484375 471.535156 C 564.484375 473.511719 562.882812 475.113281 560.90625 475.113281 C 558.933594 475.113281 557.332031 473.511719 557.332031 471.535156 C 557.332031 469.558594 558.933594 467.957031 560.90625 467.957031 C 562.882812 467.957031 564.484375 469.558594 564.484375 471.535156 " fill-opacity="1" fill-rule="nonzero"/><path fill="#000000" d="M 586.328125 471.535156 C 586.328125 473.511719 584.726562 475.113281 582.75 475.113281 C 580.777344 475.113281 579.171875 473.511719 579.171875 471.535156 C 579.171875 469.558594 580.777344 467.957031 582.75 467.957031 C 584.726562 467.957031 586.328125 469.558594 586.328125 471.535156 " fill-opacity="1" fill-rule="nonzero"/><path fill="#bf1162" d="M 692.394531 552.082031 C 692.394531 543.8125 685.691406 537.109375 677.425781 537.109375 L 444.394531 537.109375 C 436.128906 537.109375 429.425781 543.8125 429.425781 552.082031 L 429.425781 706.308594 C 429.425781 714.578125 436.128906 721.28125 444.394531 721.28125 L 677.425781 721.28125 C 685.691406 721.28125 692.394531 714.578125 692.394531 706.308594 L 692.394531 552.082031 " fill-opacity="1" fill-rule="nonzero"/><path fill="#ffffff" d="M 594.964844 631.410156 C 594.964844 634.316406 592.609375 636.671875 589.703125 636.671875 L 537.28125 636.671875 C 534.375 636.671875 532.015625 634.316406 532.015625 631.410156 L 532.015625 579.5625 C 532.015625 576.65625 534.375 574.300781 537.28125 574.300781 L 589.703125 574.300781 C 592.609375 574.300781 594.964844 576.65625 594.964844 579.5625 L 594.964844 631.410156 " fill-opacity="1" fill-rule="nonzero"/><path fill="#ffffff" d="M 588.382812 654.996094 L 575.234375 654.996094 C 574.480469 654.996094 573.867188 654.386719 573.867188 653.632812 C 573.867188 652.878906 574.480469 652.269531 575.234375 652.269531 L 588.382812 652.269531 C 589.136719 652.269531 589.746094 652.878906 589.746094 653.632812 C 589.746094 654.386719 589.136719 654.996094 588.382812 654.996094 " fill-opacity="1" fill-rule="nonzero"/><path fill="#ffffff" d="M 568.039062 654.996094 L 538.609375 654.996094 C 537.855469 654.996094 537.242188 654.386719 537.242188 653.628906 C 537.242188 652.878906 537.855469 652.269531 538.609375 652.269531 L 568.039062 652.269531 C 568.792969 652.269531 569.402344 652.878906 569.402344 653.628906 C 569.402344 654.386719 568.792969 654.996094 568.039062 654.996094 " fill-opacity="1" fill-rule="nonzero"/><path fill="#fdd8e9" d="M 588.613281 680.882812 C 588.613281 684.078125 586.027344 686.664062 582.832031 686.664062 L 547.75 686.664062 C 544.554688 686.664062 541.960938 684.078125 541.960938 680.882812 C 541.960938 677.6875 544.554688 675.101562 547.75 675.101562 L 582.832031 675.101562 C 586.027344 675.101562 588.613281 677.6875 588.613281 680.882812 " fill-opacity="1" fill-rule="nonzero"/><path fill="#bf1162" d="M 551.164062 680.882812 C 551.164062 682.03125 550.234375 682.96875 549.074219 682.96875 C 547.925781 682.96875 546.984375 682.03125 546.984375 680.882812 C 546.984375 679.730469 547.925781 678.792969 549.074219 678.792969 C 550.234375 678.792969 551.164062 679.730469 551.164062 680.882812 " fill-opacity="1" fill-rule="nonzero"/><path fill="#bf1162" d="M 558.949219 680.882812 C 558.949219 682.03125 558.015625 682.96875 556.859375 682.96875 C 555.707031 682.96875 554.773438 682.03125 554.773438 680.882812 C 554.773438 679.730469 555.707031 678.792969 556.859375 678.792969 C 558.015625 678.792969 558.949219 679.730469 558.949219 680.882812 " fill-opacity="1" fill-rule="nonzero"/><path fill="#bf1162" d="M 566.730469 680.882812 C 566.730469 682.03125 565.800781 682.96875 564.640625 682.96875 C 563.492188 682.96875 562.554688 682.03125 562.554688 680.882812 C 562.554688 679.730469 563.492188 678.792969 564.640625 678.792969 C 565.800781 678.792969 566.730469 679.730469 566.730469 680.882812 " fill-opacity="1" fill-rule="nonzero"/><path fill="#000000" d="M 574.515625 680.882812 C 574.515625 682.03125 573.582031 682.96875 572.425781 682.96875 C 571.273438 682.96875 570.335938 682.03125 570.335938 680.882812 C 570.335938 679.730469 571.273438 678.792969 572.425781 678.792969 C 573.582031 678.792969 574.515625 679.730469 574.515625 680.882812 " fill-opacity="1" fill-rule="nonzero"/><path fill="#bf1162" d="M 582.296875 680.882812 C 582.296875 682.03125 581.363281 682.96875 580.210938 682.96875 C 579.054688 682.96875 578.121094 682.03125 578.121094 680.882812 C 578.121094 679.730469 579.054688 678.792969 580.210938 678.792969 C 581.363281 678.792969 582.296875 679.730469 582.296875 680.882812 " fill-opacity="1" fill-rule="nonzero"/><path fill="#000000" d="M 666.785156 577.492188 L 642.332031 577.492188 C 641.578125 577.492188 640.964844 576.882812 640.964844 576.128906 C 640.964844 575.375 641.578125 574.761719 642.332031 574.761719 L 666.785156 574.761719 C 667.539062 574.761719 668.152344 575.375 668.152344 576.128906 C 668.152344 576.882812 667.539062 577.492188 666.785156 577.492188 " fill-opacity="1" fill-rule="nonzero"/><path fill="#000000" d="M 635.125 577.496094 L 617.003906 577.496094 C 616.253906 577.496094 615.636719 576.882812 615.636719 576.128906 C 615.636719 575.378906 616.253906 574.761719 617.003906 574.761719 L 635.125 574.761719 C 635.882812 574.761719 636.492188 575.378906 636.492188 576.128906 C 636.492188 576.882812 635.882812 577.496094 635.125 577.496094 " fill-opacity="1" fill-rule="nonzero"/><path fill="#000000" d="M 666.785156 585.324219 L 654.625 585.324219 C 653.871094 585.324219 653.257812 584.710938 653.257812 583.957031 C 653.257812 583.203125 653.871094 582.589844 654.625 582.589844 L 666.785156 582.589844 C 667.539062 582.589844 668.152344 583.203125 668.152344 583.957031 C 668.152344 584.710938 667.539062 585.324219 666.785156 585.324219 " fill-opacity="1" fill-rule="nonzero"/><path fill="#000000" d="M 647.28125 585.324219 L 617.003906 585.324219 C 616.253906 585.324219 615.636719 584.710938 615.636719 583.957031 C 615.636719 583.203125 616.253906 582.589844 617.003906 582.589844 L 647.28125 582.589844 C 648.039062 582.589844 648.648438 583.203125 648.648438 583.957031 C 648.648438 584.710938 648.039062 585.324219 647.28125 585.324219 " fill-opacity="1" fill-rule="nonzero"/><path fill="#000000" d="M 666.785156 593.152344 L 617.007812 593.152344 C 616.253906 593.152344 615.644531 592.539062 615.644531 591.785156 C 615.644531 591.03125 616.253906 590.417969 617.007812 590.417969 L 666.785156 590.417969 C 667.539062 590.417969 668.152344 591.03125 668.152344 591.785156 C 668.152344 592.539062 667.539062 593.152344 666.785156 593.152344 " fill-opacity="1" fill-rule="nonzero"/><path fill="#000000" d="M 510.628906 577.496094 L 486.175781 577.496094 C 485.421875 577.496094 484.8125 576.882812 484.8125 576.128906 C 484.8125 575.375 485.421875 574.761719 486.175781 574.761719 L 510.628906 574.761719 C 511.386719 574.761719 511.996094 575.375 511.996094 576.128906 C 511.996094 576.882812 511.386719 577.496094 510.628906 577.496094 " fill-opacity="1" fill-rule="nonzero"/><path fill="#000000" d="M 478.976562 577.496094 L 460.851562 577.496094 C 460.101562 577.496094 459.492188 576.882812 459.492188 576.128906 C 459.492188 575.375 460.101562 574.761719 460.851562 574.761719 L 478.976562 574.761719 C 479.730469 574.761719 480.339844 575.375 480.339844 576.128906 C 480.339844 576.882812 479.730469 577.496094 478.976562 577.496094 " fill-opacity="1" fill-rule="nonzero"/><path fill="#000000" d="M 510.628906 585.324219 L 495.742188 585.324219 C 494.988281 585.324219 494.378906 584.710938 494.378906 583.957031 C 494.378906 583.203125 494.988281 582.589844 495.742188 582.589844 L 510.628906 582.589844 C 511.386719 582.589844 511.996094 583.203125 511.996094 583.957031 C 511.996094 584.710938 511.386719 585.324219 510.628906 585.324219 " fill-opacity="1" fill-rule="nonzero"/><path fill="#000000" d="M 488.398438 585.324219 L 460.851562 585.324219 C 460.101562 585.324219 459.492188 584.710938 459.492188 583.957031 C 459.492188 583.203125 460.101562 582.589844 460.851562 582.589844 L 488.398438 582.589844 C 489.152344 582.589844 489.765625 583.203125 489.765625 583.957031 C 489.765625 584.710938 489.152344 585.324219 488.398438 585.324219 " fill-opacity="1" fill-rule="nonzero"/><path fill="#000000" d="M 458.207031 775.617188 L 358.257812 775.617188 L 427.316406 661.660156 C 429.472656 658.097656 433.414062 655.9375 437.75 655.9375 L 518.863281 655.9375 C 524.015625 655.9375 527.390625 661.457031 524.828125 665.6875 L 458.207031 775.617188 " fill-opacity="1" fill-rule="nonzero"/><path fill="#fdd8e9" d="M 456.460938 716.996094 C 453.4375 721.992188 446.628906 726.042969 441.261719 726.042969 C 435.898438 726.042969 433.996094 721.992188 437.023438 716.996094 C 440.046875 712 446.851562 707.953125 452.222656 707.953125 C 457.59375 707.953125 459.492188 712 456.460938 716.996094 " fill-opacity="1" fill-rule="nonzero"/><path fill="#000000" d="M 456.710938 786.859375 L 243.265625 786.859375 C 241.167969 786.859375 239.464844 785.15625 239.464844 783.058594 L 239.464844 774.648438 L 460.507812 774.648438 L 460.507812 783.058594 C 460.507812 785.15625 458.808594 786.859375 456.710938 786.859375 " fill-opacity="1" fill-rule="nonzero"/><path fill="#ffffff" d="M 453.941406 777.101562 L 352.511719 777.101562 C 351.757812 777.101562 351.144531 776.492188 351.144531 775.738281 C 351.144531 774.984375 351.757812 774.371094 352.511719 774.371094 L 453.941406 774.371094 C 454.695312 774.371094 455.304688 774.984375 455.304688 775.738281 C 455.304688 776.492188 454.695312 777.101562 453.941406 777.101562 " fill-opacity="1" fill-rule="nonzero"/><path fill="#000000" d="M 157.964844 574.480469 C 141.933594 578.09375 127.617188 567.148438 122.222656 561.019531 C 118.1875 556.4375 117.902344 553.21875 117.933594 551.714844 C 118.046875 546.621094 122.253906 542.96875 123.917969 541.4375 C 139.273438 527.292969 134.152344 513.324219 147.640625 505.851562 C 154.824219 501.871094 162.183594 503.144531 171.839844 504.667969 C 178.285156 505.683594 200.121094 509.136719 203.179688 520.929688 C 204.84375 527.332031 198.320312 535.117188 185.207031 550.417969 C 172.519531 565.222656 166.015625 572.660156 157.964844 574.480469 " fill-opacity="1" fill-rule="nonzero"/><path fill="#ffffff" d="M 187.054688 533.792969 C 187.054688 533.792969 161.003906 534.921875 153.925781 538.402344 C 146.851562 541.882812 154.921875 560.222656 154.921875 560.222656 C 154.921875 560.222656 143.894531 554.886719 141.777344 562.207031 C 139.664062 569.523438 153.8125 570.753906 153.8125 570.753906 L 120.304688 614.65625 L 170.96875 614.246094 L 180.296875 588.207031 C 180.296875 588.207031 188.867188 592.4375 193.554688 588.851562 C 198.242188 585.265625 200.089844 568.207031 200.089844 568.207031 C 202.761719 566.558594 203.410156 562.953125 201.484375 560.476562 L 198.046875 556.066406 C 195.953125 553.375 194.566406 550.207031 194.023438 546.835938 C 193.292969 542.351562 191.230469 538.1875 188.097656 534.890625 L 187.054688 533.792969 " fill-opacity="1" fill-rule="nonzero"/><path fill="#000000" d="M 147.429688 559.710938 C 146.570312 559.710938 145.761719 559.832031 145.074219 560.140625 C 144.085938 560.585938 143.4375 561.378906 143.089844 562.582031 C 142.789062 563.632812 142.90625 564.496094 143.457031 565.304688 C 145.359375 568.078125 151.664062 569.199219 153.933594 569.394531 C 154.429688 569.4375 154.863281 569.746094 155.0625 570.207031 C 155.265625 570.660156 155.203125 571.1875 154.898438 571.582031 L 123.085938 613.261719 L 170.007812 612.886719 L 179.011719 587.746094 C 179.140625 587.378906 179.425781 587.089844 179.785156 586.941406 C 180.144531 586.796875 180.550781 586.808594 180.902344 586.980469 C 183.078125 588.050781 189.445312 590.277344 192.726562 587.765625 C 196.1875 585.117188 198.234375 572.644531 198.734375 568.058594 C 198.777344 567.640625 199.015625 567.265625 199.375 567.042969 C 200.332031 566.453125 200.96875 565.519531 201.167969 564.410156 C 201.367188 563.304688 201.097656 562.207031 200.40625 561.320312 L 196.96875 556.90625 C 194.738281 554.042969 193.253906 550.640625 192.671875 547.054688 C 191.984375 542.820312 190.058594 538.941406 187.105469 535.828125 L 186.496094 535.1875 C 182.527344 535.382812 160.679688 536.601562 154.53125 539.628906 C 149.71875 541.996094 154.214844 555.222656 156.171875 559.671875 C 156.402344 560.199219 156.28125 560.804688 155.871094 561.203125 C 155.460938 561.601562 154.84375 561.703125 154.328125 561.453125 C 153.101562 560.863281 150.050781 559.710938 147.429688 559.710938 Z M 120.304688 616.015625 C 119.789062 616.015625 119.316406 615.726562 119.085938 615.265625 C 118.851562 614.792969 118.902344 614.238281 119.222656 613.824219 L 151.308594 571.789062 C 148.285156 571.253906 143.320312 569.933594 141.207031 566.847656 C 140.195312 565.378906 139.941406 563.640625 140.464844 561.828125 C 141.042969 559.828125 142.21875 558.425781 143.964844 557.648438 C 146.625 556.460938 150.058594 557.089844 152.496094 557.839844 C 150.382812 552.132812 146.941406 540.316406 153.324219 537.175781 C 160.574219 533.609375 185.921875 532.472656 186.996094 532.429688 C 187.386719 532.414062 187.773438 532.566406 188.046875 532.851562 L 189.085938 533.949219 C 192.421875 537.460938 194.59375 541.839844 195.371094 546.617188 C 195.878906 549.75 197.175781 552.726562 199.125 555.226562 L 202.558594 559.640625 C 203.71875 561.125 204.191406 563.039062 203.855469 564.898438 C 203.5625 566.523438 202.671875 567.976562 201.378906 568.976562 C 200.960938 572.449219 199.023438 586.386719 194.386719 589.9375 C 190.265625 593.089844 183.898438 591.144531 181.089844 590.039062 L 172.257812 614.707031 C 172.0625 615.246094 171.554688 615.605469 170.980469 615.613281 L 120.316406 616.015625 C 120.3125 616.015625 120.308594 616.015625 120.304688 616.015625 " fill-opacity="1" fill-rule="nonzero"/><path fill="#000000" d="M 180.296875 589.574219 C 180.089844 589.574219 179.882812 589.527344 179.6875 589.429688 C 172.710938 585.949219 169.472656 581.144531 169.339844 580.945312 C 168.921875 580.3125 169.09375 579.464844 169.722656 579.050781 C 170.347656 578.636719 171.195312 578.804688 171.613281 579.433594 C 171.640625 579.472656 174.621094 583.847656 180.90625 586.988281 C 181.582031 587.320312 181.855469 588.140625 181.519531 588.816406 C 181.28125 589.296875 180.796875 589.574219 180.296875 589.574219 " fill-opacity="1" fill-rule="nonzero"/><path fill="#bf1162" d="M 356.273438 585.542969 L 322.726562 590.453125 C 322.726562 590.453125 309.121094 642.714844 274.984375 644.429688 C 258.5625 645.253906 246.136719 640.140625 237.660156 634.609375 C 224.832031 626.238281 210.191406 621.0625 194.921875 619.804688 L 133.578125 614.753906 C 99.679688 611.964844 67.363281 629.617188 51.425781 659.664062 C 34.390625 691.804688 25.03125 734.664062 11.554688 772.796875 C 9.066406 779.828125 14.25 787.207031 21.703125 787.207031 L 172.726562 787.207031 L 208.542969 697.519531 C 226.390625 705.117188 253.886719 711.824219 292.515625 708.265625 C 374.179688 700.742188 356.273438 585.542969 356.273438 585.542969 " fill-opacity="1" fill-rule="nonzero"/><path fill="#000000" d="M 172.726562 788.570312 C 172.558594 788.570312 172.386719 788.542969 172.222656 788.476562 C 171.523438 788.195312 171.179688 787.398438 171.460938 786.699219 L 207.277344 697.015625 C 207.414062 696.671875 207.679688 696.402344 208.019531 696.261719 C 208.359375 696.121094 208.742188 696.121094 209.078125 696.261719 C 225.214844 703.136719 252.765625 710.558594 292.390625 706.902344 C 311.3125 705.164062 326.332031 697.324219 337.03125 683.609375 C 362.085938 651.484375 356.292969 596.375 355.101562 587.089844 L 323.808594 591.675781 C 321.789062 598.835938 307.734375 644.152344 275.054688 645.792969 C 261.035156 646.492188 248.203125 643.117188 236.914062 635.753906 C 224.160156 627.425781 209.597656 622.386719 194.808594 621.167969 L 133.464844 616.113281 C 100.054688 613.351562 68.328125 630.707031 52.632812 660.308594 C 41.394531 681.5 33.328125 708.003906 25.527344 733.644531 C 23.898438 739 22.261719 744.371094 20.597656 749.707031 C 20.371094 750.429688 19.605469 750.832031 18.886719 750.605469 C 18.167969 750.378906 17.765625 749.613281 17.988281 748.894531 C 19.65625 743.5625 21.285156 738.199219 22.914062 732.847656 C 30.753906 707.089844 38.859375 680.453125 50.222656 659.023438 C 66.425781 628.464844 99.195312 610.542969 133.691406 613.390625 L 195.035156 618.441406 C 210.273438 619.699219 225.273438 624.894531 238.410156 633.464844 C 249.203125 640.507812 261.480469 643.734375 274.914062 643.066406 C 307.671875 641.417969 321.269531 590.621094 321.40625 590.105469 C 321.542969 589.578125 321.988281 589.175781 322.527344 589.097656 L 356.074219 584.1875 C 356.816406 584.078125 357.503906 584.585938 357.621094 585.332031 C 357.71875 585.964844 367.1875 649.378906 339.183594 685.289062 C 328.003906 699.625 312.34375 707.8125 292.636719 709.628906 C 253.480469 713.226562 225.878906 706.148438 209.296875 699.320312 L 173.996094 787.714844 C 173.785156 788.25 173.269531 788.570312 172.726562 788.570312 " fill-opacity="1" fill-rule="nonzero"/><path fill="#bf1162" d="M 215.226562 715.386719 C 189.863281 706.984375 176.164062 667.570312 176.164062 667.570312 L 101.492188 682.605469 C 101.492188 682.605469 153.246094 765.199219 188.914062 772.765625 C 211.144531 777.476562 255.808594 756.503906 286.3125 740.03125 C 282.402344 731.386719 276.78125 718.980469 272.609375 709.855469 C 250.308594 715.273438 226.742188 719.199219 215.226562 715.386719 " fill-opacity="1" fill-rule="nonzero"/><path fill="#000000" d="M 195.996094 774.800781 C 193.34375 774.800781 190.878906 774.574219 188.632812 774.097656 C 152.808594 766.503906 102.457031 686.726562 100.332031 683.335938 C 99.933594 682.695312 100.125 681.851562 100.765625 681.449219 C 101.40625 681.054688 102.25 681.246094 102.648438 681.882812 C 103.164062 682.703125 154.503906 764.074219 189.199219 771.425781 C 205.78125 774.949219 239.617188 763.585938 284.542969 739.433594 C 280.761719 731.078125 275.71875 719.949219 271.835938 711.449219 C 243.824219 718.179688 224.640625 719.941406 214.796875 716.683594 C 189.09375 708.171875 175.445312 669.652344 174.875 668.019531 C 174.625 667.304688 175.003906 666.527344 175.714844 666.28125 C 176.429688 666.03125 177.207031 666.40625 177.453125 667.121094 C 177.589844 667.511719 191.234375 706.003906 215.65625 714.089844 C 225 717.179688 244.582031 715.261719 272.285156 708.527344 C 272.921875 708.378906 273.578125 708.691406 273.851562 709.285156 C 277.96875 718.296875 283.578125 730.671875 287.554688 739.472656 C 287.851562 740.121094 287.59375 740.894531 286.960938 741.234375 C 257.671875 757.054688 219.554688 774.800781 195.996094 774.800781 " fill-opacity="1" fill-rule="nonzero"/><path fill="#ffffff" d="M 367.425781 718.570312 L 332.863281 699.371094 C 327.527344 696.402344 321.199219 695.777344 315.390625 697.65625 C 305.75 700.761719 289.542969 705.738281 272.609375 709.855469 C 276.78125 718.980469 282.402344 731.386719 286.3125 740.03125 C 304.753906 730.074219 318.015625 721.761719 318.015625 721.761719 L 340.332031 733.511719 C 340.332031 733.511719 339.085938 753.097656 343.519531 753.640625 C 347.953125 754.175781 349.613281 736.101562 349.613281 736.101562 C 349.613281 736.101562 353.421875 758.539062 360.003906 753.640625 L 362.527344 726.539062 C 362.527344 726.539062 366.898438 738.542969 369.402344 739.039062 C 371.914062 739.53125 371.914062 739.53125 371.914062 739.53125 L 367.425781 718.570312 " fill-opacity="1" fill-rule="nonzero"/><path fill="#000000" d="M 349.613281 734.742188 C 350.277344 734.742188 350.847656 735.214844 350.960938 735.875 C 352.042969 742.25 354.851562 751.742188 357.695312 752.878906 C 357.933594 752.976562 358.25 753.039062 358.707031 752.835938 L 361.167969 726.417969 C 361.226562 725.78125 361.71875 725.269531 362.355469 725.1875 C 362.988281 725.101562 363.59375 725.476562 363.8125 726.074219 C 365.929688 731.886719 368.640625 737.21875 369.730469 737.71875 L 370.144531 737.796875 L 366.222656 719.46875 L 332.199219 700.566406 C 327.207031 697.789062 321.230469 697.199219 315.808594 698.949219 C 305.761719 702.195312 290.585938 706.828125 274.535156 710.789062 C 278.363281 719.167969 283.25 729.949219 286.953125 738.132812 C 304.472656 728.621094 317.164062 720.683594 317.289062 720.601562 C 317.703125 720.347656 318.222656 720.324219 318.652344 720.550781 L 340.96875 732.308594 C 341.441406 732.554688 341.726562 733.0625 341.695312 733.597656 C 341.042969 743.902344 342.226562 752.105469 343.683594 752.28125 C 343.710938 752.28125 343.8125 752.296875 344.019531 752.128906 C 346.179688 750.386719 347.765625 741.300781 348.257812 735.980469 C 348.316406 735.300781 348.875 734.765625 349.558594 734.742188 C 349.582031 734.742188 349.597656 734.742188 349.613281 734.742188 Z M 358.144531 755.703125 C 357.578125 755.703125 357.078125 755.574219 356.679688 755.414062 C 353.519531 754.148438 351.296875 748.574219 349.921875 743.695312 C 349.117188 747.921875 347.792969 752.589844 345.734375 754.253906 C 344.820312 754.992188 343.9375 755.0625 343.355469 754.992188 C 338.429688 754.394531 338.542969 740.976562 338.917969 734.3125 L 318.074219 723.332031 C 315.144531 725.140625 302.914062 732.617188 286.960938 741.234375 C 286.628906 741.414062 286.234375 741.449219 285.875 741.328125 C 285.515625 741.203125 285.222656 740.941406 285.066406 740.59375 C 281.089844 731.800781 275.484375 719.425781 271.367188 710.425781 C 271.195312 710.050781 271.203125 709.625 271.378906 709.257812 C 271.558594 708.894531 271.890625 708.625 272.285156 708.527344 C 288.839844 704.507812 304.636719 699.6875 314.972656 696.351562 C 321.113281 694.371094 327.871094 695.039062 333.523438 698.175781 L 368.089844 717.378906 C 368.433594 717.566406 368.675781 717.902344 368.757812 718.285156 L 373.246094 739.25 C 373.34375 739.699219 373.210938 740.164062 372.882812 740.488281 C 372.5625 740.820312 372.097656 740.960938 371.644531 740.875 L 369.140625 740.378906 C 367.226562 740 365.082031 736.203125 363.363281 732.308594 L 361.363281 753.761719 C 361.328125 754.148438 361.128906 754.5 360.820312 754.734375 C 359.839844 755.464844 358.929688 755.703125 358.144531 755.703125 " fill-opacity="1" fill-rule="nonzero"/><path fill="#bf1162" d="M 191.261719 622.628906 L 192.785156 613.382812 C 193.292969 610.296875 191.289062 607.359375 188.230469 606.714844 C 172.96875 603.5 130.667969 594.332031 125.164062 590.453125 C 118.425781 585.703125 69.644531 631.664062 76.957031 630.460938 C 131.414062 621.484375 191.261719 622.628906 191.261719 622.628906 " fill-opacity="1" fill-rule="nonzero"/><path fill="#000000" d="M 123.867188 591.472656 C 123.445312 591.472656 122.71875 591.585938 121.515625 592.066406 C 109.648438 596.761719 82.855469 622.097656 78.238281 628.863281 C 127.628906 620.914062 181.496094 621.148438 190.105469 621.246094 L 191.4375 613.160156 C 191.828125 610.792969 190.296875 608.546875 187.949219 608.050781 C 166.535156 603.535156 129.804688 595.398438 124.375 591.566406 C 124.363281 591.558594 124.230469 591.472656 123.867188 591.472656 Z M 76.699219 631.847656 C 75.566406 631.847656 75.125 631.089844 75.007812 630.832031 C 74.597656 629.9375 73.984375 628.585938 82.886719 619.46875 C 88.011719 614.222656 94.8125 607.984375 101.085938 602.78125 C 121.273438 586.039062 124.792969 588.515625 125.949219 589.332031 C 130.210938 592.339844 161.0625 599.589844 188.511719 605.375 C 192.292969 606.171875 194.761719 609.789062 194.132812 613.605469 L 192.609375 622.847656 C 192.5 623.519531 191.933594 623.972656 191.238281 623.992188 C 190.636719 623.972656 130.878906 622.953125 77.179688 631.804688 C 77.007812 631.835938 76.847656 631.847656 76.699219 631.847656 " fill-opacity="1" fill-rule="nonzero"/><path fill="#ffffff" d="M 339.453125 530.351562 C 340.386719 528.492188 345.050781 522.941406 347.175781 521.351562 L 369.589844 500.503906 C 369.589844 500.503906 372.503906 510.550781 368.972656 516.472656 C 375.855469 516.699219 381.296875 517.875 381.296875 517.875 C 381.296875 517.875 391.539062 508.851562 394.089844 507.296875 C 396.640625 505.738281 399.96875 503.273438 403.398438 503.316406 C 406.839844 503.367188 410.246094 505.992188 410.246094 505.992188 L 390.554688 530.949219 L 354.742188 540.808594 L 356.75 595.105469 L 322.726562 590.453125 L 339.453125 530.351562 " fill-opacity="1" fill-rule="nonzero"/><path fill="#000000" d="M 324.464844 589.308594 L 355.324219 593.53125 L 353.382812 540.855469 C 353.355469 540.226562 353.773438 539.65625 354.386719 539.492188 L 389.757812 529.753906 L 408.257812 506.3125 C 407.089844 505.625 405.207031 504.707031 403.382812 504.683594 C 403.359375 504.683594 403.332031 504.683594 403.308594 504.683594 C 400.78125 504.683594 398.097656 506.386719 395.929688 507.753906 C 395.539062 508 395.164062 508.242188 394.800781 508.457031 C 392.792969 509.683594 385.023438 516.414062 382.203125 518.898438 C 381.875 519.183594 381.4375 519.304688 381.007812 519.210938 C 380.957031 519.199219 375.59375 518.058594 368.925781 517.839844 C 368.441406 517.824219 368.003906 517.550781 367.773438 517.125 C 367.542969 516.703125 367.550781 516.1875 367.800781 515.773438 C 370.03125 512.03125 369.382812 506.265625 368.785156 503.121094 L 348.101562 522.351562 C 348.066406 522.382812 348.027344 522.417969 347.992188 522.445312 C 346.074219 523.882812 341.703125 529.066406 340.730469 530.851562 Z M 356.75 596.46875 C 356.6875 596.46875 356.628906 596.464844 356.570312 596.457031 L 322.539062 591.808594 C 322.152344 591.753906 321.800781 591.53125 321.585938 591.199219 C 321.367188 590.875 321.304688 590.464844 321.410156 590.085938 L 338.140625 529.980469 C 338.160156 529.894531 338.195312 529.8125 338.234375 529.734375 C 339.238281 527.734375 343.945312 522.097656 346.296875 520.304688 L 368.660156 499.507812 C 369.007812 499.183594 369.5 499.066406 369.957031 499.191406 C 370.410156 499.316406 370.769531 499.671875 370.902344 500.125 C 371.015625 500.519531 373.394531 508.898438 371.074219 515.203125 C 375.722656 515.484375 379.429688 516.121094 380.902344 516.402344 C 383.035156 514.535156 391.0625 507.542969 393.378906 506.128906 C 393.730469 505.917969 394.089844 505.683594 394.46875 505.445312 C 396.933594 503.886719 399.992188 501.949219 403.308594 501.949219 C 403.34375 501.949219 403.382812 501.953125 403.417969 501.953125 C 407.269531 502.003906 410.925781 504.792969 411.082031 504.910156 C 411.371094 505.132812 411.558594 505.460938 411.601562 505.824219 C 411.648438 506.1875 411.546875 506.550781 411.320312 506.835938 L 391.628906 531.796875 C 391.445312 532.023438 391.199219 532.1875 390.917969 532.269531 L 356.152344 541.835938 L 358.117188 595.050781 C 358.132812 595.457031 357.96875 595.84375 357.667969 596.113281 C 357.414062 596.34375 357.085938 596.46875 356.75 596.46875 " fill-opacity="1" fill-rule="nonzero"/><path fill="#000000" d="M 259.125 313.800781 C 258.367188 313.800781 257.757812 313.191406 257.757812 312.4375 L 257.757812 251.320312 C 257.757812 250.566406 258.367188 249.957031 259.125 249.957031 C 259.878906 249.957031 260.488281 250.566406 260.488281 251.320312 L 260.488281 312.4375 C 260.488281 313.191406 259.878906 313.800781 259.125 313.800781 " fill-opacity="1" fill-rule="nonzero"/><path fill="#000000" d="M 262.128906 251.320312 C 262.128906 252.976562 260.785156 254.320312 259.125 254.320312 C 257.464844 254.320312 256.121094 252.976562 256.121094 251.320312 C 256.121094 249.65625 257.464844 248.316406 259.125 248.316406 C 260.785156 248.316406 262.128906 249.65625 262.128906 251.320312 " fill-opacity="1" fill-rule="nonzero"/><path fill="#000000" d="M 262.125 312.4375 C 262.125 314.097656 260.78125 315.441406 259.125 315.441406 C 257.464844 315.441406 256.121094 314.097656 256.121094 312.4375 C 256.121094 310.777344 257.464844 309.433594 259.125 309.433594 C 260.78125 309.433594 262.125 310.777344 262.125 312.4375 " fill-opacity="1" fill-rule="nonzero"/><path fill="#000000" d="M 259.125 506.125 C 258.367188 506.125 257.757812 505.507812 257.757812 504.757812 L 257.757812 496.558594 C 257.757812 495.804688 258.367188 495.195312 259.125 495.195312 C 259.878906 495.195312 260.488281 495.804688 260.488281 496.558594 L 260.488281 504.757812 C 260.488281 505.507812 259.878906 506.125 259.125 506.125 Z M 259.125 522.511719 C 258.367188 522.511719 257.757812 521.898438 257.757812 521.144531 L 257.757812 512.949219 C 257.757812 512.199219 258.367188 511.582031 259.125 511.582031 C 259.878906 511.582031 260.488281 512.199219 260.488281 512.949219 L 260.488281 521.144531 C 260.488281 521.898438 259.878906 522.511719 259.125 522.511719 Z M 259.125 538.902344 C 258.367188 538.902344 257.757812 538.289062 257.757812 537.535156 L 257.757812 529.34375 C 257.757812 528.585938 258.367188 527.976562 259.125 527.976562 C 259.878906 527.976562 260.488281 528.585938 260.488281 529.34375 L 260.488281 537.535156 C 260.488281 538.289062 259.878906 538.902344 259.125 538.902344 Z M 259.125 555.289062 C 258.367188 555.289062 257.757812 554.679688 257.757812 553.921875 L 257.757812 545.730469 C 257.757812 544.976562 258.367188 544.363281 259.125 544.363281 C 259.878906 544.363281 260.488281 544.976562 260.488281 545.730469 L 260.488281 553.921875 C 260.488281 554.679688 259.878906 555.289062 259.125 555.289062 " fill-opacity="1" fill-rule="nonzero"/><path fill="#000000" d="M 262.125 496.558594 C 262.125 498.21875 260.78125 499.566406 259.125 499.566406 C 257.464844 499.566406 256.121094 498.21875 256.121094 496.558594 C 256.121094 494.902344 257.464844 493.554688 259.125 493.554688 C 260.78125 493.554688 262.125 494.902344 262.125 496.558594 " fill-opacity="1" fill-rule="nonzero"/><path fill="#000000" d="M 429.425781 405.890625 L 388.515625 405.890625 C 387.761719 405.890625 387.148438 405.277344 387.148438 404.527344 C 387.148438 403.769531 387.761719 403.160156 388.515625 403.160156 L 429.425781 403.160156 C 430.179688 403.160156 430.789062 403.769531 430.789062 404.527344 C 430.789062 405.277344 430.179688 405.890625 429.425781 405.890625 " fill-opacity="1" fill-rule="nonzero"/><path fill="#000000" d="M 388.515625 401.519531 C 390.175781 401.519531 391.523438 402.867188 391.523438 404.527344 C 391.523438 406.183594 390.175781 407.527344 388.515625 407.527344 C 386.859375 407.527344 385.511719 406.183594 385.511719 404.527344 C 385.511719 402.867188 386.859375 401.519531 388.515625 401.519531 " fill-opacity="1" fill-rule="nonzero"/><path fill="#000000" d="M 429.425781 401.519531 C 431.085938 401.519531 432.429688 402.867188 432.429688 404.527344 C 432.429688 406.183594 431.085938 407.527344 429.425781 407.527344 C 427.765625 407.527344 426.421875 406.183594 426.421875 404.527344 C 426.421875 402.867188 427.765625 401.519531 429.425781 401.519531 " fill-opacity="1" fill-rule="nonzero"/><path fill="#000000" d="M 560.902344 538.835938 C 560.152344 538.835938 559.542969 538.226562 559.542969 537.46875 L 559.542969 496.558594 C 559.542969 495.804688 560.152344 495.191406 560.902344 495.191406 C 561.660156 495.191406 562.269531 495.804688 562.269531 496.558594 L 562.269531 537.46875 C 562.269531 538.226562 561.660156 538.835938 560.902344 538.835938 " fill-opacity="1" fill-rule="nonzero"/><path fill="#000000" d="M 557.90625 537.46875 C 557.90625 535.808594 559.246094 534.464844 560.910156 534.464844 C 562.566406 534.464844 563.910156 535.808594 563.910156 537.46875 C 563.910156 539.125 562.566406 540.472656 560.910156 540.472656 C 559.246094 540.472656 557.90625 539.125 557.90625 537.46875 " fill-opacity="1" fill-rule="nonzero"/><path fill="#000000" d="M 557.90625 496.558594 C 557.90625 494.898438 559.246094 493.554688 560.910156 493.554688 C 562.566406 493.554688 563.910156 494.898438 563.910156 496.558594 C 563.910156 498.21875 562.566406 499.5625 560.910156 499.5625 C 559.246094 499.5625 557.90625 498.21875 557.90625 496.558594 " fill-opacity="1" fill-rule="nonzero"/><path fill="#fdd8e9" d="M 626.941406 744.316406 C 624.386719 744.636719 622.070312 742.828125 621.75 740.28125 C 621.429688 737.734375 623.242188 735.410156 625.785156 735.09375 C 628.332031 734.78125 630.65625 736.585938 630.972656 739.132812 C 631.292969 741.679688 629.484375 744 626.941406 744.316406 " fill-opacity="1" fill-rule="nonzero"/><path fill="#000000" d="M 724.625 138.78125 C 724.46875 138.78125 724.308594 138.785156 724.152344 138.808594 C 723.15625 138.933594 722.257812 139.441406 721.644531 140.234375 C 721.019531 141.03125 720.75 142.019531 720.871094 143.019531 C 721 144.019531 721.503906 144.910156 722.296875 145.53125 C 723.097656 146.148438 724.085938 146.421875 725.082031 146.296875 C 727.148438 146.042969 728.625 144.148438 728.359375 142.085938 C 728.238281 141.085938 727.730469 140.191406 726.9375 139.574219 C 726.269531 139.058594 725.457031 138.78125 724.625 138.78125 Z M 724.605469 149.058594 C 723.164062 149.058594 721.777344 148.582031 720.625 147.6875 C 719.253906 146.617188 718.378906 145.082031 718.160156 143.359375 C 717.949219 141.636719 718.417969 139.929688 719.480469 138.558594 C 720.554688 137.1875 722.085938 136.3125 723.816406 136.097656 C 725.539062 135.882812 727.246094 136.351562 728.613281 137.417969 C 729.980469 138.488281 730.859375 140.023438 731.070312 141.746094 C 731.515625 145.308594 728.976562 148.5625 725.421875 149.007812 C 725.152344 149.042969 724.871094 149.058594 724.605469 149.058594 " fill-opacity="1" fill-rule="nonzero"/><path fill="#000000" d="M 700.910156 119.742188 C 700.902344 119.742188 700.902344 119.742188 700.902344 119.742188 C 700.148438 119.738281 699.539062 119.117188 699.542969 118.367188 L 699.574219 113.886719 C 699.578125 113.136719 700.1875 112.53125 700.945312 112.53125 C 700.945312 112.53125 700.949219 112.53125 700.949219 112.53125 C 701.703125 112.539062 702.3125 113.15625 702.304688 113.90625 L 702.277344 118.382812 C 702.269531 119.140625 701.65625 119.742188 700.910156 119.742188 " fill-opacity="1" fill-rule="nonzero"/><path fill="#000000" d="M 700.789062 135.414062 C 700.789062 135.414062 700.78125 135.414062 700.78125 135.414062 C 700.027344 135.410156 699.421875 134.792969 699.425781 134.035156 L 699.457031 129.558594 C 699.46875 128.808594 700.074219 128.203125 700.824219 128.203125 C 700.828125 128.203125 700.828125 128.203125 700.835938 128.203125 C 701.582031 128.207031 702.195312 128.824219 702.1875 129.582031 L 702.15625 134.058594 C 702.152344 134.808594 701.539062 135.414062 700.789062 135.414062 " fill-opacity="1" fill-rule="nonzero"/><path fill="#000000" d="M 695.269531 125.332031 L 690.789062 125.328125 C 690.03125 125.328125 689.421875 124.710938 689.421875 123.957031 C 689.429688 123.203125 690.039062 122.59375 690.789062 122.59375 L 690.792969 122.59375 L 695.269531 122.597656 C 696.023438 122.605469 696.632812 123.210938 696.632812 123.96875 C 696.632812 124.722656 696.023438 125.332031 695.269531 125.332031 " fill-opacity="1" fill-rule="nonzero"/><path fill="#000000" d="M 710.945312 125.355469 L 706.464844 125.34375 C 705.710938 125.34375 705.09375 124.730469 705.09375 123.980469 C 705.101562 123.226562 705.710938 122.613281 706.464844 122.613281 C 706.464844 122.613281 706.464844 122.613281 706.46875 122.613281 L 710.945312 122.621094 C 711.699219 122.621094 712.308594 123.238281 712.308594 123.988281 C 712.308594 124.746094 711.699219 125.355469 710.945312 125.355469 " fill-opacity="1" fill-rule="nonzero"/><path fill="#000000" d="M 61.613281 132.609375 C 61.257812 132.609375 60.90625 132.476562 60.640625 132.203125 C 60.109375 131.667969 60.117188 130.804688 60.652344 130.273438 L 64.242188 126.738281 C 64.777344 126.207031 65.644531 126.214844 66.171875 126.753906 C 66.703125 127.289062 66.695312 128.152344 66.15625 128.683594 L 62.570312 132.21875 C 62.304688 132.480469 61.960938 132.609375 61.613281 132.609375 " fill-opacity="1" fill-rule="nonzero"/><path fill="#000000" d="M 49.058594 144.984375 C 48.707031 144.984375 48.351562 144.847656 48.085938 144.578125 C 47.554688 144.039062 47.5625 143.175781 48.097656 142.644531 L 51.6875 139.113281 C 52.222656 138.582031 53.085938 138.585938 53.617188 139.125 C 54.148438 139.664062 54.140625 140.527344 53.601562 141.054688 L 50.019531 144.59375 C 49.75 144.851562 49.402344 144.984375 49.058594 144.984375 " fill-opacity="1" fill-rule="nonzero"/><path fill="#000000" d="M 52.6875 132.570312 C 52.335938 132.570312 51.984375 132.433594 51.71875 132.167969 L 48.164062 128.597656 C 47.628906 128.0625 47.632812 127.199219 48.164062 126.667969 C 48.699219 126.132812 49.566406 126.140625 50.097656 126.667969 L 53.652344 130.238281 C 54.183594 130.773438 54.183594 131.636719 53.648438 132.167969 C 53.382812 132.4375 53.035156 132.570312 52.6875 132.570312 " fill-opacity="1" fill-rule="nonzero"/><path fill="#000000" d="M 65.128906 145.054688 C 64.777344 145.054688 64.425781 144.921875 64.160156 144.652344 L 60.605469 141.085938 C 60.074219 140.554688 60.074219 139.6875 60.609375 139.152344 C 61.144531 138.621094 62.003906 138.621094 62.539062 139.15625 L 66.097656 142.722656 C 66.628906 143.261719 66.625 144.125 66.09375 144.65625 C 65.828125 144.921875 65.476562 145.054688 65.128906 145.054688 " fill-opacity="1" fill-rule="nonzero"/><path fill="#000000" d="M 458.425781 227.621094 C 458.070312 227.621094 457.71875 227.484375 457.453125 227.214844 C 456.925781 226.675781 456.929688 225.8125 457.46875 225.277344 L 461.054688 221.746094 C 461.59375 221.21875 462.453125 221.222656 462.984375 221.761719 C 463.511719 222.300781 463.503906 223.164062 462.96875 223.691406 L 459.382812 227.226562 C 459.117188 227.488281 458.773438 227.621094 458.425781 227.621094 " fill-opacity="1" fill-rule="nonzero"/><path fill="#000000" d="M 445.871094 239.992188 C 445.515625 239.992188 445.164062 239.859375 444.894531 239.585938 C 444.367188 239.050781 444.378906 238.183594 444.914062 237.652344 L 448.5 234.121094 C 449.035156 233.589844 449.902344 233.597656 450.429688 234.132812 C 450.960938 234.667969 450.957031 235.535156 450.414062 236.0625 L 446.824219 239.597656 C 446.5625 239.859375 446.21875 239.992188 445.871094 239.992188 " fill-opacity="1" fill-rule="nonzero"/><path fill="#000000" d="M 449.5 227.578125 C 449.152344 227.578125 448.800781 227.441406 448.53125 227.175781 L 444.976562 223.609375 C 444.445312 223.074219 444.445312 222.210938 444.980469 221.675781 C 445.511719 221.144531 446.378906 221.144531 446.914062 221.679688 L 450.46875 225.25 C 451 225.78125 451 226.644531 450.460938 227.179688 C 450.199219 227.445312 449.847656 227.578125 449.5 227.578125 " fill-opacity="1" fill-rule="nonzero"/><path fill="#000000" d="M 461.941406 240.0625 C 461.59375 240.0625 461.238281 239.925781 460.972656 239.660156 L 457.421875 236.09375 C 456.886719 235.558594 456.886719 234.695312 457.421875 234.160156 C 457.957031 233.628906 458.824219 233.628906 459.355469 234.164062 L 462.910156 237.730469 C 463.441406 238.265625 463.441406 239.132812 462.90625 239.664062 C 462.640625 239.933594 462.289062 240.0625 461.941406 240.0625 " fill-opacity="1" fill-rule="nonzero"/><path fill="#ff98c8" d="M 614.050781 758.859375 C 611.550781 762.066406 606.929688 762.640625 603.726562 760.144531 C 600.515625 757.648438 599.9375 753.023438 602.433594 749.816406 C 604.933594 746.613281 609.554688 746.035156 612.757812 748.53125 C 615.96875 751.027344 616.546875 755.652344 614.050781 758.859375 " fill-opacity="1" fill-rule="nonzero"/><path fill="#000000" d="M 102.425781 219.78125 C 102.214844 219.78125 102.007812 219.792969 101.796875 219.820312 C 100.476562 219.984375 99.296875 220.652344 98.480469 221.703125 C 97.664062 222.753906 97.304688 224.058594 97.46875 225.382812 C 97.632812 226.699219 98.300781 227.882812 99.351562 228.695312 C 100.402344 229.515625 101.710938 229.875 103.027344 229.710938 C 104.347656 229.542969 105.527344 228.878906 106.34375 227.824219 C 107.164062 226.773438 107.523438 225.46875 107.359375 224.152344 C 107.191406 222.828125 106.523438 221.648438 105.472656 220.835938 C 104.589844 220.144531 103.527344 219.78125 102.425781 219.78125 Z M 102.398438 232.480469 C 100.691406 232.480469 99.042969 231.917969 97.671875 230.855469 C 96.046875 229.585938 95.011719 227.761719 94.757812 225.71875 C 94.503906 223.671875 95.058594 221.652344 96.324219 220.023438 C 97.589844 218.402344 99.414062 217.363281 101.457031 217.109375 C 103.507812 216.851562 105.527344 217.414062 107.152344 218.679688 C 108.777344 219.941406 109.8125 221.765625 110.066406 223.8125 C 110.324219 225.855469 109.765625 227.875 108.5 229.503906 C 107.234375 231.128906 105.410156 232.164062 103.367188 232.421875 C 103.042969 232.460938 102.71875 232.480469 102.398438 232.480469 " fill-opacity="1" fill-rule="nonzero"/></svg>